<svg width="28" height="20" viewBox="0 0 28 20" fill="none" xmlns="http://www.w3.org/2000/svg">
<path d="M12.2048 20L10.4497 16.1742C10.778 16.0241 18.5095 12.4762 21.2915 11.2907C22.432 10.8039 22.8108 10.2581 22.8206 10.1136C22.8263 10.0168 22.5934 9.47812 21.4009 8.78227C18.1026 6.85466 12.4545 3.70791 12.397 3.67705L14.4438 0C14.5013 0.0322671 20.1874 3.19865 23.5235 5.14871C26.7348 7.02441 27.0925 9.2312 27.021 10.3788C26.8961 12.3681 25.409 14.112 22.9427 15.1627C20.2126 16.3258 12.2847 19.9635 12.2048 20Z" fill="white"/>
<path d="M23.8572 7.6936H0.5V11.9024H23.8572V7.6936Z" fill="white"/>
</svg>
