<svg width="29" height="21" viewBox="0 0 29 21" fill="none" xmlns="http://www.w3.org/2000/svg">
<path fill-rule="evenodd" clip-rule="evenodd" d="M13.8126 3.43156C13.8126 3.43154 13.8125 3.43153 14.6518 1.92445C15.491 0.417371 15.4911 0.417389 15.4911 0.41742L15.5608 0.456239C15.6064 0.481664 15.6737 0.519177 15.7605 0.567638C15.9342 0.664559 16.1862 0.805277 16.4998 0.980657C17.1269 1.33139 18.0004 1.82089 18.9864 2.37603C20.9557 3.48489 23.3827 4.8608 25.1892 5.91588L25.1895 5.91602C27.4234 7.22114 28.9463 9.08036 28.6394 11.3174C28.3515 13.4158 26.5534 14.8659 24.6265 15.6869C23.1583 16.3128 20.2938 17.6031 17.7776 18.7458C16.5235 19.3153 15.3623 19.8452 14.5145 20.2328C14.0906 20.4266 13.7452 20.5848 13.5058 20.6945C13.3861 20.7493 13.2929 20.792 13.2297 20.821L13.1337 20.865L13.1334 20.8652C13.1334 20.8652 13.1333 20.8652 12.4138 19.2974C11.6942 17.7297 11.6943 17.7297 11.6943 17.7296L11.6946 17.7295L11.7915 17.6851C11.8551 17.6559 11.9486 17.613 12.0687 17.558C12.3089 17.448 12.6552 17.2894 13.08 17.0952C13.9296 16.7068 15.0936 16.1756 16.3511 15.6045C18.8579 14.4661 21.7615 13.1578 23.2739 12.5131L23.2741 12.513C24.7866 11.8685 25.1808 11.1443 25.2214 10.8484C25.243 10.691 25.2307 9.93582 23.4493 8.89502M13.8126 3.43156L13.8128 3.43166L13.8126 3.43156ZM13.8128 3.43166L13.8136 3.43211L13.8128 3.43166ZM13.8136 3.43211L13.8168 3.43391L13.8136 3.43211ZM13.8168 3.43391L13.8298 3.44114L13.8168 3.43391ZM13.8298 3.44114L13.8811 3.46972L13.8298 3.44114ZM13.8811 3.46972C13.9263 3.49492 13.9931 3.53218 14.0795 3.58039L13.8811 3.46972ZM14.0795 3.58039C14.2523 3.6768 14.5033 3.81694 14.8157 3.9917L14.0795 3.58039ZM14.8157 3.9917C15.4407 4.34123 16.3113 4.82907 17.2937 5.38225L14.8157 3.9917ZM17.2937 5.38225C19.261 6.48996 21.6677 7.85449 23.4491 8.89488L17.2937 5.38225Z" fill="#ED4931"/>
<path fill-rule="evenodd" clip-rule="evenodd" d="M25.8104 12.1604H0.836914V8.71045H25.8104V12.1604Z" fill="#ED4931"/>
</svg>
