<svg width="29" height="21" viewBox="0 0 29 21" fill="none" xmlns="http://www.w3.org/2000/svg">
<path fill-rule="evenodd" clip-rule="evenodd" d="M15.1874 3.43156C15.1874 3.43154 15.1875 3.43153 14.3482 1.92445C13.509 0.417371 13.5089 0.417389 13.5089 0.41742L13.4392 0.456239C13.3936 0.481664 13.3263 0.519177 13.2395 0.567638C13.0658 0.664559 12.8138 0.805277 12.5002 0.980657C11.8731 1.33139 10.9996 1.82089 10.0136 2.37603C8.04428 3.48489 5.61732 4.8608 3.81076 5.91588L3.81053 5.91602C1.57663 7.22114 0.053688 9.08036 0.360598 11.3174C0.648502 13.4158 2.44657 14.8659 4.37354 15.6869C5.84173 16.3128 8.7062 17.6031 11.2224 18.7458C12.4765 19.3153 13.6377 19.8452 14.4855 20.2328C14.9094 20.4266 15.2548 20.5848 15.4942 20.6945C15.6139 20.7493 15.7071 20.792 15.7703 20.821L15.8663 20.865L15.8666 20.8652C15.8666 20.8652 15.8667 20.8652 16.5862 19.2974C17.3058 17.7297 17.3057 17.7297 17.3057 17.7296L17.3054 17.7295L17.2085 17.6851C17.1449 17.6559 17.0514 17.613 16.9313 17.558C16.6911 17.448 16.3448 17.2894 15.92 17.0952C15.0704 16.7068 13.9064 16.1756 12.6489 15.6045C10.1421 14.4661 7.23853 13.1578 5.72614 12.5131L5.72588 12.513C4.21335 11.8685 3.81917 11.1443 3.77858 10.8484C3.75699 10.691 3.7693 9.93582 5.55066 8.89502M15.1874 3.43156L15.1872 3.43166L15.1874 3.43156ZM15.1872 3.43166L15.1864 3.43211L15.1872 3.43166ZM15.1864 3.43211L15.1832 3.43391L15.1864 3.43211ZM15.1832 3.43391L15.1702 3.44114L15.1832 3.43391ZM15.1702 3.44114L15.1189 3.46972L15.1702 3.44114ZM15.1189 3.46972C15.0737 3.49492 15.0069 3.53218 14.9205 3.58039L15.1189 3.46972ZM14.9205 3.58039C14.7477 3.6768 14.4967 3.81694 14.1843 3.9917L14.9205 3.58039ZM14.1843 3.9917C13.5593 4.34123 12.6887 4.82907 11.7063 5.38225L14.1843 3.9917ZM11.7063 5.38225C9.73898 6.48996 7.33231 7.85449 5.55089 8.89488L11.7063 5.38225Z" fill="#ED4931"/>
<path fill-rule="evenodd" clip-rule="evenodd" d="M3.18959 12.1604H28.1631V8.71045H3.18959V12.1604Z" fill="#ED4931"/>
</svg>
