<svg width="28" height="20" viewBox="0 0 28 20" fill="none" xmlns="http://www.w3.org/2000/svg">
<path d="M15.7952 -1.53431e-07L17.5503 3.82576C17.222 3.97587 9.49053 7.52385 6.70854 8.70931C5.56797 9.19613 5.18918 9.74186 5.17936 9.88636C5.17375 9.98316 5.40664 10.5219 6.59912 11.2177C9.89738 13.1453 15.5455 16.2921 15.603 16.323L13.5562 20C13.4987 19.9677 7.81264 16.8013 4.4765 14.8513C1.26522 12.9756 0.907475 10.7688 0.979024 9.62121C1.10388 7.63187 2.59098 5.88804 5.05731 4.83726C7.78739 3.67424 15.7153 0.036476 15.7952 -1.53431e-07Z" fill="white"/>
<path d="M4.14282 12.3064L27.5 12.3064L27.5 8.09764L4.14282 8.09764L4.14282 12.3064Z" fill="white"/>
</svg>
