<svg width="97" height="96" viewBox="0 0 97 96" fill="none" xmlns="http://www.w3.org/2000/svg">
<path d="M15.5396 31.2536C15.7294 30.9639 15.9319 30.6878 16.148 30.3991C16.5521 29.9056 17.0262 29.4364 17.5445 29.0231C19.8966 27.1492 22.8983 26.6476 25.5708 27.42C26.1597 27.58 26.7194 27.8339 27.2544 28.1091C27.7415 28.3261 28.2237 28.5669 28.7188 28.8537C30.932 30.0889 33.3627 31.6817 35.9262 33.5068L35.9299 33.5093L62.7738 24.7678C64.2013 24.3048 65.6133 25.5152 65.373 26.9981L65.017 29.1582C64.9051 29.8379 64.6543 30.4749 64.2845 31.0393C63.9294 31.5811 63.4652 32.0514 62.9179 32.4188L47.5946 42.6538C55.1408 48.9812 63.5384 56.7754 67.8715 60.8573L80.0499 57.0217C81.5625 56.749 82.6612 58.4209 81.8253 59.6965C81.8155 59.7115 81.8081 59.7228 81.7982 59.7378L67.1515 80.8986C66.2842 82.1482 64.351 81.7742 64.0099 80.2921L62.5442 70.07C57.8126 67.6632 46.8818 62.0276 37.6712 56.6479L33.2101 74.5765C33.0746 75.1116 32.8577 75.6149 32.5594 76.0702C32.1328 76.7211 31.5482 77.2685 30.855 77.6532L28.942 78.7177C27.6289 79.4492 26.0109 78.5287 25.9678 77.0268L25.1091 48.7332C22.4922 46.9322 20.1475 45.159 18.214 43.4887C17.8836 43.1968 17.5783 42.9322 17.3003 42.6425L17.2877 42.6288C16.8992 42.2613 16.5471 41.9123 16.226 41.5405C16.1645 41.4948 16.1065 41.4192 16.0587 41.3609L15.9276 41.1997C13.7059 38.254 13.6484 34.2955 15.5223 31.28C15.5273 31.2724 15.5347 31.2611 15.5396 31.2536ZM8.01438 26.3223L7.98233 26.3712L7.93302 26.4464L7.88371 26.5217C4.01503 32.7371 4.36082 40.8108 8.74501 46.6204L8.81312 46.7134L8.88369 46.8027L9.01473 46.9639C9.18987 47.1808 9.41536 47.4523 9.70598 47.7557C10.149 48.245 10.5716 48.6672 10.9274 49.0025C11.3651 49.4507 11.7709 49.8081 12.0976 50.0974L12.2296 50.2162L12.2773 50.2582L12.3213 50.2978C13.4896 51.3055 14.7968 52.3557 16.2415 53.4422L16.9666 77.3026C17.0832 81.1708 19.1605 84.6243 22.5282 86.5353C25.8959 88.4464 29.9224 88.4657 33.3063 86.5849L35.2193 85.5205C37.1734 84.4345 38.8529 82.8728 40.0783 81.0028C40.9339 79.6972 41.559 78.2674 41.935 76.7497L43.5507 70.2626C47.5467 72.4294 51.3305 74.4196 54.2947 75.9533L55.1002 81.5691L55.1518 81.9417L55.2345 82.3079C56.1856 86.454 59.4999 89.6531 63.6798 90.456C67.8597 91.259 72.1206 89.5172 74.5409 86.0207L89.1877 64.8599C89.2408 64.7871 89.2925 64.7081 89.3443 64.6291C91.699 61.0358 91.6886 56.3982 89.3146 52.8148C86.9468 49.2301 82.6777 47.4061 78.4503 48.1694L77.8871 48.2736L77.3383 48.4464L70.1669 50.7065C67.8881 48.5947 65.2061 46.138 62.375 43.6051L67.9031 39.9131C69.4607 38.8739 70.7703 37.5485 71.796 35.9832C72.8637 34.354 73.5669 32.5505 73.881 30.6266L74.237 28.4665C74.8644 24.6448 73.482 20.8615 70.5462 18.3406C67.6103 15.8197 63.6576 15.0312 59.9751 16.2269L37.3426 23.5976C35.8451 22.6162 34.4572 21.7713 33.1451 21.0405C32.4921 20.6664 31.8331 20.326 31.1369 20.0096C30.0521 19.4654 29.0257 19.0618 28.0041 18.7741C22.4655 17.1884 16.4573 18.3875 11.9279 21.9917C10.936 22.7831 10.0161 23.6863 9.19673 24.6822L9.05956 24.8504L8.92992 25.0237C8.68543 25.3475 8.35465 25.803 8.01438 26.3223Z" fill="#FFCAD4"/>
</svg>
