<svg width="108" height="93" viewBox="0 0 108 93" fill="none" xmlns="http://www.w3.org/2000/svg">
<path fill-rule="evenodd" clip-rule="evenodd" d="M55.5787 28.1622L67.047 64.8097L91.6869 57.2054C87.6223 44.8388 81.5012 25.88 78.3308 14.9254C68.2015 18.8322 60.3563 24.1627 55.5787 28.1622ZM45.7151 22.568C51.519 17.0497 63.7272 8.00804 80.3882 2.86618L85.8368 1.18466L87.2019 6.71961C89.4199 15.7132 99.0027 45.2212 103.588 59.0495L105.304 64.2259L60.0027 78.2066L43.3076 24.857L45.7151 22.568Z" fill="#FFCAD4"/>
<path fill-rule="evenodd" clip-rule="evenodd" d="M3.43092 26.2192L8.61639 25.0324C17.746 22.9428 26.8543 22.0256 34.3303 21.7836C41.6381 21.5471 47.889 21.9393 51.1418 22.728L48.6437 33.1338C46.8665 32.703 41.8187 32.2577 34.7206 32.4875C29.2621 32.6642 22.8885 33.2309 16.3576 34.3952C19.0727 45.106 24.094 62.841 28.0558 75.8688C38.403 71.3343 51.4225 68.2747 59.8163 67.3846L60.993 78.0341C51.856 79.0031 36.5937 82.9226 27.4756 88.1248L21.6839 91.4292L19.6749 85.0638C14.8633 69.8186 7.01279 42.1322 4.59821 31.4051L3.43092 26.2192Z" fill="#FFCAD4"/>
</svg>
