<svg width="23" height="18" viewBox="0 0 23 18" fill="none" xmlns="http://www.w3.org/2000/svg">
<path fill-rule="evenodd" clip-rule="evenodd" d="M12.7883 4.78856L13.5527 14.1036L19.81 13.615C19.5058 10.4612 19.0657 5.63223 18.8984 2.86158C16.2844 3.24783 14.1366 4.09424 12.7883 4.78856ZM10.7452 2.93299C12.4184 1.93287 15.8005 0.438441 20.0315 0.108044L21.4152 -3.94122e-06L21.4435 1.38725C21.4894 3.64137 22.1877 11.1603 22.5372 14.689L22.6681 16.0099L11.1639 16.9082L10.0512 3.34783L10.7452 2.93299Z" fill="white"/>
<path fill-rule="evenodd" clip-rule="evenodd" d="M0.509343 1.53978L1.80409 1.53514C4.08362 1.52696 6.29545 1.79601 8.08358 2.13815C9.83147 2.47259 11.2948 2.89985 12.025 3.26099L10.8756 5.59836C10.4767 5.40106 9.30187 5.02552 7.60413 4.70068C6.29853 4.45087 4.75481 4.24476 3.1418 4.17215C3.21401 6.86057 3.45838 11.3402 3.70277 14.6454C6.40211 14.1218 9.65717 14.0912 11.6979 14.3285L11.4081 16.9201C9.18666 16.6618 5.35307 16.7768 2.90991 17.5247L1.35801 17.9997L1.2212 16.3809C0.893546 12.5037 0.509301 5.50983 0.509329 2.83358L0.509343 1.53978Z" fill="white"/>
</svg>
