<svg width="20" height="21" viewBox="0 0 20 21" fill="none" xmlns="http://www.w3.org/2000/svg">
<g clip-path="url(#clip0)">
<path d="M19.7873 8.35391L10.307 1.41262C10.1242 1.27879 9.87584 1.27879 9.69311 1.41262L0.212718 8.35391C-0.0188446 8.52348 -0.0691571 8.84863 0.100413 9.0802C0.269984 9.31176 0.595179 9.36199 0.826702 9.1925L10 2.47594L19.1733 9.19246C19.2658 9.26024 19.3733 9.29285 19.4799 9.29285C19.6399 9.29285 19.7978 9.21922 19.8996 9.08016C20.0692 8.84864 20.0189 8.52348 19.7873 8.35391Z" fill="#4F4F4F"/>
<path d="M17.2752 9.31012C16.9882 9.31012 16.7555 9.54278 16.7555 9.82977V18.1012H12.5984V13.5861C12.5984 12.1533 11.4327 10.9877 9.99996 10.9877C8.56723 10.9877 7.40152 12.1534 7.40152 13.5861V18.1013H3.24437V9.82981C3.24437 9.54281 3.01168 9.31016 2.72473 9.31016C2.43777 9.31016 2.20508 9.54281 2.20508 9.82981V18.6209C2.20508 18.9079 2.43777 19.1406 2.72473 19.1406H7.92117C8.19445 19.1406 8.41809 18.9295 8.43879 18.6614C8.44004 18.6493 8.44082 18.636 8.44082 18.6209V13.5862C8.44082 12.7264 9.14023 12.027 9.99996 12.027C10.8597 12.027 11.5591 12.7265 11.5591 13.5862V18.6209C11.5591 18.6359 11.5599 18.6489 11.5611 18.6609C11.5816 18.9292 11.8053 19.1406 12.0787 19.1406H17.2752C17.5622 19.1406 17.7948 18.9079 17.7948 18.6209V9.82981C17.7948 9.54278 17.5621 9.31012 17.2752 9.31012Z" fill="#4F4F4F"/>
</g>
<defs>
<clipPath id="clip0">
<rect width="20" height="20" fill="white" transform="translate(0 0.22641)"/>
</clipPath>
</defs>
</svg>
