<svg width="21" height="20" viewBox="0 0 21 20" fill="none" xmlns="http://www.w3.org/2000/svg">
<g clip-path="url(#clip0)">
<path fill-rule="evenodd" clip-rule="evenodd" d="M2.96866 6.97003H10.8097V8.22816C12.0644 7.72974 13.2258 7.43006 14.1697 7.24941C14.8884 7.11186 15.4859 7.04237 15.9094 7.00721C16.1214 6.98961 16.2903 6.98057 16.4095 6.97593C16.4692 6.97361 16.5165 6.97238 16.5506 6.97174C16.5677 6.97142 16.5815 6.97124 16.5918 6.97114C16.597 6.9711 16.6014 6.97107 16.6049 6.97105L16.6095 6.97104L16.612 6.97103C16.6124 6.97103 16.6127 6.97103 16.6127 8.12103V6.97103L17.6282 6.97103L19.2309 19.8198L17.8142 19.6967L17.814 19.6967L17.7874 19.6944C17.7688 19.6929 17.7409 19.6905 17.704 19.6875C17.6301 19.6814 17.5204 19.6725 17.3783 19.6614C17.0941 19.6393 16.6806 19.6085 16.1662 19.5741C15.1369 19.5054 13.7061 19.4224 12.1002 19.3656C8.86389 19.251 5.00418 19.2463 2.27741 19.6506L0.880371 19.8577L0.960604 18.4477C1.06998 16.5255 1.52757 13.8591 1.94488 11.7191C2.15545 10.6392 2.3593 9.67585 2.51051 8.98241C2.58615 8.63554 2.6487 8.35579 2.69246 8.16231C2.71434 8.06556 2.73152 7.99035 2.74329 7.93906C2.74918 7.91342 2.75372 7.89376 2.75681 7.88037L2.76164 7.85953C2.76166 7.85943 2.76168 7.85935 3.88175 8.12003L2.76168 7.85935L2.96866 6.97003ZM4.80202 9.27003C4.78784 9.33454 4.77305 9.40207 4.7577 9.47243C4.60913 10.1538 4.40892 11.1 4.20236 12.1593C3.8852 13.7857 3.56111 15.6391 3.38031 17.2036C6.12311 16.9446 9.43692 16.9698 12.1816 17.067C13.817 17.1249 15.2726 17.2093 16.3195 17.2792C16.416 17.2857 16.5091 17.292 16.5986 17.2982L15.6072 9.35018C15.3207 9.38522 14.982 9.4357 14.602 9.50841C13.3414 9.74967 11.6474 10.2319 9.90685 11.1912L8.84799 9.27003H4.80202Z" fill="white"/>
<path fill-rule="evenodd" clip-rule="evenodd" d="M7.57237 6.97457C7.57233 6.97419 7.57229 6.97379 6.42769 7.08505C5.28308 7.1963 5.28304 7.19586 5.28299 7.1954L5.2829 7.19438L5.28267 7.19196L5.28208 7.18561C5.28163 7.18072 5.28108 7.1745 5.28044 7.167C5.27916 7.15201 5.27755 7.13188 5.27575 7.10696C5.27215 7.05713 5.26782 6.98796 5.26408 6.90217C5.25661 6.73095 5.2514 6.49144 5.25935 6.20584C5.27506 5.64173 5.34294 4.86392 5.56469 4.06609C5.78469 3.27455 6.1777 2.38581 6.89744 1.68583C7.64552 0.958275 8.66757 0.513046 9.96868 0.513046C11.2799 0.513046 12.6993 0.965076 13.8497 2.12635C14.9926 3.28013 15.7704 5.03209 16.0168 7.45572L13.7286 7.68837C13.519 5.627 12.8887 4.42446 12.2157 3.74499C11.55 3.07302 10.7454 2.81305 9.96868 2.81305C9.2358 2.81305 8.79823 3.04557 8.501 3.33464C8.17542 3.65128 7.93743 4.11804 7.78068 4.68201C7.62568 5.23967 7.57106 5.81736 7.55846 6.26987C7.55225 6.49259 7.55643 6.67668 7.56189 6.80197C7.56462 6.86443 7.56764 6.91175 7.56977 6.94135C7.57084 6.95614 7.57169 6.96646 7.57216 6.97198L7.57252 6.97616L7.57237 6.97457Z" fill="white"/>
</g>
<defs>
<clipPath id="clip0">
<rect width="20" height="20" fill="white" transform="translate(0.0107422)"/>
</clipPath>
</defs>
</svg>
