<svg width="10" height="10" viewBox="0 0 10 10" fill="none" xmlns="http://www.w3.org/2000/svg">
<path d="M8.63097 0C8.25206 0.00339981 7.9287 0.139392 7.6609 0.407977L5.00451 3.06436L2.34813 0.407977C2.08033 0.139392 1.75697 0.00339981 1.37805 0C0.999142 0.00339981 0.675782 0.139392 0.407977 0.407977C0.139392 0.675782 0.00339981 0.999142 0 1.37805C0.00339981 1.75697 0.139392 2.08033 0.407977 2.34813L3.06436 5.00451L0.407977 7.6609C0.139392 7.9287 0.00339981 8.25206 0 8.63097C0.00339981 9.00989 0.139392 9.33324 0.407977 9.60105C0.675782 9.86963 0.999142 10.0026 1.37805 9.99996C1.75697 10.0026 2.08033 9.86963 2.34813 9.60105L5.00451 6.94467L7.6609 9.60105C7.9287 9.86963 8.25206 10.0026 8.63097 9.99996C9.00989 10.0026 9.33324 9.86963 9.60105 9.60105C9.86963 9.33324 10.0026 9.00989 9.99996 8.63097C10.0026 8.25206 9.86963 7.9287 9.60105 7.6609L6.94467 5.00451L9.60105 2.34813C9.86963 2.08033 10.0026 1.75697 9.99996 1.37805C10.0026 0.999142 9.86963 0.675782 9.60105 0.407977C9.33324 0.139392 9.00989 0.00339981 8.63097 0Z" fill="#4F4F4F"/>
</svg>
