<svg width="20" height="20" viewBox="0 0 20 20" fill="none" xmlns="http://www.w3.org/2000/svg">
<g clip-path="url(#clip0)">
<path d="M15.5471 18.942C16.5887 18.942 17.4331 18.0976 17.4331 17.056C17.4331 16.0144 16.5887 15.17 15.5471 15.17C14.5055 15.17 13.6611 16.0144 13.6611 17.056C13.6611 18.0976 14.5055 18.942 15.5471 18.942Z" fill="#EC422B"/>
<path d="M4.05995 19.042C5.10156 19.042 5.94595 18.1976 5.94595 17.156C5.94595 16.1144 5.10156 15.27 4.05995 15.27C3.01834 15.27 2.17395 16.1144 2.17395 17.156C2.17395 18.1976 3.01834 19.042 4.05995 19.042Z" fill="#EC422B"/>
<path d="M19.5761 14.706H0.215065L0.117065 1.706L14.5621 1.035L14.7211 6.493C15.0821 6.479 15.5051 6.465 15.9571 6.455C16.6681 6.439 17.3271 6.436 17.9171 6.446C18.5201 6.457 19.0051 6.65 19.3581 7.022C19.9341 7.626 19.9091 8.429 19.8911 9.016C19.8881 9.111 19.8851 9.206 19.8851 9.298C19.8891 10.791 19.6671 13.576 19.6581 13.694L19.5761 14.706ZM2.39907 12.506H17.5391C17.6041 11.56 17.6881 10.168 17.6851 9.302C17.6851 9.185 17.6881 9.066 17.6921 8.947C17.6951 8.857 17.6981 8.744 17.6981 8.643C17.1841 8.637 16.6161 8.641 16.0071 8.655C14.8591 8.681 13.9031 8.732 13.7231 8.742L13.6551 8.744H12.5871L12.4291 3.337L2.33307 3.806L2.39907 12.506Z" fill="#EC422B"/>
<path d="M14.6473 2.16188L12.3478 2.21225L12.5973 13.603L14.8968 13.5526L14.6473 2.16188Z" fill="#EC422B"/>
</g>
<defs>
<clipPath id="clip0">
<rect width="20" height="20" fill="white"/>
</clipPath>
</defs>
</svg>
