<svg width="20" height="21" viewBox="0 0 20 21" fill="none" xmlns="http://www.w3.org/2000/svg">
<path fill-rule="evenodd" clip-rule="evenodd" d="M11.79 13.0833C13.0148 9.33068 14.369 4.78534 14.9577 1.44751L17.2227 1.84701C16.6034 5.35819 15.2036 10.0374 13.9764 13.797C13.3599 15.6859 12.7815 17.3589 12.3573 18.5598C12.1451 19.1605 11.9713 19.6434 11.8504 19.9767C11.7899 20.1433 11.7426 20.2726 11.7104 20.3605C11.6943 20.4044 11.6819 20.438 11.6735 20.4608L11.6606 20.4958C11.6605 20.4959 11.6605 20.496 10.5822 20.0963C9.5039 19.6966 9.50389 19.6966 9.50391 19.6965L9.50401 19.6962L9.51563 19.6648C9.52358 19.6432 9.5355 19.6109 9.55117 19.5682C9.5825 19.4828 9.62881 19.3561 9.68828 19.1922C9.80723 18.8644 9.97881 18.3876 10.1886 17.7937C10.6084 16.6056 11.1805 14.9506 11.79 13.0833Z" fill="#ED4931"/>
<path fill-rule="evenodd" clip-rule="evenodd" d="M2.08789 16.7228C6.22796 10.9514 8.98697 4.33488 10.4044 0.634766L12.5522 1.45756C11.1157 5.20744 8.27271 12.0469 3.95678 18.0635L2.08789 16.7228Z" fill="#ED4931"/>
<path fill-rule="evenodd" clip-rule="evenodd" d="M19.4254 10.3334L2.7334 6.00442L3.31079 3.77808L20.0028 8.10708L19.4254 10.3334Z" fill="#ED4931"/>
<path fill-rule="evenodd" clip-rule="evenodd" d="M18.9621 17.2917L0.184082 11.9777L0.810366 9.76465L19.5884 15.0786L18.9621 17.2917Z" fill="#ED4931"/>
</svg>
