<svg width="20" height="20" viewBox="0 0 20 20" fill="none" xmlns="http://www.w3.org/2000/svg">
<g clip-path="url(#clip0)">
<path d="M19.7873 8.1276L10.307 1.18631C10.1242 1.05248 9.87584 1.05248 9.69311 1.18631L0.212718 8.1276C-0.0188446 8.29717 -0.0691571 8.62232 0.100413 8.85389C0.269984 9.08545 0.595179 9.13568 0.826702 8.96619L10 2.24963L19.1733 8.96615C19.2658 9.03393 19.3733 9.06654 19.4799 9.06654C19.6399 9.06654 19.7978 8.99291 19.8996 8.85385C20.0692 8.62232 20.0189 8.29717 19.7873 8.1276Z" fill="#4F4F4F"/>
<path d="M17.2752 9.0835C16.9882 9.0835 16.7555 9.31615 16.7555 9.60314V17.8746H12.5984V13.3595C12.5984 11.9267 11.4327 10.7611 9.99996 10.7611C8.56723 10.7611 7.40152 11.9268 7.40152 13.3595V17.8746H3.24437V9.60318C3.24437 9.31619 3.01168 9.08354 2.72473 9.08354C2.43777 9.08354 2.20508 9.31619 2.20508 9.60318V18.3943C2.20508 18.6813 2.43777 18.914 2.72473 18.914H7.92117C8.19445 18.914 8.41809 18.7028 8.43879 18.4348C8.44004 18.4226 8.44082 18.4094 8.44082 18.3943V13.3596C8.44082 12.4998 9.14023 11.8004 9.99996 11.8004C10.8597 11.8004 11.5591 12.4999 11.5591 13.3596V18.3943C11.5591 18.4093 11.5599 18.4223 11.5611 18.4343C11.5816 18.7026 11.8053 18.914 12.0787 18.914H17.2752C17.5622 18.914 17.7948 18.6813 17.7948 18.3943V9.60318C17.7948 9.31615 17.5621 9.0835 17.2752 9.0835Z" fill="#4F4F4F"/>
</g>
<defs>
<clipPath id="clip0">
<rect width="20" height="20" fill="white"/>
</clipPath>
</defs>
</svg>
