<svg width="99" height="99" viewBox="0 0 99 99" fill="none" xmlns="http://www.w3.org/2000/svg">
<path fill-rule="evenodd" clip-rule="evenodd" d="M83.0663 16.8926C82.8934 14.108 80.489 11.9842 77.6963 12.16L16.9165 15.9803C14.1319 16.1531 12.0082 18.5574 12.1839 21.3501C12.1839 21.3502 12.1839 21.3501 12.1839 21.3501L16.0092 82.13C16.182 84.9146 18.5864 87.0384 21.3792 86.8627L82.1541 83.0427C82.1543 83.0427 82.154 83.0427 82.1541 83.0427C84.9476 82.8667 87.0644 80.4612 86.8869 77.6772L83.0663 16.8926ZM94.5439 16.1756C93.9745 7.04252 86.1001 0.108651 76.9745 0.682627C76.9746 0.68262 76.9744 0.682635 76.9745 0.682627L16.2039 4.50235C16.2031 4.5024 16.2023 4.50246 16.2014 4.50251C16.2008 4.50255 16.2002 4.50259 16.1995 4.50263C7.06631 5.07203 0.132387 12.9466 0.706577 22.0724L4.53128 82.8426C4.53134 82.8436 4.5314 82.8446 4.53146 82.8455C4.5315 82.8462 4.53154 82.8468 4.53158 82.8475C5.10121 91.9803 12.9755 98.914 22.1009 98.34C22.1008 98.34 22.1011 98.34 22.1009 98.34L82.8759 94.52C92.0006 93.9459 98.9434 86.0843 98.3639 76.9506C98.3639 76.9504 98.3639 76.9501 98.3638 76.9499C98.3638 76.9484 98.3637 76.9469 98.3636 76.9454L94.5442 16.18C94.5441 16.1786 94.544 16.1771 94.5439 16.1756Z" fill="#FFCAD4"/>
<path fill-rule="evenodd" clip-rule="evenodd" d="M49.4952 40.6455C44.1657 40.6455 39.8452 44.966 39.8452 50.2955C39.8452 55.6251 44.1657 59.9455 49.4952 59.9455C54.8248 59.9455 59.1452 55.6251 59.1452 50.2955C59.1452 44.966 54.8248 40.6455 49.4952 40.6455ZM28.3452 50.2955C28.3452 38.6147 37.8144 29.1455 49.4952 29.1455C61.1761 29.1455 70.6452 38.6147 70.6452 50.2955C70.6452 61.9764 61.1761 71.4455 49.4952 71.4455C37.8144 71.4455 28.3452 61.9764 28.3452 50.2955Z" fill="#FFCAD4"/>
<path d="M72.0503 28.1401C74.6156 28.1401 76.6953 26.0604 76.6953 23.4951C76.6953 20.9297 74.6156 18.8501 72.0503 18.8501C69.4849 18.8501 67.4053 20.9297 67.4053 23.4951C67.4053 26.0604 69.4849 28.1401 72.0503 28.1401Z" fill="#FFCAD4"/>
</svg>
