<svg width="21" height="21" viewBox="0 0 21 21" fill="none" xmlns="http://www.w3.org/2000/svg">
<g clip-path="url(#clip0)">
<path d="M14.5913 0.690918H5.41893C2.43371 0.690918 0.00512695 3.1195 0.00512695 6.10473V15.2772C0.00512695 18.2623 2.43371 20.6909 5.41893 20.6909H14.5914C17.5765 20.6909 20.0051 18.2623 20.0051 15.2772V6.10473C20.0051 3.1195 17.5765 0.690918 14.5913 0.690918V0.690918ZM10.0051 16.1595C6.98967 16.1595 4.53652 13.7063 4.53652 10.6909C4.53652 7.67546 6.98967 5.22231 10.0051 5.22231C13.0205 5.22231 15.4737 7.67546 15.4737 10.6909C15.4737 13.7063 13.0205 16.1595 10.0051 16.1595ZM15.6045 6.51198C14.7134 6.51198 13.9886 5.78719 13.9886 4.89608C13.9886 4.00497 14.7134 3.28002 15.6045 3.28002C16.4956 3.28002 17.2205 4.00497 17.2205 4.89608C17.2205 5.78719 16.4956 6.51198 15.6045 6.51198Z" fill="white"/>
<path d="M10.0051 6.39478C7.63632 6.39478 5.70898 8.32196 5.70898 10.6909C5.70898 13.0596 7.63632 14.987 10.0051 14.987C12.374 14.987 14.3012 13.0596 14.3012 10.6909C14.3012 8.32196 12.374 6.39478 10.0051 6.39478Z" fill="white"/>
<path d="M15.6046 4.45264C15.3601 4.45264 15.1611 4.65161 15.1611 4.89606C15.1611 5.1405 15.3601 5.33948 15.6046 5.33948C15.8492 5.33948 16.0481 5.14065 16.0481 4.89606C16.0481 4.65146 15.8492 4.45264 15.6046 4.45264Z" fill="white"/>
</g>
<defs>
<clipPath id="clip0">
<rect width="20" height="20" fill="white" transform="translate(0.00512695 0.690918)"/>
</clipPath>
</defs>
</svg>
