<svg width="20" height="21" viewBox="0 0 20 21" fill="none" xmlns="http://www.w3.org/2000/svg">
<path d="M16.5386 5.15554C16.5386 4.49084 15.9999 3.95414 15.3377 3.95414C14.6754 3.95414 14.1362 4.49084 14.1362 5.15554C14.1362 5.81779 14.6754 6.35449 15.3377 6.35449C15.9999 6.35449 16.5386 5.81779 16.5386 5.15554Z" fill="url(#paint0_linear)"/>
<path d="M18.1388 14.5335C18.0943 15.5086 17.9312 16.0384 17.7958 16.3902C17.614 16.8568 17.397 17.1904 17.0451 17.5403C16.6972 17.8902 16.3636 18.1066 15.8971 18.2865C15.5452 18.4239 15.0134 18.5875 14.0384 18.634C12.9843 18.6804 12.6719 18.6903 9.99876 18.6903C7.32809 18.6903 7.01325 18.6804 5.95911 18.634C4.98407 18.5875 4.45478 18.4239 4.10288 18.2865C3.63389 18.1066 3.30279 17.8902 2.95289 17.5403C2.60051 17.1904 2.38356 16.8568 2.20417 16.3902C2.06873 16.0384 1.9032 15.5086 1.86116 14.5335C1.80979 13.4794 1.80038 13.1621 1.80038 10.4944C1.80038 7.82125 1.80979 7.50642 1.86116 6.45228C1.9032 5.47723 2.06873 4.94794 2.20417 4.59308C2.38356 4.12705 2.60051 3.79543 2.95289 3.44553C3.30279 3.09616 3.63389 2.87918 4.10288 2.69733C4.45478 2.55945 4.98407 2.39833 5.95911 2.35188C7.01325 2.3054 7.32809 2.29354 9.99876 2.29354C12.6719 2.29354 12.9843 2.3054 14.0384 2.35188C15.0134 2.39833 15.5452 2.55945 15.8971 2.69733C16.3636 2.87918 16.6972 3.09616 17.0451 3.44553C17.397 3.79543 17.614 4.12705 17.7958 4.59308C17.9312 4.94794 18.0943 5.47723 18.1388 6.45228C18.1877 7.50642 18.1996 7.82125 18.1996 10.4944C18.1996 13.1621 18.1877 13.4794 18.1388 14.5335ZM19.9392 6.37025C19.8903 5.30473 19.7222 4.57677 19.4727 3.94273C19.2187 3.28493 18.8781 2.72747 18.3207 2.17C17.7657 1.61502 17.2082 1.2745 16.5504 1.01753C15.9139 0.770414 15.1884 0.600395 14.1224 0.553953C13.0564 0.502542 12.7159 0.493164 9.99876 0.493164C7.28409 0.493164 6.94112 0.502542 5.87512 0.553953C4.81157 0.600395 4.08657 0.770414 3.44708 1.01753C2.79176 1.2745 2.2343 1.61502 1.67932 2.17C1.12186 2.72747 0.781338 3.28493 0.524846 3.94273C0.277731 4.57677 0.109714 5.30473 0.0583038 6.37025C0.0118609 7.43625 0 7.77726 0 10.4944C0 13.2091 0.0118609 13.5496 0.0583038 14.6156C0.109714 15.6791 0.277731 16.4066 0.524846 17.0436C0.781338 17.6989 1.12186 18.2589 1.67932 18.8138C2.2343 19.3688 2.79176 19.7118 3.44708 19.9683C4.08657 20.2154 4.81157 20.3835 5.87512 20.4324C6.94112 20.4813 7.28409 20.4932 9.99876 20.4932C12.7159 20.4932 13.0564 20.4813 14.1224 20.4324C15.1884 20.3835 15.9139 20.2154 16.5504 19.9683C17.2082 19.7118 17.7657 19.3688 18.3207 18.8138C18.8781 18.2589 19.2187 17.6989 19.4727 17.0436C19.7222 16.4066 19.8903 15.6791 19.9392 14.6156C19.9881 13.5496 20 13.2091 20 10.4944C20 7.77726 19.9881 7.43625 19.9392 6.37025Z" fill="url(#paint1_linear)"/>
<path d="M9.99853 13.8248C8.1586 13.8248 6.66561 12.3343 6.66561 10.4944C6.66561 8.65146 8.1586 7.15899 9.99853 7.15899C11.839 7.15899 13.3339 8.65146 13.3339 10.4944C13.3339 12.3343 11.839 13.8248 9.99853 13.8248ZM9.99853 5.35613C7.16229 5.35613 4.86523 7.65811 4.86523 10.4944C4.86523 13.3281 7.16229 15.6277 9.99853 15.6277C12.8348 15.6277 15.1343 13.3281 15.1343 10.4944C15.1343 7.65811 12.8348 5.35613 9.99853 5.35613Z" fill="url(#paint2_linear)"/>
<defs>
<linearGradient id="paint0_linear" x1="0.1804" y1="20.2864" x2="18.3342" y2="2.13268" gradientUnits="userSpaceOnUse">
<stop stop-color="#FFD521"/>
<stop offset="0.05" stop-color="#FFD521"/>
<stop offset="0.501119" stop-color="#F50000"/>
<stop offset="0.95" stop-color="#B900B4"/>
<stop offset="0.950079" stop-color="#B900B4"/>
<stop offset="1" stop-color="#B900B4"/>
</linearGradient>
<linearGradient id="paint1_linear" x1="0.180397" y1="20.3113" x2="18.3491" y2="2.14258" gradientUnits="userSpaceOnUse">
<stop stop-color="#FFD521"/>
<stop offset="0.05" stop-color="#FFD521"/>
<stop offset="0.501119" stop-color="#F50000"/>
<stop offset="0.95" stop-color="#B900B4"/>
<stop offset="0.950079" stop-color="#B900B4"/>
<stop offset="1" stop-color="#B900B4"/>
</linearGradient>
<linearGradient id="paint2_linear" x1="0.18488" y1="20.3118" x2="18.3492" y2="2.14741" gradientUnits="userSpaceOnUse">
<stop stop-color="#FFD521"/>
<stop offset="0.05" stop-color="#FFD521"/>
<stop offset="0.501119" stop-color="#F50000"/>
<stop offset="0.95" stop-color="#B900B4"/>
<stop offset="0.950079" stop-color="#B900B4"/>
<stop offset="1" stop-color="#B900B4"/>
</linearGradient>
</defs>
</svg>
