<svg width="20" height="20" viewBox="0 0 20 20" fill="none" xmlns="http://www.w3.org/2000/svg">
<path fill-rule="evenodd" clip-rule="evenodd" d="M16.5811 3.53525C16.5466 2.97833 16.0657 2.55359 15.5071 2.58873L3.35117 3.35279C2.79426 3.38736 2.36951 3.86822 2.40465 4.42676C2.40465 4.42677 2.40465 4.42676 2.40465 4.42676L3.16971 16.5827C3.20428 17.1397 3.68515 17.5644 4.2437 17.5293L16.3987 16.7653C16.3987 16.7653 16.3987 16.7653 16.3987 16.7653C16.9574 16.7301 17.3807 16.249 17.3452 15.6922L16.5811 3.53525ZM18.8767 3.39186C18.7628 1.56524 17.1879 0.178468 15.3628 0.293264C15.3628 0.293262 15.3628 0.293265 15.3628 0.293264L3.20866 1.05721C3.20849 1.05722 3.20833 1.05723 3.20816 1.05724C3.20803 1.05725 3.2079 1.05726 3.20778 1.05726C1.38113 1.17114 -0.00565143 2.74606 0.109186 4.57121L0.874126 16.7253C0.874138 16.7255 0.874151 16.7256 0.874163 16.7258C0.874171 16.726 0.874179 16.7261 0.874188 16.7262C0.988114 18.5528 2.56297 19.9395 4.38806 19.8247C4.38803 19.8247 4.38808 19.8247 4.38806 19.8247L16.5431 19.0607C18.368 18.9459 19.7566 17.3736 19.6407 15.5469C19.6406 15.5468 19.6406 15.5468 19.6406 15.5467C19.6406 15.5464 19.6406 15.5461 19.6406 15.5458L18.8767 3.39274C18.8767 3.39245 18.8767 3.39215 18.8767 3.39186Z" fill="#ED4931"/>
<path fill-rule="evenodd" clip-rule="evenodd" d="M9.86672 8.28584C8.80081 8.28584 7.93672 9.14993 7.93672 10.2158C7.93672 11.2818 8.80081 12.1458 9.86672 12.1458C10.9326 12.1458 11.7967 11.2818 11.7967 10.2158C11.7967 9.14993 10.9326 8.28584 9.86672 8.28584ZM5.63672 10.2158C5.63672 7.87968 7.53056 5.98584 9.86672 5.98584C12.2029 5.98584 14.0967 7.87968 14.0967 10.2158C14.0967 12.552 12.2029 14.4458 9.86672 14.4458C7.53056 14.4458 5.63672 12.552 5.63672 10.2158Z" fill="#ED4931"/>
<path d="M14.3777 5.785C14.8908 5.785 15.3067 5.36907 15.3067 4.856C15.3067 4.34293 14.8908 3.927 14.3777 3.927C13.8647 3.927 13.4487 4.34293 13.4487 4.856C13.4487 5.36907 13.8647 5.785 14.3777 5.785Z" fill="#ED4931"/>
</svg>
