<svg width="95" height="106" viewBox="0 0 95 106" fill="none" xmlns="http://www.w3.org/2000/svg">
<circle cx="47.0051" cy="47.3918" r="47" fill="white"/>
<g clip-path="url(#clip0)">
<path d="M8.51759 102.791L5.64209 37.2398L13.0131 37.5728C36.2331 38.6213 76.0716 32.1503 76.4721 32.0828L83.0331 31.0073L84.2076 37.5503C84.4911 39.1298 91.1466 76.3583 90.3771 90.1598L90.0576 95.8703L84.3741 96.4958C55.9071 99.6143 15.8121 102.31 15.4116 102.337L8.51759 102.791ZM19.7631 51.1808L21.3966 88.3823C32.8986 87.5588 56.7216 85.7723 76.8231 83.7158C76.2561 73.4738 73.7946 57.0173 72.0306 46.4198C60.9156 48.0443 38.0106 51.0413 19.7631 51.1808Z" fill="#1034A6"/>
<path d="M52.8583 42.2462L39.4055 43.3694L43.2405 89.3016L56.6932 88.1784L52.8583 42.2462Z" fill="#1034A6"/>
<path d="M53.8056 45.3534L47.1186 39.3324C47.5461 38.8599 47.9646 38.3739 48.3786 37.8789L40.1841 39.7554C38.9511 34.3644 41.2056 23.4519 47.5416 18.6144C51.3846 15.6804 55.9971 15.4014 60.5196 17.8269C62.7606 19.0284 64.2321 21.0624 64.6686 23.5554C65.9916 31.1199 56.6901 42.1539 53.8056 45.3534ZM54.4581 25.2024C53.8281 25.2024 53.3961 25.4724 53.0046 25.7694C50.1786 27.9249 48.4911 34.2024 48.8781 37.2714C52.5906 32.7174 55.6101 27.6414 55.8126 25.5354C55.2681 25.2969 54.8271 25.2024 54.4581 25.2024ZM50.4621 42.3429L47.1141 39.3324L50.4621 42.3429Z" fill="#1034A6"/>
<path d="M36.7956 46.2038C31.2021 43.6748 22.7331 34.4948 22.7151 26.4128C22.7061 21.9533 25.1046 18.3983 29.4696 16.4048C31.6791 15.3968 34.1406 15.4103 36.3996 16.4543C43.6356 19.7933 48.1851 34.0673 49.4046 38.3603L40.7466 40.8218C40.5531 40.1423 40.3506 39.4763 40.1391 38.8148L36.7956 46.2038ZM32.8761 24.7523C31.7151 25.3733 31.7151 25.9313 31.7196 26.3903C31.7286 29.8148 36.5661 35.6018 39.7296 37.5773C37.4931 31.0928 34.5231 25.8053 32.8761 24.7523Z" fill="#1034A6"/>
</g>
<defs>
<clipPath id="clip0">
<rect width="90" height="90" fill="white" transform="translate(3.00513 15.1719)"/>
</clipPath>
</defs>
</svg>
