<svg width="20" height="20" viewBox="0 0 20 20" fill="none" xmlns="http://www.w3.org/2000/svg">
<path d="M19.8729 9.61103C19.6942 9.36661 15.4371 3.6264 9.9999 3.6264C4.56274 3.6264 0.305391 9.36661 0.126914 9.61079C-0.0423048 9.84267 -0.0423048 10.1572 0.126914 10.389C0.305391 10.6335 4.56274 16.3737 9.9999 16.3737C15.4371 16.3737 19.6942 10.6334 19.8729 10.3892C20.0423 10.1574 20.0423 9.84267 19.8729 9.61103ZM9.9999 15.055C5.99486 15.055 2.52606 11.2451 1.49922 9.99958C2.52473 8.75298 5.98626 4.94508 9.9999 4.94508C14.0048 4.94508 17.4733 8.75431 18.5006 10.0005C17.4751 11.247 14.0135 15.055 9.9999 15.055Z" fill="#828282"/>
<path d="M9.9997 6.04395C7.81837 6.04395 6.04364 7.81868 6.04364 10C6.04364 12.1813 7.81837 13.9561 9.9997 13.9561C12.181 13.9561 13.9558 12.1813 13.9558 10C13.9558 7.81868 12.181 6.04395 9.9997 6.04395ZM9.9997 12.6374C8.5454 12.6374 7.36235 11.4543 7.36235 10C7.36235 8.54575 8.54544 7.36266 9.9997 7.36266C11.454 7.36266 12.6371 8.54575 12.6371 10C12.6371 11.4543 11.454 12.6374 9.9997 12.6374Z" fill="#828282"/>
</svg>
