<svg width="20" height="20" viewBox="0 0 20 20" fill="none" xmlns="http://www.w3.org/2000/svg">
<g clip-path="url(#clip0)">
<path d="M15.8059 12.3892C15.3965 11.9628 14.9026 11.7349 14.3792 11.7349C13.86 11.7349 13.3619 11.9586 12.9355 12.385L11.6017 13.7146C11.4919 13.6555 11.3822 13.6006 11.2766 13.5458C11.1247 13.4698 10.9812 13.398 10.8587 13.3221C9.60929 12.5285 8.4738 11.4943 7.38475 10.1562C6.85711 9.48926 6.50253 8.92785 6.24504 8.358C6.59118 8.04141 6.91198 7.71216 7.22435 7.39558C7.34254 7.27739 7.46073 7.15497 7.57892 7.03678C8.46536 6.15034 8.46536 5.00219 7.57892 4.11575L6.42655 2.96338C6.2957 2.83253 6.16062 2.69745 6.03399 2.56238C5.78072 2.30067 5.51479 2.03051 5.24041 1.77725C4.83096 1.37202 4.34131 1.15674 3.82633 1.15674C3.31135 1.15674 2.81326 1.37202 2.39114 1.77725C2.38692 1.78147 2.38692 1.78147 2.3827 1.78569L0.947516 3.23354C0.407211 3.77384 0.0990677 4.43234 0.0315295 5.19637C-0.0697778 6.42894 0.29324 7.57709 0.571835 8.32845C1.25566 10.1731 2.27717 11.8826 3.801 13.7146C5.64986 15.9223 7.8744 17.6656 10.4155 18.894C11.3864 19.3541 12.6823 19.8986 14.1301 19.9914C14.2188 19.9957 14.3116 19.9999 14.3961 19.9999C15.3711 19.9999 16.19 19.6495 16.8317 18.9531C16.8359 18.9446 16.8443 18.9404 16.8485 18.9319C17.068 18.666 17.3213 18.4254 17.5872 18.1679C17.7687 17.9949 17.9545 17.8133 18.136 17.6234C18.5539 17.1886 18.7734 16.6821 18.7734 16.1629C18.7734 15.6395 18.5497 15.1371 18.1233 14.715L15.8059 12.3892ZM17.3171 16.834C17.3129 16.834 17.3129 16.8383 17.3171 16.834C17.1525 17.0113 16.9836 17.1717 16.8021 17.349C16.5277 17.6107 16.2491 17.8851 15.9874 18.1932C15.5611 18.6491 15.0588 18.8644 14.4003 18.8644C14.337 18.8644 14.2694 18.8644 14.2061 18.8602C12.9524 18.78 11.7874 18.2903 10.9136 17.8724C8.52446 16.7158 6.42655 15.0738 4.68322 12.9928C3.24381 11.2579 2.2814 9.65389 1.644 7.93166C1.25144 6.8806 1.10792 6.0617 1.17124 5.28923C1.21345 4.79536 1.4034 4.38591 1.75375 4.03555L3.19316 2.59615C3.4 2.40197 3.6195 2.29645 3.83477 2.29645C4.10071 2.29645 4.31598 2.45685 4.45106 2.59192C4.45528 2.59615 4.4595 2.60037 4.46372 2.60459C4.72121 2.84519 4.96604 3.09424 5.22353 3.36017C5.35438 3.49525 5.48946 3.63032 5.62454 3.76962L6.77691 4.92199C7.22435 5.36943 7.22435 5.7831 6.77691 6.23054C6.65449 6.35296 6.5363 6.47537 6.41389 6.59356C6.05931 6.95658 5.72162 7.29427 5.35438 7.62352C5.34594 7.63196 5.3375 7.63618 5.33328 7.64462C4.97026 8.00764 5.0378 8.36222 5.11378 8.60282C5.118 8.61549 5.12222 8.62815 5.12644 8.64081C5.42614 9.36685 5.84826 10.0507 6.48987 10.8654L6.49409 10.8696C7.65912 12.3048 8.88748 13.4234 10.2425 14.2803C10.4155 14.39 10.5928 14.4786 10.7617 14.5631C10.9136 14.639 11.0571 14.7108 11.1796 14.7868C11.1964 14.7952 11.2133 14.8079 11.2302 14.8163C11.3737 14.8881 11.5088 14.9219 11.6481 14.9219C11.9985 14.9219 12.218 14.7024 12.2897 14.6306L13.7333 13.187C13.8769 13.0435 14.1048 12.8704 14.3707 12.8704C14.6324 12.8704 14.8477 13.035 14.9786 13.1785C14.9828 13.1828 14.9828 13.1828 14.987 13.187L17.3129 15.5128C17.7476 15.9434 17.7476 16.3866 17.3171 16.834Z" fill="#4F4F4F"/>
<path d="M10.8079 4.7574C11.9139 4.94313 12.9185 5.46656 13.7205 6.26857C14.5225 7.07059 15.0417 8.07522 15.2317 9.18116C15.2781 9.45975 15.5187 9.65392 15.7931 9.65392C15.8268 9.65392 15.8564 9.6497 15.8902 9.64548C16.2025 9.59483 16.4093 9.29935 16.3587 8.98698C16.1308 7.64888 15.4976 6.42897 14.531 5.46233C13.5643 4.49569 12.3444 3.86252 11.0063 3.63458C10.694 3.58393 10.4027 3.79076 10.3478 4.09891C10.293 4.40705 10.4956 4.70675 10.8079 4.7574Z" fill="#4F4F4F"/>
<path d="M19.9766 8.82242C19.6009 6.61899 18.5625 4.61395 16.9669 3.01836C15.3714 1.42277 13.3663 0.384369 11.1629 0.00868772C10.8547 -0.0461871 10.5635 0.16487 10.5086 0.473013C10.4579 0.785377 10.6648 1.07664 10.9771 1.13151C12.9442 1.46498 14.7382 2.39785 16.1649 3.82037C17.5917 5.24712 18.5203 7.0411 18.8538 9.00815C18.9002 9.28675 19.1408 9.48092 19.4152 9.48092C19.449 9.48092 19.4785 9.4767 19.5123 9.47248C19.8204 9.42604 20.0315 9.13056 19.9766 8.82242Z" fill="#4F4F4F"/>
</g>
<defs>
<clipPath id="clip0">
<rect width="20" height="20" fill="white"/>
</clipPath>
</defs>
</svg>
