<svg width="231" height="233" viewBox="0 0 231 233" fill="none" xmlns="http://www.w3.org/2000/svg">
<path fill-rule="evenodd" clip-rule="evenodd" d="M98.8086 66.2285C103.048 62.5461 109.391 62.866 112.975 66.9431C134.706 91.6642 182.69 156.627 199.667 218.749C201.104 224.006 197.921 229.561 192.559 231.156C187.196 232.751 181.684 229.782 180.248 224.525C164.408 166.565 118.656 104.207 97.6212 80.2784C94.0372 76.2013 94.5688 69.911 98.8086 66.2285Z" fill="#EC422B"/>
<path fill-rule="evenodd" clip-rule="evenodd" d="M45.8863 0.924547L56.4795 4.70963C69.6825 9.42726 105.304 26.4118 127.505 42.7296C158.361 65.4096 174.694 87.0143 189.865 113.906C201.676 134.843 201.963 152.167 194.819 166.189C188.105 179.365 175.821 187.408 167.853 192.187L165.683 193.488L163.188 193.685C162.959 193.703 162.525 193.796 161.915 193.928C156.966 195 140.409 198.586 127.422 184.462C113.782 169.627 95.6412 144.25 75.6315 115.957C67.0208 103.782 57.1858 84.8028 50.2982 65.8933C46.8418 56.4039 44.034 46.6796 42.5263 37.629C41.0507 28.7712 40.6609 19.6614 42.8444 11.8319L45.8863 0.924547ZM61.8699 28.8121C62.0245 30.3091 62.2393 31.897 62.5187 33.5743C63.7818 41.1563 66.218 49.7317 69.4176 58.5159C75.8419 76.1536 84.9672 93.6176 92.4763 104.235C112.766 132.924 130.132 157.144 142.781 170.9C147.697 176.247 151.287 175.658 156.761 174.76C157.718 174.603 158.733 174.437 159.822 174.291C166.774 169.954 173.313 164.86 176.767 158.081C180.116 151.508 181.631 141.087 172.014 124.04C157.837 98.91 143.124 79.492 114.838 58.7011C99.722 47.5908 77.2948 35.8726 61.8699 28.8121Z" fill="#EC422B"/>
</svg>
