<svg width="36" height="36" viewBox="0 0 36 36" fill="none" xmlns="http://www.w3.org/2000/svg">
<path fill-rule="evenodd" clip-rule="evenodd" d="M13.1687 5.46661C8.57494 5.46661 4.85094 9.19062 4.85094 13.7844C4.85094 18.3782 8.57494 22.1022 13.1687 22.1022C17.7625 22.1022 21.4865 18.3782 21.4865 13.7844C21.4865 9.19062 17.7625 5.46661 13.1687 5.46661ZM0.710938 13.7844C0.710938 6.90416 6.28849 1.32661 13.1687 1.32661C20.049 1.32661 25.6265 6.90416 25.6265 13.7844C25.6265 20.6647 20.049 26.2422 13.1687 26.2422C6.28849 26.2422 0.710938 20.6647 0.710938 13.7844Z" fill="#EC422B"/>
<path fill-rule="evenodd" clip-rule="evenodd" d="M29.7933 26.3045C31.1648 27.2051 32.7598 28.0033 35.3651 29.1083L33.7485 32.9197C31.0618 31.7801 29.2008 30.8683 27.5208 29.7651C25.8414 28.6622 24.4122 27.4129 22.5605 25.6891L25.3814 22.6589C27.2035 24.3551 28.4213 25.4035 29.7933 26.3045Z" fill="#EC422B"/>
</svg>
