<svg width="21" height="20" viewBox="0 0 21 20" fill="none" xmlns="http://www.w3.org/2000/svg">
<g clip-path="url(#clip0)">
<path fill-rule="evenodd" clip-rule="evenodd" d="M7.32676 3.03705C4.77465 3.03705 2.70576 5.10594 2.70576 7.65805C2.70576 10.2102 4.77465 12.279 7.32676 12.279C9.87887 12.279 11.9478 10.2102 11.9478 7.65805C11.9478 5.10594 9.87887 3.03705 7.32676 3.03705ZM0.405762 7.65805C0.405762 3.83568 3.5044 0.737045 7.32676 0.737045C11.1491 0.737045 14.2478 3.83568 14.2478 7.65805C14.2478 11.4804 11.1491 14.579 7.32676 14.579C3.5044 14.579 0.405762 11.4804 0.405762 7.65805Z" fill="white"/>
<path fill-rule="evenodd" clip-rule="evenodd" d="M16.5636 14.6137C17.3255 15.114 18.2116 15.5574 19.659 16.1713L18.7609 18.2888C17.2683 17.6557 16.2344 17.1491 15.3011 16.5362C14.3681 15.9235 13.5741 15.2294 12.5454 14.2718L14.1126 12.5883C15.1248 13.5307 15.8014 14.1131 16.5636 14.6137Z" fill="white"/>
</g>
<defs>
<clipPath id="clip0">
<rect width="20" height="20" fill="white" transform="translate(0.0107422)"/>
</clipPath>
</defs>
</svg>
