<svg width="32" height="32" viewBox="0 0 32 32" fill="none" xmlns="http://www.w3.org/2000/svg">
<path fill-rule="evenodd" clip-rule="evenodd" d="M11.7045 4.8592C7.62109 4.8592 4.31086 8.16943 4.31086 12.2528C4.31086 16.3362 7.62109 19.6464 11.7045 19.6464C15.7878 19.6464 19.0981 16.3362 19.0981 12.2528C19.0981 8.16943 15.7878 4.8592 11.7045 4.8592ZM0.630859 12.2528C0.630859 6.13702 5.58868 1.1792 11.7045 1.1792C17.8202 1.1792 22.7781 6.13702 22.7781 12.2528C22.7781 18.3686 17.8202 23.3264 11.7045 23.3264C5.58868 23.3264 0.630859 18.3686 0.630859 12.2528Z" fill="white"/>
<path fill-rule="evenodd" clip-rule="evenodd" d="M26.4819 23.3818C27.7009 24.1823 29.1187 24.8918 31.4345 25.8741L29.9976 29.2619C27.6094 28.249 25.9552 27.4385 24.4619 26.4578C22.969 25.4775 21.6987 24.367 20.0527 22.8348L22.5602 20.1412C24.1798 21.649 25.2623 22.5809 26.4819 23.3818Z" fill="white"/>
</svg>
