<svg width="136" height="96" viewBox="0 0 136 96" fill="none" xmlns="http://www.w3.org/2000/svg">
<path fill-rule="evenodd" clip-rule="evenodd" d="M100.271 25.4415L111.749 47.0122L133.603 49.36L117.257 67.3994L126.138 93.3117L97.8672 80.8019L70.1526 91.4834L77.6294 67.2771L65.0859 46.0374L87.4291 46.108L100.271 25.4415ZM99.7075 42.2541L92.0871 54.5178L79.821 54.479L86.7466 66.2061L83.2807 77.4267L98.0886 71.7197L111.968 77.8614L107.709 65.4341L116.307 55.9452L106.428 54.8839L99.7075 42.2541Z" fill="#ED4931"/>
<path fill-rule="evenodd" clip-rule="evenodd" d="M21.9537 1.43814L28.7149 14.1442L41.5879 15.5271L31.9594 26.1531L37.1906 41.4165L20.538 34.0477L4.21297 40.3395L8.61714 26.081L1.22852 13.57L14.3895 13.6116L21.9537 1.43814ZM21.622 11.3415L17.1333 18.5653L9.90805 18.5424L13.9875 25.4502L11.946 32.0596L20.6684 28.6979L28.8441 32.3156L26.3353 24.9954L31.3999 19.4061L25.5807 18.7809L21.622 11.3415Z" fill="#ED4931"/>
</svg>
