<svg width="136" height="92" viewBox="0 0 136 92" fill="none" xmlns="http://www.w3.org/2000/svg">
<path fill-rule="evenodd" clip-rule="evenodd" d="M37.2706 2.4415L48.7489 24.0122L70.603 26.36L54.257 44.3994L63.1378 70.3117L34.8672 57.8019L7.15257 68.4834L14.6294 44.2771L2.08594 23.0374L24.4291 23.1081L37.2706 2.4415ZM36.7075 19.2541L29.0871 31.5178L16.821 31.479L23.7466 43.2061L20.2807 54.4267L35.0886 48.7197L48.9682 54.8614L44.709 42.4341L53.3071 32.9452L43.4281 31.8839L36.7075 19.2541Z" fill="#ED4931"/>
<path fill-rule="evenodd" clip-rule="evenodd" d="M114.954 50.4381L121.715 63.1442L134.588 64.5271L124.959 75.1531L130.191 90.4165L113.538 83.0477L97.213 89.3395L101.617 75.081L94.2285 62.57L107.39 62.6116L114.954 50.4381ZM114.622 60.3415L110.133 67.5653L102.908 67.5424L106.988 74.4502L104.946 81.0596L113.668 77.6979L121.844 81.3156L119.335 73.9954L124.4 68.4061L118.581 67.7809L114.622 60.3415Z" fill="#ED4931"/>
</svg>
