<svg width="21" height="20" viewBox="0 0 21 20" fill="none" xmlns="http://www.w3.org/2000/svg">
<g clip-path="url(#clip0)">
<path d="M10.1021 9.91305C7.42507 9.91305 5.24707 7.73505 5.24707 5.05806C5.24707 2.38106 7.42607 0.204056 10.1021 0.204056C12.7781 0.204056 14.9571 2.38206 14.9571 5.05905C14.9571 7.73605 12.7791 9.91305 10.1021 9.91305ZM10.1021 2.50406C8.69307 2.50406 7.54707 3.65006 7.54707 5.05905C7.54707 6.46805 8.69307 7.61405 10.1021 7.61405C11.5111 7.61405 12.6571 6.46805 12.6571 5.05905C12.6571 3.65006 11.5111 2.50406 10.1021 2.50406Z" fill="white"/>
<path d="M17.4909 19.9901L2.14893 19.9221V18.7771C2.14893 18.6451 2.17393 15.5201 4.37993 13.3231C5.75393 11.9541 7.62893 11.2601 9.95293 11.2601C9.96893 11.2601 9.98393 11.2601 9.99993 11.2601C13.7449 11.2751 15.5879 13.3631 16.4739 15.1111C17.3919 16.9231 17.4539 18.7241 17.4559 18.8001L17.4909 19.9901ZM4.60593 17.6331L14.9719 17.6791C14.8589 17.2061 14.6789 16.6441 14.3909 16.0911C13.5079 14.3961 12.0679 13.5681 9.99093 13.5601C9.97893 13.5601 9.96593 13.5601 9.95393 13.5601C7.68893 13.5601 6.08593 14.3981 5.18893 16.0531C4.89093 16.6041 4.71293 17.1651 4.60593 17.6331Z" fill="white"/>
</g>
<defs>
<clipPath id="clip0">
<rect width="20" height="20" fill="white" transform="translate(0.0107422)"/>
</clipPath>
</defs>
</svg>
