<svg width="21" height="20" viewBox="0 0 21 20" fill="none" xmlns="http://www.w3.org/2000/svg">
<g clip-path="url(#clip0)">
<path fill-rule="evenodd" clip-rule="evenodd" d="M10.3039 4.14606C9.20529 2.98966 7.70348 2.26033 6.19121 2.09614C3.89966 1.84733 1.51875 2.899 0.446705 5.66437C-0.165505 7.2439 0.0421132 8.84926 0.624195 10.3012C1.20172 11.7417 2.17439 13.1059 3.22702 14.3048C5.33324 16.7037 7.94893 18.6496 9.03274 19.4501L9.03377 19.4509C9.29531 19.6436 9.68692 19.8493 10.1809 19.855C10.7033 19.861 11.1639 19.6418 11.53 19.3022C12.1327 18.7432 12.7888 18.1823 13.4816 17.5901C13.837 17.2864 14.2021 16.9743 14.5745 16.65C15.6466 15.7166 16.7456 14.7098 17.6633 13.6386C19.4844 11.513 20.8219 8.83916 19.4173 5.80848C18.3781 3.56633 16.0758 2.25798 13.6502 2.56715C12.4628 2.71849 11.3157 3.24304 10.3039 4.14606ZM8.80857 5.9244C8.09179 5.06883 7.02499 4.50018 5.94295 4.3827C4.57577 4.23426 3.24819 4.80107 2.59123 6.49565M8.80857 5.9244C8.3586 6.62652 7.96209 7.43815 7.63364 8.36012L9.80026 9.13197C10.8676 6.13607 12.5742 5.02289 13.941 4.84869C15.3421 4.67011 16.6998 5.41478 17.3306 6.77561C18.158 8.56093 17.5385 10.2491 15.9166 12.1422C15.1128 13.0804 14.1188 13.9972 13.0642 14.9154C12.7286 15.2076 12.3826 15.5034 12.0358 15.7999C11.3954 16.3475 10.7526 16.8971 10.1688 17.4294C8.99983 16.5606 6.7559 14.838 4.95538 12.7873C3.99126 11.6892 3.20156 10.5491 2.75902 9.4453C2.32105 8.35286 2.25097 7.37359 2.59123 6.49565" fill="white"/>
</g>
<defs>
<clipPath id="clip0">
<rect width="20" height="20" fill="white" transform="translate(0.0107422)"/>
</clipPath>
</defs>
</svg>
