<svg width="20" height="20" viewBox="0 0 20 20" fill="none" xmlns="http://www.w3.org/2000/svg">
<path fill-rule="evenodd" clip-rule="evenodd" d="M10.2922 4.146C9.19357 2.9896 7.69176 2.26027 6.17949 2.09608C3.88794 1.84727 1.50703 2.89894 0.434986 5.66431C-0.177224 7.24384 0.0303945 8.8492 0.612476 10.3011C1.19 11.7416 2.16267 13.1058 3.2153 14.3047C5.32152 16.7036 7.93721 18.6496 9.02102 19.45L9.02205 19.4508C9.28359 19.6435 9.6752 19.8492 10.1692 19.8549C10.6916 19.8609 11.1521 19.6417 11.5182 19.3022C12.121 18.7431 12.7771 18.1823 13.4699 17.5901C13.8253 17.2863 14.1903 16.9742 14.5628 16.6499C15.6349 15.7165 16.7338 14.7097 17.6516 13.6386C19.4727 11.5129 20.8102 8.8391 19.4056 5.80842C18.3664 3.56627 16.0641 2.25792 13.6385 2.56709C12.451 2.71843 11.304 3.24298 10.2922 4.146Z" fill="#ED4931"/>
</svg>
