<svg width="50" height="50" viewBox="0 0 50 50" fill="none" xmlns="http://www.w3.org/2000/svg">
<g clip-path="url(#clip0)">
<path fill-rule="evenodd" clip-rule="evenodd" d="M28.595 13.8426C27.0713 11.0399 24.5476 8.85357 21.7111 7.75356C17.4129 6.08671 12.269 6.88593 8.76648 11.6733C6.76616 14.4078 6.33625 17.6166 6.70918 20.7228C7.07919 23.8046 8.25211 26.9435 9.66503 29.8045C12.4922 35.5291 16.538 40.6423 18.2174 42.7497L18.219 42.7517C18.6245 43.2594 19.2746 43.8595 20.2258 44.1262C21.232 44.4082 22.2352 44.2232 23.1182 43.7567C24.572 42.9887 26.1298 42.2449 27.7748 41.4595C28.6186 41.0566 29.4853 40.6427 30.3728 40.209C32.9271 38.9607 35.5712 37.5846 37.8986 35.9903C42.517 32.8265 46.485 28.3535 45.3403 21.7716C44.4933 16.9022 40.7229 13.1829 35.8769 12.5245C33.5046 12.2022 31.0171 12.6218 28.595 13.8426ZM24.7858 16.504C23.8439 14.4802 22.0774 12.8294 20.0478 12.0423C17.4835 11.0479 14.6254 11.4557 12.4791 14.3893M24.7858 16.504C23.553 17.6275 22.3669 18.9902 21.2552 20.6013L25.0412 23.2139C28.6538 17.9788 32.5271 16.7117 35.2576 17.0827C38.0567 17.4629 40.2942 19.6043 40.8084 22.5598C41.4827 26.437 39.412 29.3777 35.2989 32.1953C33.2605 33.5917 30.8655 34.8483 28.353 36.0761C27.5534 36.4669 26.7318 36.8594 25.9084 37.2527C24.3878 37.979 22.8615 38.708 21.4581 39.434C19.6496 37.1505 16.2063 32.6613 13.7895 27.7676C12.4954 25.1472 11.5599 22.5359 11.2764 20.1744C10.9958 17.8373 11.3673 15.9092 12.4791 14.3893" fill="#ED4931"/>
</g>
<defs>
<clipPath id="clip0">
<rect width="40" height="40" fill="white" transform="translate(10.8574 0.505089) rotate(15)"/>
</clipPath>
</defs>
</svg>
