<svg width="20" height="18" viewBox="0 0 20 18" fill="none" xmlns="http://www.w3.org/2000/svg">
<path fill-rule="evenodd" clip-rule="evenodd" d="M10.2931 2.146C9.19455 0.989597 7.69274 0.260273 6.18047 0.0960773C3.88891 -0.152729 1.50801 0.89894 0.435963 3.66431C-0.176247 5.24384 0.031371 6.8492 0.613453 8.30111C1.19097 9.74164 2.16365 11.1058 3.21628 12.3047C5.3225 14.7036 7.93818 16.6496 9.022 17.45L9.02303 17.4508C9.28457 17.6435 9.67618 17.8492 10.1701 17.8549C10.6925 17.8609 11.1531 17.6417 11.5192 17.3022C12.122 16.7431 12.7781 16.1823 13.4709 15.5901C13.8263 15.2863 14.1913 14.9742 14.5638 14.6499C15.6359 13.7165 16.7348 12.7097 17.6525 11.6386C19.4737 9.51289 20.8112 6.8391 19.4066 3.80842C18.3674 1.56627 16.0651 0.257917 13.6394 0.567087C12.452 0.718434 11.3049 1.24298 10.2931 2.146ZM8.79782 3.92434C8.08104 3.06876 7.01425 2.50012 5.9322 2.38264C4.56503 2.2342 3.23745 2.80101 2.58049 4.49558M8.79782 3.92434C8.34786 4.62645 7.95135 5.43809 7.6229 6.36005L9.78952 7.13191C10.8568 4.13601 12.5635 3.02283 13.9302 2.84863C15.3313 2.67005 16.6891 3.41472 17.3198 4.77555C18.1472 6.56087 17.5278 8.24907 15.9059 10.1422C15.1021 11.0803 14.108 11.9971 13.0535 12.9153C12.7179 13.2075 12.3718 13.5034 12.0251 13.7999C11.3847 14.3474 10.7419 14.8971 10.158 15.4293C8.98909 14.5605 6.74516 12.838 4.94464 10.7872C3.98052 9.68914 3.19082 8.54908 2.74828 7.44523C2.31031 6.3528 2.24023 5.37353 2.58049 4.49558" fill="#ED4931"/>
</svg>
