<svg width="200" height="200" viewBox="0 0 200 200" fill="none" xmlns="http://www.w3.org/2000/svg">
<g clip-path="url(#clip0)">
<path fill-rule="evenodd" clip-rule="evenodd" d="M29.5792 69.7H107.99V82.2813C120.536 77.2971 132.151 74.3003 141.59 72.4938C148.776 71.1183 154.751 70.4234 158.987 70.0718C161.106 69.8958 162.795 69.8054 163.988 69.759C164.585 69.7358 165.058 69.7235 165.399 69.7171C165.569 69.7139 165.707 69.7121 165.811 69.7111C165.863 69.7107 165.906 69.7104 165.941 69.7102L165.987 69.7101L166.013 69.71C166.017 69.71 166.02 69.71 166.02 81.21V69.71L176.175 69.71L192.202 198.198L178.035 196.967L178.033 196.967L177.766 196.944C177.581 196.928 177.302 196.905 176.932 196.874C176.194 196.813 175.097 196.724 173.676 196.614C170.833 196.392 166.698 196.085 161.554 195.741C151.262 195.053 136.953 194.224 120.894 193.655C88.5315 192.51 49.9344 192.463 22.6667 196.506L8.69629 198.577L9.49862 184.477C10.5924 165.254 15.1683 138.591 19.3414 117.19C21.4471 106.392 23.4856 96.7582 24.9977 89.8238C25.7541 86.3551 26.3796 83.5576 26.8171 81.6228C27.0359 80.6553 27.2078 79.9031 27.3255 79.3903C27.3844 79.1339 27.4297 78.9373 27.4607 78.8034L27.509 78.595C27.5092 78.594 27.5094 78.5932 38.71 81.2L27.5094 78.5932L29.5792 69.7ZM47.9128 92.7C47.7709 93.3451 47.623 94.0204 47.4696 94.724C45.9839 101.537 43.9817 111 41.9162 121.592C38.7446 137.857 35.5037 156.39 33.6957 172.036C61.1237 169.446 94.2618 169.698 121.708 170.67C138.063 171.249 152.619 172.093 163.087 172.792C164.053 172.857 164.984 172.92 165.878 172.982L155.964 93.5015C153.099 93.8519 149.712 94.3567 145.913 95.0838C133.307 97.4964 116.366 102.318 98.9611 111.912L88.3724 92.7H47.9128Z" fill="#ED4931"/>
<path fill-rule="evenodd" clip-rule="evenodd" d="M75.6167 69.7452C75.6164 69.7414 75.616 69.7375 64.1699 70.85C52.7239 71.9625 52.7235 71.9582 52.723 71.9536L52.722 71.9434L52.7197 71.9191L52.7138 71.8557C52.7094 71.8067 52.7039 71.7445 52.6975 71.6695C52.6847 71.5196 52.6685 71.3183 52.6505 71.0691C52.6146 70.5709 52.5713 69.8792 52.5339 69.0212C52.4592 67.309 52.407 64.9139 52.4866 62.058C52.6437 56.4169 53.3224 48.6387 55.5399 40.6604C57.74 32.7451 61.6701 23.8576 68.8674 16.8578C76.3483 9.58229 86.5688 5.13 99.5799 5.13C112.692 5.13 126.887 9.6503 138.39 21.2631C149.819 32.8008 157.597 50.3205 160.061 74.5568L137.179 76.8832C135.083 56.2695 128.781 44.2442 122.05 37.4495C115.393 30.7297 107.347 28.13 99.5799 28.13C92.2511 28.13 87.8754 30.4552 84.9031 33.3459C81.6473 36.5124 79.2674 41.1799 77.6999 46.8196C76.1499 52.3963 75.6037 58.1732 75.4777 62.6983C75.4156 64.9255 75.4574 66.7663 75.512 68.0193C75.5393 68.6439 75.5695 69.1171 75.5908 69.4131C75.6015 69.561 75.6099 69.6641 75.6146 69.7194L75.6183 69.7611L75.6167 69.7452Z" fill="#ED4931"/>
</g>
<defs>
<clipPath id="clip0">
<rect width="200" height="200" fill="white"/>
</clipPath>
</defs>
</svg>
