<svg width="200" height="200" viewBox="0 0 200 200" fill="none" xmlns="http://www.w3.org/2000/svg">
<g clip-path="url(#clip0)">
<path d="M64.9598 200.57L-0.910156 122.95L112.54 0.179993L194.56 76.06L64.9598 200.57ZM29.7998 123.6L66.6599 167.04L161.03 76.38L113.81 32.7L29.7998 123.6Z" fill="#ED4931"/>
<path d="M66.0498 199.26L55.7998 178.67L166.27 123.65L151.6 97.34L171.69 86.14L198.09 133.49L66.0498 199.26Z" fill="#ED4931"/>
<path d="M92.46 115.85C101.147 115.85 108.19 108.807 108.19 100.12C108.19 91.4325 101.147 84.39 92.46 84.39C83.7725 84.39 76.73 91.4325 76.73 100.12C76.73 108.807 83.7725 115.85 92.46 115.85Z" fill="#ED4931"/>
</g>
<defs>
<clipPath id="clip0">
<rect width="200" height="200" fill="white"/>
</clipPath>
</defs>
</svg>
