<svg width="200" height="200" viewBox="0 0 200 200" fill="none" xmlns="http://www.w3.org/2000/svg">
<g clip-path="url(#clip0)">
<path d="M100.91 99.13C74.1399 99.13 52.3599 77.35 52.3599 50.58C52.3599 23.81 74.1499 2.04001 100.91 2.04001C127.67 2.04001 149.46 23.82 149.46 50.59C149.46 77.36 127.68 99.13 100.91 99.13ZM100.91 25.04C86.8199 25.04 75.3599 36.5 75.3599 50.59C75.3599 64.68 86.8199 76.14 100.91 76.14C115 76.14 126.46 64.68 126.46 50.59C126.46 36.5 115 25.04 100.91 25.04Z" fill="#ED4931"/>
<path d="M174.8 199.9L21.3799 199.22V187.77C21.3799 186.45 21.6299 155.2 43.6899 133.23C57.4299 119.54 76.1799 112.6 99.4199 112.6C99.5799 112.6 99.7299 112.6 99.8899 112.6C137.34 112.75 155.77 133.63 164.63 151.11C173.81 169.23 174.43 187.24 174.45 188L174.8 199.9ZM45.9499 176.33L149.61 176.79C148.48 172.06 146.68 166.44 143.8 160.91C134.97 143.96 120.57 135.68 99.7999 135.6C99.6799 135.6 99.5499 135.6 99.4299 135.6C76.7799 135.6 60.7499 143.98 51.7799 160.53C48.7999 166.04 47.0199 171.65 45.9499 176.33Z" fill="#ED4931"/>
</g>
<defs>
<clipPath id="clip0">
<rect width="200" height="200" fill="white"/>
</clipPath>
</defs>
</svg>
