<svg width="200" height="200" viewBox="0 0 200 200" fill="none" xmlns="http://www.w3.org/2000/svg">
<g clip-path="url(#clip0)">
<path d="M155.47 189.42C165.886 189.42 174.33 180.976 174.33 170.56C174.33 160.144 165.886 151.7 155.47 151.7C145.054 151.7 136.61 160.144 136.61 170.56C136.61 180.976 145.054 189.42 155.47 189.42Z" fill="#ED4931"/>
<path d="M40.6 190.42C51.0161 190.42 59.46 181.976 59.46 171.56C59.46 161.144 51.0161 152.7 40.6 152.7C30.1839 152.7 21.74 161.144 21.74 171.56C21.74 181.976 30.1839 190.42 40.6 190.42Z" fill="#ED4931"/>
<path d="M195.76 147.06H2.14992L1.16992 17.06L145.62 10.35L147.21 64.93C150.82 64.79 155.05 64.65 159.57 64.55C166.68 64.39 173.27 64.36 179.17 64.46C185.2 64.57 190.05 66.5 193.58 70.22C199.34 76.26 199.09 84.29 198.91 90.16C198.88 91.11 198.85 92.06 198.85 92.98C198.89 107.91 196.67 135.76 196.58 136.94L195.76 147.06ZM23.9899 125.06H175.39C176.04 115.6 176.88 101.68 176.85 93.02C176.85 91.85 176.88 90.66 176.92 89.47C176.95 88.57 176.98 87.44 176.98 86.43C171.84 86.37 166.16 86.41 160.07 86.55C148.59 86.81 139.03 87.32 137.23 87.42L136.55 87.44H125.87L124.29 33.37L23.3299 38.06L23.9899 125.06Z" fill="#ED4931"/>
<path d="M146.472 21.6187L123.477 22.1224L125.972 136.03L148.967 135.526L146.472 21.6187Z" fill="#ED4931"/>
<path d="M29.5698 75.67L46.2098 72.78L46.9398 77L35.3298 79.01L36.3398 84.85L47.2098 82.96L47.9398 87.19L37.0698 89.08L38.7298 98.63L33.6998 99.5L29.5698 75.67Z" fill="#ED4931"/>
<path d="M32.8899 100.66L28.4199 74.86L47.0299 71.63L48.0999 77.82L36.4899 79.83L37.1599 83.7L48.0299 81.81L49.0999 88L38.2299 89.89L39.8899 99.44L32.8899 100.66ZM30.7299 76.48L34.5199 98.34L37.5799 97.81L35.9199 88.26L46.7899 86.37L46.3999 84.11L35.5299 86L34.1799 78.19L45.7899 76.18L45.3999 73.93L30.7299 76.48Z" fill="#ED4931"/>
<path d="M58.1699 85.43L59.8299 94.97L54.7899 95.84L50.6599 72L61.1299 70.18C66.3299 69.28 69.6199 71.66 70.2599 75.34C70.8099 78.54 69.3699 80.57 67.7699 81.58C69.0299 81.81 71.0199 82.73 71.7599 87L71.9599 88.18C72.2399 89.78 72.5699 91.61 73.0899 92.67L68.2099 93.52C67.6099 92.56 67.2199 90.79 66.7799 88.25L66.7199 87.9C66.2699 85.29 65.3999 84.17 61.5499 84.84L58.1699 85.43ZM57.4599 81.33L61.7799 80.58C64.5999 80.09 65.4999 78.83 65.1599 76.83C64.8199 74.89 63.3699 74.03 60.8499 74.46L56.3999 75.23L57.4599 81.33Z" fill="#ED4931"/>
<path d="M53.98 97L49.5 71.19L60.95 69.2C66.32 68.27 70.45 70.67 71.24 75.17C71.75 78.15 70.74 80.1 69.68 81.27C70.97 82.08 72.2 83.69 72.74 86.83L72.94 88.01C73.18 89.38 73.51 91.27 73.98 92.23L74.57 93.43L67.71 94.62L67.35 94.05C66.67 92.95 66.26 91.16 65.78 88.42L65.72 88.07C65.52 86.89 65.25 86.26 64.83 85.97C64.3 85.6 63.28 85.55 61.7 85.83L59.31 86.25L60.97 95.79L53.98 97ZM51.82 72.81L55.61 94.68L58.68 94.15L57.02 84.61L61.38 83.85C63.57 83.47 64.99 83.62 66 84.33C67.12 85.12 67.48 86.43 67.7 87.73L67.76 88.08C68.09 89.98 68.4 91.47 68.77 92.4L71.73 91.88C71.43 90.88 71.21 89.67 70.97 88.34L70.77 87.15C70.29 84.39 69.22 82.84 67.59 82.55L65.07 82.09L67.24 80.72C68.23 80.1 69.81 78.59 69.28 75.49C68.68 72.06 65.63 70.4 61.31 71.15L51.82 72.81ZM56.65 82.49L55.25 74.42L60.69 73.48C64.99 72.74 65.94 75.46 66.16 76.66C66.62 79.36 65.21 81 61.97 81.57L56.65 82.49ZM57.56 76.04L58.28 80.17L61.61 79.59C64.3 79.12 64.36 78.05 64.18 76.99C64.07 76.39 63.82 74.96 61.02 75.44L57.56 76.04Z" fill="#ED4931"/>
<path d="M93.0598 78.62L81.6598 80.6L82.7098 86.66L95.2898 84.48L95.4098 88.81L78.4398 91.75L74.2998 67.91L91.1998 64.98L91.9298 69.2L80.0298 71.26L80.9198 76.37L92.3198 74.39L93.0598 78.62Z" fill="#ED4931"/>
<path d="M77.6299 92.91L73.1399 67.1L92.0099 63.83L93.0799 70.02L81.1799 72.08L81.7299 75.22L93.1299 73.24L94.2099 79.44L82.8099 81.42L83.5199 85.51L96.2499 83.3L96.4299 89.65L77.6299 92.91ZM75.4599 68.72L79.2599 90.59L94.3899 87.97L94.3299 85.66L81.8999 87.82L80.5099 79.79L91.9099 77.81L91.5099 75.55L80.1099 77.53L78.8799 70.45L90.7799 68.39L90.3899 66.14L75.4599 68.72Z" fill="#ED4931"/>
<path d="M115.18 74.78L103.78 76.76L104.83 82.82L117.41 80.64L117.53 84.97L100.56 87.91L96.4299 64.07L113.33 61.14L114.06 65.36L102.16 67.42L103.05 72.53L114.45 70.55L115.18 74.78Z" fill="#ED4931"/>
<path d="M99.75 89.07L95.28 63.26L114.15 59.99L115.22 66.18L103.32 68.24L103.87 71.38L115.27 69.4L116.34 75.6L104.94 77.58L105.65 81.67L118.38 79.46L118.56 85.81L99.75 89.07ZM97.59 64.88L101.38 86.75L116.51 84.13L116.45 81.82L104.02 83.97L102.63 75.94L114.03 73.96L113.64 71.7L102.24 73.68L101 66.61L112.9 64.55L112.51 62.3L97.59 64.88Z" fill="#ED4931"/>
</g>
<defs>
<clipPath id="clip0">
<rect width="200" height="200" fill="white"/>
</clipPath>
</defs>
</svg>
