<svg width="200" height="200" viewBox="0 0 200 200" fill="none" xmlns="http://www.w3.org/2000/svg">
<path fill-rule="evenodd" clip-rule="evenodd" d="M92.0853 62.8774C92.0851 62.8773 92.085 62.8772 97.68 52.83C103.275 42.7828 103.275 42.7829 103.276 42.7831L103.74 43.0419C104.044 43.2114 104.493 43.4615 105.072 43.7846C106.23 44.4307 107.91 45.3689 110 46.5381C114.181 48.8763 120.004 52.1396 126.577 55.8405C139.706 63.2329 155.886 72.4057 167.93 79.4396L167.931 79.4405C182.824 88.1413 192.977 100.536 190.931 115.449C189.011 129.439 177.024 139.106 164.178 144.58C154.39 148.752 135.293 157.354 118.519 164.972C110.158 168.769 102.416 172.302 96.7645 174.886C93.9387 176.178 91.6359 177.232 90.0399 177.963C89.242 178.329 88.6207 178.614 88.1992 178.807L87.5595 179.101L87.5576 179.101C87.5572 179.102 87.557 179.102 82.76 168.65C77.9629 158.198 77.9632 158.198 77.9636 158.198L77.9657 158.197L78.6116 157.901C79.0353 157.706 79.659 157.42 80.4595 157.054C82.0605 156.32 84.3692 155.263 87.2014 153.968C92.8653 151.379 100.625 147.837 109.009 144.03C125.721 136.441 145.078 127.719 155.16 123.421L155.162 123.42C165.246 119.124 167.874 114.296 168.144 112.323C168.288 111.274 168.206 106.239 156.33 99.3005M92.0853 62.8774L92.0866 62.8781L92.0853 62.8774ZM92.0866 62.8781L92.0919 62.8811L92.0866 62.8781ZM92.0919 62.8811L92.1135 62.8931L92.0919 62.8811ZM92.1135 62.8931L92.2 62.9413L92.1135 62.8931ZM92.2 62.9413L92.542 63.1318L92.2 62.9413ZM92.542 63.1318C92.8433 63.2998 93.2888 63.5482 93.8648 63.8696L92.542 63.1318ZM93.8648 63.8696C95.0167 64.5123 96.6899 65.4466 98.7729 66.6117L93.8648 63.8696ZM98.7729 66.6117C102.939 68.9419 108.743 72.1942 115.293 75.882L98.7729 66.6117ZM115.293 75.882C128.408 83.2668 144.453 92.3636 156.329 99.2996L115.293 75.882Z" fill="#ED4931"/>
<path fill-rule="evenodd" clip-rule="evenodd" d="M172.07 121.07H5.57996V98.07H172.07V121.07Z" fill="#ED4931"/>
</svg>
