<svg width="800" height="600" xmlns="http://www.w3.org/2000/svg">
 <g>
  <title>Layer 1</title>
  <g stroke="null" transform="rotate(-90 386.47750854492193,299.92431640625) " id="svg_5">
   <path stroke="null" id="svg_4" fill="#ED4932" d="m685.50548,313.36037c-0.06975,3.00702 -0.2885,5.96014 -0.56114,9.06227c-0.72441,5.29914 -2.00204,10.73459 -3.93274,16.10506c-8.52015,23.71851 -27.71307,40.57334 -50.1698,46.82198c-4.89809,1.4409 -10.02762,2.12568 -15.05094,2.50928c-4.42572,0.60077 -8.94814,0.99706 -13.71466,1.13655c-21.23142,0.96377 -45.58398,0.29959 -71.91798,-1.41395l-152.84908,180.727c-8.14288,9.53781 -23.63132,7.17436 -28.37566,-4.46852l-7.02694,-17.00859c-4.3211,-10.47939 -4.14991,-22.20786 0.55004,-32.47801l64.12382,-140.51349c-81.71575,-11.85371 -175.98108,-30.37611 -224.89228,-40.35935l-69.76931,80.8677c-9.73025,8.80072 -25.10297,1.42504 -24.44942,-11.64605l11.05574,-215.49713c0.69556,-12.71919 16.12503,-18.6302 25.19285,-9.6456l55.66534,66.62994c44.59644,-3.75045 147.06013,-11.73165 236.18801,-13.99206l-47.22619,-147.5027c-3.50951,-10.86141 -2.3365,-22.56706 3.20516,-32.36642l8.94497,-15.98824c6.17255,-11.08856 21.73074,-11.73117 28.70537,-1.14051l130.99629,197.97749c26.64468,1.31884 51.11138,3.53963 72.29207,6.93817c0.54529,0.09511 1.08582,0.18863 1.61843,0.27899c3.02762,0.52151 5.85869,1.00974 8.61367,1.71196l0.149,0.05389c4.39243,0.90353 8.43138,1.84986 12.36412,3.0942c0.64991,0.06499 1.39493,0.33288 1.99094,0.54687l0.00159,0.00159l1.64062,0.58809c28.82267,11.19746 46.72528,39.18951 46.6381,68.96961z" clip-rule="evenodd" fill-rule="evenodd"/>
  </g>
 </g>

</svg>