<svg width="102" height="135" viewBox="0 0 102 135" fill="none" xmlns="http://www.w3.org/2000/svg">
<path d="M19.4395 86.4006C19.5217 86.487 19.7332 86.4556 19.7645 86.3194L19.4043 86.1099L19.4395 86.4006Z" fill="#EC422B"/>
<path d="M20.4892 85.39C20.3404 85.149 20.0937 84.8897 19.6864 84.8844C20.031 85.1621 19.8195 85.1935 20.262 85.4895C20.215 85.6938 20.1014 85.7435 19.9055 85.7068C19.9878 85.7932 19.7449 85.9608 20.023 86.0839C20.3637 85.9347 20.4265 85.6624 20.309 85.2852C20.309 85.2852 20.3913 85.3717 20.4892 85.39Z" fill="#EC422B"/>
<path d="M32.8358 57.9427C32.8358 57.9427 32.8201 58.0108 32.7221 57.9924C32.7221 57.9924 32.8201 58.0108 32.8358 57.9427Z" fill="#EC422B"/>
<path d="M26.3045 69.0067L26.563 68.7711C26.4651 68.7527 26.4337 68.8889 26.3045 69.0067Z" fill="#EC422B"/>
<path d="M20.1411 82.9097C20.1254 82.9778 20.2077 83.0642 20.2077 83.0642C20.2233 82.9961 20.239 82.928 20.1411 82.9097Z" fill="#EC422B"/>
<path d="M24.9604 73.5137L24.9448 73.5818C24.9448 73.5818 25.027 73.6682 25.1249 73.6866L24.9604 73.5137Z" fill="#EC422B"/>
<path d="M23.851 76.9994C23.8667 76.9313 23.5887 76.8082 23.3928 76.7715C23.4751 76.8579 23.5573 76.9444 23.5416 77.0125C23.7531 76.9811 23.7531 76.9811 23.851 76.9994Z" fill="#EC422B"/>
<path d="M25.9163 71.1368C26.0142 71.1551 26.0142 71.1551 26.0142 71.1551C26.0301 71.086 26.0301 71.086 25.9163 71.1368Z" fill="#EC422B"/>
<path d="M19.6515 21.166C19.5693 21.0796 19.5693 21.0796 19.4871 20.9932L19.6515 21.166Z" fill="#EC422B"/>
<path d="M58.9054 31.2196C58.451 31.4186 58.9486 30.5885 58.267 30.8869C58.4628 30.9236 58.4196 31.5548 58.9054 31.2196Z" fill="#EC422B"/>
<path d="M58.3647 30.9054C58.2509 30.9561 58.2509 30.9561 58.3647 30.9054V30.9054Z" fill="#EC422B"/>
<path d="M36.2831 53.6166L36.4124 53.4988C36.3967 53.5669 36.2988 53.5486 36.2831 53.6166Z" fill="#EC422B"/>
<path d="M43.2437 46.8947C43.3573 46.845 43.3573 46.845 43.4866 46.7271C43.4866 46.7271 43.4866 46.7271 43.3887 46.7088C43.373 46.7769 43.3573 46.845 43.2437 46.8947Z" fill="#EC422B"/>
<path d="M45.7312 44.5198C45.7312 44.5198 45.6333 44.5015 45.7312 44.5198C45.6176 44.5696 45.6176 44.5696 45.6019 44.6376L45.7312 44.5198Z" fill="#EC422B"/>
<path d="M32.2449 12.161C32.147 12.1427 31.9511 12.106 31.8689 12.0195C32.147 12.1427 31.6612 12.4778 32.2449 12.161Z" fill="#EC422B"/>
<path d="M20.3371 82.9468C20.2392 82.9284 20.2549 82.8604 20.2549 82.8604L20.2392 82.9284C20.2392 82.9284 20.2392 82.9284 20.3371 82.9468Z" fill="#EC422B"/>
<path d="M41.196 45.5877L41.5838 45.2342C41.4702 45.284 41.3252 45.4699 41.196 45.5877Z" fill="#EC422B"/>
<path d="M59.3864 12.2744L59.3042 12.188C59.2885 12.2561 59.2885 12.2561 59.3864 12.2744Z" fill="#EC422B"/>
<path d="M42.7627 44.1054C42.9742 44.074 43.0878 44.0242 43.2014 43.9745L43.2171 43.9064L42.7627 44.1054Z" fill="#EC422B"/>
<path d="M29.1858 14.3582C29.6558 14.0911 29.0684 13.981 29.0175 13.7584C29.421 13.3368 29.5227 13.782 29.8321 13.769C30.0907 13.5333 30.0868 13.1064 30.3297 12.9388C30.4276 12.9572 30.4276 12.9572 30.5098 13.0436C30.6039 12.6351 31.6771 12.41 31.7868 11.9334C31.8848 11.9517 31.8848 11.9517 31.8848 11.9517C31.7046 11.8469 31.5245 11.7421 31.4422 11.6557C31.6694 11.5562 31.7321 11.2839 32.0102 11.407C31.8966 11.4567 31.8809 11.5248 31.9632 11.6113L32.1081 11.4253C32.582 11.5851 31.8496 11.661 32.014 11.8339C32.3861 11.5485 32.7074 11.0404 33.2283 10.996C33.5886 11.2055 32.4997 11.4987 33.1186 11.4726L32.4684 11.6349C33.236 11.8497 32.1276 11.7841 32.8952 11.999C33.6747 11.7188 33.6238 11.4962 34.3876 11.2842C34.4346 11.0799 34.1252 11.093 34.1722 10.8887C35.0457 10.2 35.5273 11.2136 36.0914 10.538C36.1541 10.2656 36.0367 9.88851 36.7377 9.94883L36.7416 10.3757C37.5053 10.1637 36.867 9.83099 37.8109 9.72373C37.7796 9.85991 37.243 9.97246 37.4388 10.0091C38.1398 10.0695 37.713 9.70539 38.136 9.64259L38.3827 9.90189C38.8214 9.771 39.1621 9.62176 39.6165 9.42278C40.0552 9.29188 40.5095 9.0929 40.9482 8.96201C40.9325 9.0301 40.8033 9.14794 41.097 9.20297C42.2994 8.86004 43.7329 8.8445 45.0371 8.9468L45.4092 8.66138C45.5071 8.67972 45.5893 8.76616 45.5737 8.83425C46.0632 8.92597 45.605 8.69807 45.7343 8.58023C46.0437 8.56718 46.1103 8.7217 45.9967 8.77145C46.8583 8.57775 48.4368 8.37629 49.3688 8.764L49.1573 8.7954C49.8427 8.92381 49.9681 8.37909 50.6065 8.71177L50.4929 8.76152C51.9615 9.03669 53.7553 9.23071 54.6089 9.95887C54.9811 9.67345 55.8856 10.6242 56.2891 10.2026C56.8804 10.7396 56.6846 10.7029 57.456 11.3446C57.7184 11.5358 58.0748 11.3185 58.4508 11.46L58.2079 11.6276L58.909 11.6879L58.8306 12.0283L59.2065 12.1698C59.1243 12.0834 59.0577 11.9288 59.1713 11.8791C59.7274 12.1253 59.9936 12.7434 59.8644 12.8613C60.2247 13.0708 60.5849 13.2804 60.9295 13.558C60.816 13.6078 60.6358 13.503 60.4557 13.3982C61.2076 13.6812 60.2128 13.5658 60.8512 13.8985C60.8668 13.8304 61.0627 13.8671 61.1762 13.8173C61.2114 14.108 61.6226 14.5402 61.8536 14.8676L61.5442 14.8807C61.6107 15.0352 61.6773 15.1897 61.8418 15.3626C61.9083 15.5171 61.9749 15.6716 62.0414 15.8262C62.2724 16.1535 62.2919 16.5123 62.3937 16.9576C62.4564 16.6852 62.8637 16.6905 62.9968 16.9995L62.6717 17.0807C62.9498 17.2038 62.7345 16.8083 63.1613 17.1724C63.0986 17.4448 62.7069 17.3714 62.6404 17.2169C62.7069 17.3714 62.6913 17.4395 62.7578 17.594C62.6442 17.6438 62.5777 17.4892 62.4798 17.4709C62.7421 17.6621 62.1428 18.047 62.5031 18.2566L62.4052 18.2382C62.3306 19.0056 62.4481 19.3827 62.1934 20.0452C62.4871 20.1003 62.4244 20.3726 62.5732 20.6136C62.2676 21.0535 61.8484 21.5432 61.6251 22.0696C61.6289 22.4965 61.8875 22.2608 61.9383 22.4834C61.6446 22.4284 61.4056 23.0229 61.2881 22.6457C61.0334 23.3083 60.8885 23.4942 60.669 24.4475C60.8805 24.4161 60.9119 24.2799 60.9941 24.3663C60.947 24.5706 60.7199 24.6701 60.5397 24.5653L60.5554 24.4972C60.5279 25.0603 59.9129 25.5133 59.4115 25.9165C58.9101 26.3198 58.393 26.7911 58.3969 27.218L58.4126 27.1499C58.3498 27.4223 58.2714 27.7627 58.1108 28.0167C57.8366 28.3205 58.0756 27.726 57.7192 27.9434C57.5976 28.915 56.7202 29.1767 56.4342 29.9755C55.2788 30.1141 55.0004 31.7666 53.9781 32.2144L54.1739 32.251C54.2091 32.5417 53.931 32.4186 53.7038 32.5181C53.8997 32.5548 54.0289 32.437 53.9976 32.5731C52.9202 34.147 50.9931 35.4195 49.4575 36.7655C48.9248 37.3049 50.0997 37.525 48.9795 37.9544L48.862 37.5773C48.1568 38.8657 46.731 39.735 45.9436 40.937C45.9593 40.8689 45.877 40.7825 45.9084 40.6463C45.4854 40.7091 45.1171 41.4214 45.2972 41.5262C45.1523 41.7121 45.1014 41.4895 44.8899 41.5209C44.5491 41.6701 44.6195 42.2515 44.3258 42.1965C44.2279 42.1781 44.3415 42.1284 44.3572 42.0603C44.3101 42.2646 43.5972 42.6992 44.1025 42.7229C43.6167 43.058 43.4091 43.5163 42.9547 43.7153C43.0722 44.0924 42.1126 44.2678 42.4415 44.6135C41.999 44.3175 41.4192 45.0612 41.3251 45.4698C41.2586 45.3152 40.9843 45.619 40.8356 45.378C40.5613 45.6818 40.4007 45.9358 40.6788 46.0589C39.6056 46.284 39.9735 47.3474 39.0767 47.2504C38.4499 48.1983 37.8387 49.0782 37.1453 49.8717C36.7028 49.5757 37.9523 49.0285 37.4941 48.8006C36.8986 49.6124 36.8554 50.2435 36.0955 50.8824C35.8526 51.05 36.0446 50.6598 35.9624 50.5734C35.4648 51.4035 34.5248 51.9377 34.1408 52.7181C34.1408 52.7181 34.1722 52.5819 34.1878 52.5138C34.0586 52.6316 33.8157 52.7992 34.0115 52.8359L34.0429 52.6997C34.5638 52.6553 34.1641 53.5037 34.3286 53.6766C33.9331 53.1763 33.5844 54.2474 33.138 53.5246C33.1066 53.6607 33.0753 53.7969 33.2711 53.8336C33.1418 53.9514 33.0439 53.9331 32.9931 53.7105C32.6718 54.2185 33.0948 54.1557 32.6913 54.5773C32.5934 54.559 32.6248 54.4228 32.5425 54.3364C32.5777 54.6271 32.4993 54.9675 32.1272 55.2529C32.045 55.1665 31.9314 55.2162 32.0607 55.0984C31.4965 55.774 31.6492 56.4419 30.9871 57.0991C30.6739 56.6853 30.6464 57.2484 30.2547 57.175L30.2272 57.738L30.5523 57.6569C30.2781 57.9607 30.3798 58.4059 30.1213 58.6416L30.1018 58.2828L29.7178 59.0632L30.0899 58.7777C30.0938 59.2046 30.6617 58.9559 30.2582 59.3775C30.2896 59.2413 30.0819 59.6996 29.6433 59.8305C29.6941 60.0531 29.745 60.2757 29.3886 60.493C29.1771 60.5244 28.9304 60.2651 28.8168 60.3149C29.0635 60.5742 28.4171 61.1634 28.746 61.5091C28.6638 61.4227 28.4837 61.3179 28.3858 61.2995L28.6325 61.5589C28.5032 61.6767 28.3896 61.7264 28.2095 61.6216C27.8882 62.1297 28.8126 61.6636 28.2955 62.135C28.3112 62.0669 28.2133 62.0485 28.229 61.9804C27.7941 62.5382 27.8488 63.1877 27.4297 63.6774C26.9088 63.7219 27.5551 63.1327 27.1164 63.2636C26.8304 64.0623 26.8067 65.0523 26.4227 65.8327L26.552 65.7148C27.0924 66.0292 26.0349 66.1862 26.121 66.6995C26.1523 66.5633 25.8586 66.5083 25.8586 66.5083C25.5374 67.0163 25.4942 67.6474 25.4039 68.4829L25.3374 68.3283C25.0631 68.6321 24.9377 69.1768 24.6635 69.4806C24.7301 69.6351 24.683 69.8394 24.9102 69.7399C23.598 70.5595 24.62 71.8874 23.5349 72.6074C23.5663 72.4713 23.4997 72.3167 23.4841 72.3848L23.3938 73.2202C23.7032 73.2072 23.6053 73.1888 23.8482 73.0213C24.0126 73.1941 24.0635 73.4167 23.9186 73.6027C23.9147 73.1758 23.5269 73.5293 23.2998 73.6288C23.3977 73.6471 23.4799 73.7336 23.5935 73.6838C23.0099 74.0006 24.0674 73.8436 23.6325 74.4014L23.5503 74.315C23.6012 74.5376 23.652 74.7602 23.5893 75.0326C23.2799 75.0456 23.5541 74.7419 23.2604 74.6868C23.182 75.0273 23.5931 75.4594 23.2367 75.6768C23.1702 75.5222 23.2172 75.318 23.2485 75.1818C22.7785 75.4489 22.8764 75.4672 22.7158 75.7212L22.3945 76.2293L22.5238 76.1114C23.1973 76.7348 22.4179 77.0149 22.782 77.6514C22.4179 77.0149 22.504 77.5283 22.128 77.3868C21.9987 77.5046 21.8538 77.6906 21.7715 77.6041C22.0026 77.9315 21.3837 77.9576 21.6813 78.4395C21.5834 78.4212 21.6186 78.7119 21.3405 78.5888C21.3601 78.9476 21.552 78.5574 21.7479 78.5941C22.0141 79.2122 20.8782 79.7096 21.1796 80.6184C21.2186 81.336 21.5789 81.5456 21.5357 82.1767C21.2928 82.3443 21.1911 81.8991 21.1911 81.8991C20.9169 82.2028 20.8542 82.4752 20.9873 82.7842C20.905 82.6978 20.7914 82.7476 20.6778 82.7973C20.6151 83.0697 21.0225 83.0749 20.7639 83.3106C20.6817 83.2242 20.5015 83.1194 20.3371 82.9465C20.3723 83.2372 20.4897 83.6144 20.5249 83.9051C20.3134 83.9365 20.2782 83.6458 20.196 83.5593C20.2155 83.9181 20.188 84.4812 20.4503 84.6724L20.5953 84.4865C20.5639 84.6227 20.2859 84.4995 20.3016 84.4315C20.1684 84.1224 20.4935 84.0413 20.5914 84.0596L20.6423 84.2822C21.3747 84.2064 20.7482 83.3787 20.9402 82.9885L21.3827 83.2845L21.1008 82.7345C21.2144 82.6847 21.5238 82.6717 21.5747 82.8943C21.9468 82.6089 21.4416 82.5853 21.7981 82.3679L21.896 82.3863L21.8765 82.0275C21.9587 82.1139 22.2838 82.0328 22.1388 82.2187C22.558 81.729 22.0489 81.2785 22.4876 81.1476L22.4719 81.2157C22.5465 80.4484 22.096 81.0742 21.8454 80.388L22.805 80.2127L22.4291 80.0712C22.4447 80.0031 22.574 79.8853 22.6719 79.9036C22.5388 79.5946 22.4604 79.935 22.3116 79.6941C22.7817 79.427 22.4646 78.5863 23.0521 78.6964C22.7897 78.5051 22.7778 79.0001 22.6761 78.5549C23.2792 78.5969 22.6879 78.0599 23.0601 77.7745C23.3224 77.9657 23.0639 78.2014 23.4203 77.9841C22.9778 77.6881 23.773 77.3399 23.7378 77.0491C23.3461 76.9758 23.781 76.418 23.8085 75.8549C23.8907 75.9414 24.306 75.0248 24.6116 74.5849L24.7095 74.6032C24.3492 74.3936 24.5412 74.0034 24.6353 73.5949C24.929 73.6499 25.0113 73.7364 25.0621 73.959L25.1405 73.6185C25.0583 73.5321 24.9918 73.3776 25.0388 73.1733L25.3168 73.2964C25.4109 72.8879 25.2269 72.3562 25.6461 71.8665C25.368 71.7434 24.6708 72.11 24.714 71.4788C24.9099 71.5155 25.2036 71.5705 25.1722 71.7067C25.1879 71.6386 25.1214 71.4841 25.2349 71.4344L25.368 71.7434C25.6266 71.5078 25.2036 71.5705 25.2506 71.3663C25.4464 71.403 25.4778 71.2668 25.6579 71.3716C25.6423 71.4397 25.5287 71.4894 25.5952 71.6439C25.7402 71.458 25.9008 71.204 26.1123 71.1726C26.0144 71.1542 25.8186 71.1176 25.8656 70.9133C25.9597 70.5047 26.1907 70.8321 26.4336 70.6646C26.2691 70.4917 26.6255 70.2744 26.2339 70.201C26.2653 70.0648 26.4611 70.1015 26.5747 70.0517C26.5238 69.8291 26.9078 69.0487 26.4691 69.1796L26.4534 69.2477C26.4534 69.2477 26.4534 69.2477 26.4691 69.1796C26.4457 68.394 27.2057 67.755 27.3781 67.006L27.476 67.0244C27.4722 66.5975 27.7935 66.0895 27.676 65.7123C27.7074 65.5762 28.0325 65.495 28.1147 65.5814C28.1931 65.241 28.1109 65.1546 28.4987 64.8011C28.5182 65.1598 28.7102 64.7697 28.5182 65.1598C28.8081 64.788 29.0196 64.7566 28.9335 64.2433C29.1802 64.5026 29.4858 64.0626 29.4349 63.84L29.0785 64.0573C29.1255 63.8531 29.2705 63.6672 29.4154 63.4812L29.7757 63.6908C30.6492 63.0021 29.7603 61.9833 30.8649 61.622C30.7318 61.3129 30.4771 61.9755 30.2304 61.7162C30.5203 61.3443 31.1861 61.1139 31.2997 61.0642C31.8011 60.6609 31.0492 60.378 31.4527 59.9564C31.2412 59.9878 30.8495 59.9144 31.0572 59.4562C31.3471 59.0843 31.8366 59.176 31.8718 59.4667C31.8562 59.5348 31.7426 59.5846 31.7426 59.5846C31.7112 59.7207 31.6642 59.925 31.8914 59.8255L31.8091 59.7391C32.0363 59.6396 32.3576 59.1316 32.522 59.3044C32.6004 58.964 32.3576 59.1316 32.2126 59.3175C32.714 58.9142 32.6788 58.6235 33.1802 58.2203C33.0666 58.27 32.8551 58.3014 32.8865 58.1653C33.5328 57.5761 32.8826 57.7384 33.0903 57.2801C33.4311 57.1308 33.4349 57.5577 33.6582 57.0314C34.0147 56.814 34.0499 57.1047 34.0185 57.2409C34.1283 56.7643 34.7941 56.5339 35.037 56.3663L34.9743 56.6387C35.0056 56.5025 35.1349 56.3847 35.2642 56.2668L34.9548 56.2799C35.084 56.162 35.2133 56.0442 35.2955 56.1306C35.2447 55.908 34.806 56.0389 34.7865 55.6801C35.0136 55.5806 35.1234 55.104 35.4994 55.2455C34.8844 55.6985 35.8753 55.3869 35.5697 55.8269C35.6011 55.6907 35.7147 55.641 35.844 55.5231C35.9419 55.5415 35.9262 55.6096 35.9262 55.6096C36.7213 55.2613 35.8088 55.2324 36.2436 54.6746C36.4081 54.8475 36.7332 54.7664 36.7645 54.6302C36.6196 54.8161 36.3729 54.5568 36.4356 54.2844C36.9056 54.0174 36.6276 53.8943 36.8704 53.7267L36.6276 53.8943C36.561 53.7397 36.706 53.5538 36.8666 53.2998C37.0624 53.3365 36.8039 53.5722 36.9175 53.5224C36.8157 53.0772 37.8262 53.1244 37.9359 52.6478C38.261 52.5667 38.3119 52.7893 38.5391 52.6898C38.6645 52.1451 39.2206 52.3913 39.444 51.8649C38.4335 51.8177 38.4178 51.8858 38.5119 51.4772L38.03 52.2393L38.1711 51.6265C37.9283 51.794 37.8499 52.1345 37.7206 52.2523C37.6854 51.9616 37.7833 51.98 37.4739 51.993C38.1084 51.8988 37.8265 51.3488 38.3788 51.1682L38.9192 51.4825C39.7143 51.1343 39.4638 50.4481 40.2903 49.9637L39.9495 50.1129C39.8007 49.872 40.353 49.6913 40.4 49.4871C40.5802 49.5919 40.7917 49.5605 41.0032 49.529C40.823 49.4243 41.5203 49.0577 41.1757 48.7801L41.7122 48.6675C42.3272 48.2145 41.7046 47.8137 42.3196 47.3607C42.3547 47.6515 42.6955 47.5022 42.6014 47.9108C42.7464 47.7248 42.9736 47.6253 42.7934 47.5206C43.0049 47.4892 43.0325 46.9261 43.3419 46.913C43.3732 46.7769 43.1931 46.6721 43.338 46.4862C43.4359 46.5045 43.4203 46.5726 43.4203 46.5726C43.338 46.4862 43.5966 46.2505 43.1892 46.2452C44.3446 46.1065 44.6269 44.8809 45.5865 44.7056C45.8764 44.3337 46.2955 43.844 46.5697 43.5403C46.5541 43.6084 46.652 43.6267 46.5541 43.6084C47.1377 43.2915 46.2722 43.0584 46.9851 42.6237C47.5216 42.5111 46.9067 42.9641 47.1338 42.8647C47.8858 43.1476 47.698 42.189 48.4304 42.1132L48.399 42.2494C48.8377 42.1185 48.783 41.469 49.2844 41.0657C49.2844 41.0657 49.2687 41.1338 49.3666 41.1522C49.3628 40.7253 49.8133 40.0994 50.1345 39.5914C50.2833 39.8323 50.0718 39.8637 50.3656 39.9188C50.5105 39.7328 49.8917 39.759 50.1973 39.319C50.4088 39.2876 50.8631 39.0886 51.1412 39.2118L50.8513 39.5836C51.3565 39.6072 51.2704 39.0939 51.4976 38.9944L51.6777 39.0992C52.1126 38.5414 51.7523 38.3319 52.3986 37.7427L52.2028 37.706C52.1168 37.1927 52.6415 37.5751 52.6533 37.0801L53.1429 37.1719C53.2056 36.8995 53.4603 36.2369 53.7659 35.797C53.8833 36.1741 53.5621 36.6822 53.4837 37.0226C53.6286 36.8367 54.1614 36.2973 54.0126 36.0563C53.9812 36.1925 53.9499 36.3287 53.8363 36.3784C53.7345 35.9332 53.9265 35.543 54.33 35.1214C55.0349 35.6086 55.5756 34.1473 56.406 34.0898C56.8213 33.1732 57.8593 32.6574 58.584 31.7278C57.6558 31.767 58.7446 31.4738 58.0906 31.2092C58.2513 30.9552 58.2669 30.8871 58.3648 30.9054L59.2892 30.4394C59.6143 30.3582 59.2265 30.7117 59.4223 30.7484C59.8258 30.3268 59.8453 30.6856 60.2997 30.4866C60.006 30.4316 60.0687 30.1592 60.4251 29.9419L59.8572 30.1906C60.0453 29.3736 60.8481 29.8791 60.9384 29.0437L60.9736 29.3344C61.1655 28.9442 61.8746 28.0827 61.5927 27.5327C61.7063 27.4829 61.9178 27.4515 61.8708 27.6558C62.1607 27.2839 62.384 26.7576 62.5094 26.2128C62.7171 25.7546 62.8269 25.2779 63.199 24.9925L63.3791 25.0973C63.4262 24.893 63.2617 24.7201 63.5046 24.5526C63.6025 24.5709 63.6847 24.6573 63.7004 24.5893C63.716 24.5212 63.6143 24.0759 63.8728 23.8403L64.0216 24.0812C64.6171 23.2694 64.253 22.633 64.3432 21.7976C64.8171 21.9574 65.2833 21.2634 65.4753 20.8732L65.5732 20.8916C65.922 19.8205 65.6206 18.9117 65.3662 17.7986C66.0125 17.2094 65.394 15.4599 65.0418 14.3285C65.0926 14.5511 64.6188 14.3913 64.4543 14.2184C64.4191 13.9277 63.6672 13.6448 64.1059 13.5139L64.1881 13.6003C64.4623 13.2966 63.9533 12.8461 63.6243 12.5003L63.0721 12.681C63.0017 12.0996 62.3282 11.4762 61.6076 11.0571C60.9027 10.5698 60.1508 10.2869 60.1469 9.86003C59.7553 9.78665 59.395 9.57709 59.0034 9.50371L59.2462 9.33613C58.4278 8.89867 57.9852 8.60268 56.8417 8.24637L57.1668 8.16522C56.0898 7.96343 55.5413 8.57096 54.9695 8.3928L54.95 8.03401C54.3782 7.85585 53.8065 7.67769 53.2504 7.43145C52.6786 7.25329 52.0911 7.14322 51.4566 7.23743C51.4723 7.16934 51.488 7.10125 51.6838 7.13794C51.0963 7.02787 49.4632 6.57984 49.6472 7.1115C49.612 6.82079 48.3587 6.94111 47.8064 7.12175L47.8535 6.91748C47.3834 7.18455 47.3677 7.25264 46.6353 7.3285C46.4395 7.29181 46.4709 7.15563 46.6667 7.19232C46.0792 7.08225 46.2123 7.3913 45.5113 7.33098L45.7541 7.1634C45.151 7.12142 45.2332 7.20786 44.9747 7.44353C44.6339 7.59277 43.8507 7.44601 43.6862 7.27314C43.6548 7.40932 43.3963 7.64499 43.0047 7.57162C42.9224 7.48518 43.036 7.43544 43.0517 7.36735C42.0412 7.32008 41.72 7.82811 40.9367 7.68136C40.8545 7.59492 40.8545 7.59492 40.7566 7.57658C41.5046 7.43263 42.1235 7.40652 42.1235 7.40652C42.0726 7.1839 41.3559 7.19167 41.7437 6.83817C41.2893 7.03715 40.5607 7.53989 39.9419 7.566C39.9419 7.566 39.844 7.54766 39.8597 7.47957L39.8754 7.41148C39.7775 7.39314 39.6639 7.44288 39.5503 7.49263C39.3388 7.52403 39.2409 7.50568 39.0294 7.53708C38.8649 7.36422 38.297 7.61294 37.9876 7.626C38.1363 7.86696 37.7133 7.92976 38.2029 8.02148C38.105 8.00314 38.2186 7.95339 38.4301 7.92199L38.5437 7.87225C38.7552 7.84085 38.9823 7.74135 39.2917 7.7283C39.1468 7.91422 38.9196 8.01371 38.5123 8.00843C38.4653 8.2127 38.3203 8.39862 38.3046 8.46671C37.7485 8.22047 36.8203 8.25964 36.6558 8.08677C36.2994 8.30409 35.7471 8.48473 35.3084 8.61562C35.0342 8.91938 34.6778 9.13671 34.6151 9.40907C34.3879 9.50856 34.2077 9.40378 34.1098 9.38544C34.2391 9.2676 34.3527 9.21786 34.3684 9.14977C33.9962 9.43518 33.0053 9.74671 33.1384 10.0558C32.5039 10.15 33.2325 9.64722 32.5353 10.0138L32.5666 9.87761C31.5248 9.96652 31.1056 10.4562 30.6865 10.9459C30.2673 11.4356 29.7659 11.8388 28.6928 12.0639C28.8063 12.0142 28.9042 12.0325 29.0022 12.0509C26.9889 12.8101 25.8959 14.452 23.9492 15.3658C23.4792 15.6329 23.6436 15.8057 23.5652 16.1462L23.1736 16.0728L23.1461 16.6359C22.7934 17.2801 21.4893 17.1778 21.2697 18.1311L21.5792 18.118C21.3206 18.3537 20.968 18.9979 20.8035 18.825C20.7879 18.8931 20.968 18.9979 20.7565 19.0293L20.5764 18.9245C20.5137 19.1969 20.4509 19.4692 20.306 19.6551C19.7889 20.1265 19.6833 19.2544 19.1035 19.9981C18.9272 20.3202 18.9819 20.9697 19.1934 20.9383C19.3227 20.8204 19.5499 20.721 19.6478 20.7393L19.5851 21.0117C20.0433 21.2396 20.4544 21.6717 21.183 21.169L21.2105 20.6059L21.5199 20.5929L21.23 20.9647C21.5551 20.8836 21.5043 20.661 21.4534 20.4383C21.6492 20.475 21.7628 20.4253 21.8764 20.3755C21.8255 20.1529 21.759 19.9984 21.7081 19.7758C21.9039 19.8125 21.9391 20.1032 22.2956 19.8859C22.2604 19.5952 21.6924 19.8439 21.8687 19.5218C22.3739 19.5454 22.5384 19.7183 22.5189 19.3595C22.7147 19.3962 22.699 19.4643 22.6677 19.6004C22.7304 19.3281 23.0046 19.0243 22.8558 18.7834C23.2788 18.7206 23.4199 18.1077 23.8781 18.3357C23.7959 18.2492 23.89 17.8407 24.0349 17.6548C24.2032 18.2545 24.6969 16.9975 25.206 17.448C25.0572 17.207 25.2178 16.953 25.4764 16.7174C25.7349 16.4817 25.9935 16.246 26.0562 15.9737C26.0405 16.0417 26.1227 16.1282 26.0248 16.1098C26.2834 15.8742 26.5771 15.9292 26.8043 15.8297C26.4597 15.5521 26.8475 15.1985 26.8279 14.8398C27.5447 14.832 27.0276 15.3033 27.5172 15.395C27.2548 15.2038 27.7719 14.7325 27.4781 14.6775C27.8854 14.6827 27.6896 14.6461 28.1792 14.7378C27.7523 14.3737 28.3398 14.4838 28.3046 14.1931C28.9391 14.0989 28.7628 14.421 29.1506 14.0675C29.4757 13.9863 29.1858 14.3582 29.1858 14.3582ZM40.9639 8.89392C40.8503 8.94367 40.7524 8.92532 40.6388 8.97507C40.7524 8.92532 40.8503 8.94367 40.9639 8.89392ZM42.135 8.68717C42.0214 8.73691 41.8099 8.76832 41.6141 8.73163C41.5318 8.64519 41.5475 8.5771 41.6611 8.52736C41.6297 8.66354 41.9392 8.65048 42.135 8.68717ZM38.8179 7.56849C38.9315 7.51874 39.0294 7.53708 39.1273 7.55543C39.0137 7.60517 38.9158 7.58683 38.8022 7.63658C38.8022 7.63658 38.7043 7.61823 38.8179 7.56849Z" fill="#EC422B"/>
<path d="M38.6258 7.95858C38.5279 7.94023 38.5279 7.94023 38.6258 7.95858C38.5122 8.00834 38.6101 8.02668 38.6258 7.95858C38.6415 7.89048 38.6258 7.95858 38.6258 7.95858Z" fill="#EC422B"/>
<path d="M22.6179 75.7029L22.4573 75.9569C22.473 75.8888 22.4887 75.8207 22.6179 75.7029Z" fill="#EC422B"/>
<path d="M21.8496 77.2637C21.9476 77.282 21.9476 77.282 21.9319 77.3501L21.8496 77.2637Z" fill="#EC422B"/>
<path d="M29.6591 59.7622C29.6748 59.6941 29.6082 59.5396 29.6239 59.4715C29.4946 59.5894 29.4789 59.6574 29.6591 59.7622Z" fill="#EC422B"/>
<path d="M41.082 45.6384L41.1959 45.5877L41.082 45.6384Z" fill="#EC422B"/>
<path d="M29.8979 59.1678C29.7687 59.2856 29.7373 59.4218 29.7217 59.4899C29.753 59.3537 29.8666 59.3039 29.8979 59.1678Z" fill="#EC422B"/>
<path d="M19.7139 84.3213L19.6982 84.3894C19.6982 84.3894 19.6982 84.3894 19.7961 84.4077L19.7139 84.3213Z" fill="#EC422B"/>
<path d="M19.6982 84.3896L19.6826 84.4577C19.7805 84.4761 19.7805 84.4761 19.6982 84.3896Z" fill="#EC422B"/>
<path d="M19.8157 84.7666L19.7649 84.5439C19.7492 84.612 19.7335 84.6801 19.8157 84.7666Z" fill="#EC422B"/>
<path d="M20.5681 81.4984C20.5367 81.6346 20.1803 81.8519 20.2312 82.0745L20.3291 82.0929C20.149 81.9881 20.7168 81.7394 20.5681 81.4984Z" fill="#EC422B"/>
<path d="M22.8445 79.1546L22.6212 79.6809C22.7347 79.6312 22.9619 79.5317 22.8992 79.8041C23.4632 79.1285 22.5898 79.8171 22.8445 79.1546Z" fill="#EC422B"/>
<path d="M23.5302 77.5073C23.4675 77.7796 23.726 77.544 23.8239 77.5623C23.773 77.3397 23.7887 77.2716 23.5302 77.5073Z" fill="#EC422B"/>
<path d="M28.0322 65.4947L28.3103 65.6178C28.3573 65.4135 28.2124 65.5995 28.0322 65.4947Z" fill="#EC422B"/>
<path d="M27.6335 62.7921L27.3907 62.9597L27.5551 63.1325L27.6335 62.7921Z" fill="#EC422B"/>
<path d="M45.5079 45.046L45.1162 44.9727C45.0849 45.1088 45.4451 45.3184 45.5079 45.046Z" fill="#EC422B"/>
<path d="M52.5121 37.6927C52.7236 37.6613 53.0645 37.5121 52.9979 37.3576C52.755 37.5251 52.5278 37.6246 52.5121 37.6927Z" fill="#EC422B"/>
<path d="M62.7746 12.1988L63.0526 12.3219L62.6101 12.0259L62.7746 12.1988Z" fill="#EC422B"/>
<path d="M20.9722 99.2603C20.9565 99.3284 20.8272 99.4462 20.9251 99.4646L21.1837 99.2289L20.9722 99.2603Z" fill="#EC422B"/>
<path d="M20.9288 99.891C21.0581 99.7731 21.3009 99.6056 21.4459 99.4196C21.203 99.5872 21.2187 99.5191 20.9601 99.7548C20.8622 99.7365 20.9915 99.6186 21.0072 99.5505C20.9915 99.6186 20.925 99.4641 20.7957 99.5819C20.7486 99.7862 20.733 99.8543 20.9758 99.6867C21.0581 99.7731 20.9445 99.8229 20.9288 99.891Z" fill="#EC422B"/>
<path d="M24.3123 104.716C24.2143 104.698 24.2143 104.698 24.3123 104.716C24.2143 104.698 24.1984 104.767 24.3123 104.716Z" fill="#EC422B"/>
<path d="M23.9365 102.799L23.823 102.848C23.9365 102.799 23.9365 102.799 23.9365 102.799Z" fill="#EC422B"/>
<path d="M22.9847 102.052C22.8867 102.034 22.8867 102.034 22.8708 102.103L22.9847 102.052Z" fill="#EC422B"/>
<path d="M22.3777 101.583C22.3777 101.583 22.6049 101.484 22.7342 101.366C22.6206 101.416 22.6206 101.416 22.507 101.466C22.507 101.466 22.3934 101.515 22.3777 101.583Z" fill="#EC422B"/>
<path d="M24.0667 97.3538L23.9374 97.4716L24.0667 97.3538Z" fill="#EC422B"/>
<path d="M19.4713 104.448C19.2441 104.547 19.064 104.443 18.8211 104.61C18.9347 104.56 19.342 104.566 19.4713 104.448Z" fill="#EC422B"/>
<path d="M22.5649 106.093L22.647 106.18C22.647 106.18 22.647 106.18 22.5649 106.093Z" fill="#EC422B"/>
<path d="M19.7194 95.8294C19.8017 95.9158 19.8996 95.9341 19.8839 96.0022C19.8174 95.8477 19.9467 95.7299 19.7194 95.8294Z" fill="#EC422B"/>
<path d="M21.8886 99.716C21.9043 99.648 22.0023 99.6663 22.0023 99.6663C22.0023 99.6663 21.9866 99.7344 21.8886 99.716Z" fill="#EC422B"/>
<path d="M22.1298 108.426C22.0476 108.34 22.0632 108.272 21.9653 108.253L21.9497 108.321L22.1298 108.426Z" fill="#EC422B"/>
<path d="M20.9847 95.2137C20.7732 95.2451 20.922 95.4861 20.9729 95.7087C20.7457 95.8082 20.8241 95.4677 20.644 95.363C20.5147 95.4808 20.5499 95.7715 20.452 95.7532C20.4677 95.6851 20.3698 95.6667 20.3854 95.5986C20.3227 95.871 19.9468 95.7295 19.9819 96.0202L19.8997 95.9338C20.0642 96.1067 20.1464 96.1931 20.213 96.3476C20.0994 96.3974 20.2638 96.5702 20.0994 96.3974C20.0994 96.3974 20.1151 96.3293 20.0328 96.2428L20.0171 96.3109C19.7704 96.0516 20.0485 96.1748 19.884 96.0019C19.7548 96.1197 19.79 96.4104 19.6921 96.3921C19.4454 96.1328 19.837 96.2061 19.5589 96.083L19.8527 96.1381C19.4258 95.774 19.9506 96.1564 19.5394 95.7242C19.23 95.7373 19.3788 95.9782 19.0694 95.9913C19.1359 96.1458 19.3318 96.1825 19.3983 96.337C19.4178 96.6958 18.4976 95.8131 18.6973 96.2767C18.8617 96.4496 19.2063 96.7272 18.8147 96.6539L18.568 96.3946C18.3408 96.494 18.9792 96.8267 18.5875 96.7533C18.5053 96.6669 18.6189 96.6172 18.521 96.5988C18.145 96.4574 18.6854 96.7717 18.5718 96.8214L18.2116 96.6119C18.0666 96.7978 18.1175 97.0204 18.0704 97.2247C17.9882 97.1383 17.906 97.0518 17.8081 97.0335C17.7453 97.3058 17.4046 97.4551 16.9816 97.5179L17.244 97.7091L17.0481 97.6724C16.8366 97.7038 17.2283 97.7772 17.3105 97.8636C17.2948 97.9317 17.1147 97.8269 17.0168 97.8086C17.1656 98.0495 17.3966 98.3769 16.9736 98.4397L16.8913 98.3533C16.6642 98.4528 17.5297 98.686 17.1224 98.6807L17.0244 98.6624C16.7816 98.8299 16.9969 99.2254 16.3781 99.2515C16.852 99.4113 16.0217 99.4689 16.8049 99.6156C16.3819 99.6784 16.2997 99.592 16.0569 99.7596C16.0412 99.8276 16.4328 99.901 16.515 99.9875L16.1234 99.9141L16.4994 100.056L16.092 100.05L16.1743 100.137C16.1743 100.137 16.3858 100.105 16.4837 100.124C16.6638 100.228 16.2252 100.359 16.0293 100.323C16.1116 100.409 16.1938 100.495 16.276 100.582C16.1781 100.564 16.0959 100.477 15.998 100.459C16.3583 100.668 15.5906 100.454 15.9666 100.595C16.0645 100.613 16.1624 100.632 16.2603 100.65C16.0488 100.681 16.0175 100.818 16.0997 100.904L15.806 100.849C15.7589 101.053 15.9234 101.226 15.8764 101.43C15.99 101.381 16.3973 101.386 16.4795 101.472L16.0722 101.467C16.268 101.504 16.1858 101.417 16.4795 101.472C16.4638 101.54 16.0722 101.467 15.8764 101.43L16.0565 101.535C15.9586 101.517 15.8607 101.498 15.7628 101.48C15.9586 101.517 15.422 101.629 15.8137 101.703L15.7157 101.684C15.7666 101.907 15.8489 101.993 15.9154 102.148C16.2248 102.135 16.2091 102.203 16.5029 102.258C16.3736 102.376 16.1464 102.475 16.213 102.63C16.3931 102.735 16.5067 102.685 16.7025 102.722C16.3931 102.735 16.4597 102.889 16.2638 102.853C16.3304 103.007 16.4126 103.093 16.675 103.285C16.7886 103.235 16.7886 103.235 16.8865 103.253C16.9844 103.272 16.7572 103.371 16.6593 103.353C17.1332 103.513 15.9973 104.01 16.6827 104.138L17.0586 104.28C17.043 104.348 16.8628 104.243 16.6356 104.343C17.2231 104.453 16.7531 104.72 17.1447 104.793C16.4475 105.16 17.5402 105.294 17.1524 105.647L17.3796 105.548C17.5911 105.516 17.3639 105.616 17.3482 105.684C17.4618 105.634 17.4775 105.566 17.5754 105.584C18.1158 105.899 18.0726 106.53 18.566 107.048C18.7304 107.221 19.3925 106.564 19.2984 106.972L18.9576 107.122C19.6744 107.114 19.8583 107.646 20.5751 107.638C20.4615 107.688 20.4458 107.756 20.4458 107.756C20.3988 107.96 20.8218 107.897 20.951 107.779C21.0489 107.798 20.9197 107.915 20.904 107.984C20.9705 108.138 21.3427 107.853 21.2956 108.057C21.2956 108.057 21.2799 108.125 21.182 108.107C21.2956 108.057 21.5737 108.18 21.5228 107.957C21.6873 108.13 21.9458 107.895 22.1103 108.068C22.173 107.795 22.4862 108.209 22.4667 107.85C22.4862 108.209 22.9092 108.146 23.0542 107.96C23.0228 108.096 23.2343 108.065 23.203 108.201C23.4145 108.17 23.5437 108.052 23.3793 107.879C23.6416 108.07 23.7709 107.952 23.8023 107.816C23.8336 107.68 23.9472 107.63 24.1939 107.89C24.4838 107.518 24.6444 107.264 24.8051 107.01C25.2476 107.306 24.5465 107.245 24.989 107.541C25.1653 107.219 24.9343 106.892 25.2594 106.811C25.3573 106.829 25.4239 106.984 25.5218 107.002C25.5845 106.73 25.9096 106.649 25.8744 106.358L25.9566 106.444C25.9723 106.376 26.0702 106.395 25.8901 106.29L25.8744 106.358C25.4828 106.284 25.3497 105.975 25.1695 105.871C25.8078 106.203 25.3967 105.771 26.2308 106.14C26.2465 106.072 26.1486 106.054 25.9528 106.017C26.0507 106.036 26.1486 106.054 26.2308 106.14C26.1643 105.986 25.8706 105.931 25.9998 105.813C26.0977 105.831 26.18 105.918 26.2779 105.936C26.0977 105.831 25.9333 105.659 26.0469 105.609C26.1448 105.627 26.2427 105.646 26.227 105.714C26.274 105.509 25.7179 105.263 26.043 105.182C26.5169 105.342 26.2545 105.151 26.6462 105.224L26.5796 105.069L26.3681 105.101C26.3838 105.033 26.1058 104.91 26.235 104.792L26.4152 104.897C26.4308 104.828 26.3486 104.742 26.3486 104.742L26.1214 104.841C25.9413 104.737 25.5183 104.8 25.6476 104.682C25.6476 104.682 25.6632 104.614 25.8747 104.582C25.6789 104.546 25.5967 104.459 25.7103 104.409C25.8082 104.428 26.2155 104.433 26.3134 104.451C25.9218 104.378 26.1646 104.21 25.773 104.137C25.8709 104.155 26.0667 104.192 26.1803 104.142L25.8866 104.087C26.0002 104.037 26.0002 104.037 26.196 104.074C26.2273 103.938 25.6751 104.119 25.82 103.933L25.9179 103.951C26.0472 103.833 25.6712 103.692 25.8162 103.506C26.2392 103.443 25.9963 103.611 26.3214 103.529C26.1726 103.288 25.6988 103.129 25.7301 102.992L25.7144 103.061C25.0799 103.155 25.9573 102.893 25.6636 102.838C25.7615 102.856 25.973 102.825 25.973 102.825C26.0043 102.689 25.7263 102.566 25.4482 102.442L25.6597 102.411C25.789 102.293 25.6089 102.188 25.6245 102.12C25.413 102.152 25.4287 102.084 25.2995 102.202C25.9301 101.68 24.5475 101.919 25.0489 101.515C25.0489 101.515 25.2447 101.552 25.1625 101.466L24.8845 101.342C24.6573 101.442 24.7709 101.392 24.6416 101.51C24.528 101.56 24.3322 101.523 24.3322 101.523C24.5437 101.492 24.673 101.374 24.8022 101.256C24.6886 101.306 24.6886 101.306 24.5751 101.356C24.8493 101.052 24.1207 101.555 24.2813 101.3L24.3949 101.251C24.297 101.232 24.0855 101.264 24.1012 101.196C24.344 101.028 24.3127 101.164 24.4419 101.046C24.3597 100.96 23.9054 101.159 24.0503 100.973C24.1482 100.991 24.1482 100.991 24.2461 101.01C24.5047 100.774 24.3911 100.824 24.4068 100.756L24.4538 100.552L24.4381 100.62C23.7566 100.918 24.1444 100.565 23.6078 100.677C24.0465 100.546 23.835 100.578 24.0778 100.41C24.0935 100.342 24.1092 100.274 24.2228 100.224C23.9956 100.324 24.2698 100.02 23.929 100.169C24.0426 100.119 23.8468 100.083 24.074 99.9832C23.9761 99.9648 23.9447 100.101 23.8311 100.151C23.4904 100.3 23.8273 99.7238 23.2907 99.8364C22.9813 99.8495 22.7384 100.017 22.429 100.03C22.4604 99.8939 22.6876 99.7944 22.6876 99.7944C22.7189 99.6582 22.621 99.6399 22.4095 99.6713C22.5231 99.6216 22.5388 99.5535 22.5545 99.4854C22.4566 99.467 22.2959 99.721 22.3273 99.5849C22.4409 99.5351 22.5701 99.4173 22.6837 99.3675C22.5701 99.4173 22.3586 99.4487 22.2451 99.4984C22.2764 99.3622 22.4879 99.3308 22.6015 99.2811C22.5036 99.2628 22.2921 99.2942 22.0492 99.4617L22.0336 99.5298L22.1785 99.3439C22.4057 99.2444 22.2451 99.4984 22.2294 99.5665L22.1315 99.5482C21.8259 99.9881 22.4252 99.6032 22.5074 99.6896L22.2489 99.9253L22.5897 99.7761C22.574 99.8442 22.429 100.03 22.3311 100.012C22.2841 100.216 22.4447 99.962 22.3977 100.166L22.382 100.234L22.4956 100.185C22.382 100.234 22.3506 100.371 22.2684 100.284C22.2214 100.488 22.6914 100.221 22.5465 100.407C22.8402 100.462 22.7893 100.24 23.1301 100.09L22.6952 100.648L22.9381 100.481C22.9381 100.481 22.9224 100.549 22.9067 100.617C23.1339 100.517 23.0203 100.567 23.1496 100.449C23.0047 100.635 23.5412 100.523 23.1691 100.808C23.3963 100.709 23.2005 100.672 23.412 100.64C23.0242 100.994 23.6078 100.677 23.4628 100.863C23.22 101.031 23.2513 100.894 23.1064 101.08C23.5608 100.881 23.1729 101.235 23.2709 101.253C23.6273 101.036 23.4667 101.29 23.6782 101.259C23.5646 101.308 23.7291 101.481 23.5841 101.667L23.4705 101.717C23.8113 101.568 23.8935 101.654 23.9914 101.672C23.7642 101.772 23.6507 101.822 23.5527 101.803L23.635 101.89C23.7486 101.84 23.8465 101.858 23.9444 101.877L23.7172 101.976C23.7994 102.063 24.1245 101.981 24.0775 102.186C24.3047 102.086 24.6768 101.801 24.9705 101.856C24.8569 101.906 24.6298 102.005 24.5319 101.987C24.5319 101.987 24.6454 101.937 24.6298 102.005L24.3204 102.018C24.3047 102.086 24.5319 101.987 24.5319 101.987C24.3047 102.086 24.4183 102.036 24.289 102.154L24.3047 102.086C24.289 102.154 24.2733 102.222 24.0461 102.322C24.1597 102.272 24.2733 102.222 24.3712 102.241C24.4535 102.327 24.144 102.34 24.0305 102.39C24.144 102.34 24.1127 102.476 24.3399 102.377C24.3399 102.377 24.2263 102.427 24.1127 102.476C24.3085 102.513 24.2771 102.649 24.6179 102.5C25.0096 102.573 24.6374 102.859 24.8176 102.964L24.704 103.013C24.8998 103.05 24.8684 103.186 25.1622 103.241C25.1622 103.241 24.935 103.341 24.8371 103.322C24.935 103.341 25.0329 103.359 24.9036 103.477C24.7078 103.44 24.6921 103.508 24.7078 103.44C24.5942 103.49 24.4806 103.54 24.7744 103.595C24.465 103.608 24.4493 103.676 24.5472 103.694L24.7587 103.663C24.8566 103.681 24.8409 103.749 24.7273 103.799L24.32 103.794C23.8813 103.925 25.1699 104.095 24.4374 104.171C24.7312 104.226 24.6646 104.071 24.9584 104.126C24.9427 104.194 24.3238 104.221 24.3082 104.289C24.081 104.388 24.8956 104.399 24.7664 104.517C24.8643 104.535 25.2716 104.54 25.4517 104.645C25.4361 104.713 24.8329 104.671 24.7507 104.585C24.7507 104.585 24.7507 104.585 24.8486 104.603C24.7507 104.585 24.7664 104.517 24.5549 104.548L24.6528 104.566C24.5392 104.616 24.5235 104.684 24.3277 104.647C24.4099 104.734 24.5235 104.684 24.6214 104.703C24.4099 104.734 24.5901 104.839 24.4765 104.888C24.5744 104.907 24.6723 104.925 24.6723 104.925C24.4451 105.025 24.9503 105.048 24.9347 105.116C24.7232 105.148 24.4608 104.957 24.6253 105.129C24.4138 105.161 24.2336 105.056 24.1357 105.038C24.4138 105.161 23.9085 105.137 23.8106 105.119L23.7284 105.032C23.8263 105.051 23.8106 105.119 23.8106 105.119L24.1043 105.174C24.0064 105.156 23.9908 105.224 23.9085 105.137C24.0887 105.242 24.3981 105.229 24.5625 105.402C24.4646 105.383 24.6291 105.556 24.351 105.433C24.5625 105.402 23.9751 105.292 23.9908 105.224L23.9751 105.292L23.8772 105.273C23.4855 105.2 24.2531 105.415 24.2218 105.551C24.0416 105.446 23.8458 105.41 23.8301 105.478C23.8301 105.478 24.1082 105.601 24.2883 105.706C24.0925 105.669 24.3706 105.792 24.3549 105.86L24.4528 105.878C24.6329 105.983 24.6329 105.983 24.6172 106.051C24.4371 105.946 24.535 105.965 24.4371 105.946C24.6995 106.138 24.0455 105.873 24.2099 106.046C24.0141 106.009 23.8496 105.836 23.7517 105.818C23.9162 105.991 23.458 105.763 23.6381 105.868C23.9162 105.991 23.8183 105.973 23.9827 106.145C23.9984 106.077 23.9162 105.991 23.9319 105.923C24.0141 106.009 24.0963 106.096 24.1786 106.182C24.1786 106.182 24.112 106.028 24.2099 106.046C24.3744 106.219 24.2922 106.132 24.4723 106.237C24.0963 106.096 24.5232 106.46 24.2451 106.337L23.7204 105.954C23.4423 105.831 23.8535 106.263 23.5597 106.208L23.6577 106.227C23.8221 106.399 23.642 106.295 23.6263 106.363C23.4618 106.19 23.3639 106.172 23.2817 106.085C23.3639 106.172 23.1681 106.135 23.4148 106.394C23.3326 106.308 23.2347 106.289 23.1524 106.203C22.9723 106.098 23.3521 106.667 23.1563 106.63C23.0897 106.475 23.0232 106.321 22.9566 106.166C22.9566 106.166 22.8587 106.148 22.9409 106.234C22.8587 106.148 22.9918 106.457 22.8117 106.352C22.796 106.42 22.8625 106.575 22.8625 106.575L22.8782 106.507C22.8625 106.575 22.8469 106.643 22.9134 106.797C22.7646 106.556 22.6667 106.538 22.5531 106.588C22.4552 106.57 22.3416 106.619 22.2907 106.397C22.1772 106.446 22.0636 106.496 21.9657 106.478C21.9813 106.41 21.9813 106.41 21.9813 106.41C21.9148 106.255 21.7737 106.868 21.6249 106.627C21.6876 106.355 21.7542 106.509 21.7698 106.441C21.9932 105.915 21.5583 106.473 21.6367 106.132C21.6838 105.928 21.3939 106.3 21.2294 106.127L21.2451 106.059C21.0022 106.226 20.7907 106.258 20.5949 106.221C20.8378 106.053 20.7085 106.171 20.8535 105.985C20.7555 105.967 20.5792 106.289 20.3834 106.252C20.4148 106.116 20.4304 106.048 20.6733 105.881L20.7712 105.899C21.0298 105.663 20.689 105.812 20.689 105.812L20.8183 105.695C20.6224 105.658 20.3639 105.894 20.1994 105.721L20.0858 105.77C19.6472 105.901 20.2308 105.585 19.89 105.734L20.2465 105.516C20.1329 105.566 19.7256 105.561 19.6277 105.543C19.9527 105.461 20.1642 105.43 20.3757 105.399C20.3757 105.399 20.1956 105.294 19.9841 105.325C20.082 105.344 20.0977 105.275 20.082 105.344C19.7569 105.425 19.5454 105.456 19.4632 105.37C20.2426 105.09 19.428 105.079 20.0116 104.762C19.6043 104.757 19.8785 104.453 19.7141 104.28C19.1461 104.529 19.6318 104.194 18.966 104.424C18.8681 104.406 18.8837 104.338 18.9816 104.356L19.3381 104.139C19.5496 104.107 19.5339 104.175 19.6475 104.126C19.6632 104.058 19.8747 104.026 20.1019 103.927C19.8747 104.026 19.7768 104.008 19.8081 103.872L19.5653 104.039C19.1736 103.966 20.1175 103.859 19.628 103.767L19.8395 103.736C19.6437 103.699 19.6907 103.495 19.1698 103.539C19.2834 103.489 19.397 103.44 19.4792 103.526C19.5106 103.39 18.7273 103.243 19.0837 103.026L19.2795 103.062C19.1816 103.044 18.9858 103.007 19.0994 102.958C19.1973 102.976 19.2952 102.994 19.3109 102.926C19.213 102.908 19.0172 102.871 19.0329 102.803L19.2287 102.84C19.4715 102.672 18.6726 102.594 18.5081 102.421C19.0133 102.444 19.1583 102.258 19.2719 102.209L19.3698 102.227C19.4168 102.023 18.943 101.863 18.6806 101.672C19.2172 101.559 18.9705 101.3 19.2133 101.132C19.1154 101.114 18.8217 101.059 18.7238 101.041C18.8374 100.991 18.3478 100.899 18.853 100.923C19.3583 100.946 19.1781 100.842 19.1938 100.773L18.6064 100.663C19.5346 100.624 18.3245 100.113 19.2213 100.21C19.0412 100.106 19.0412 100.106 18.959 100.019L19.2527 100.074C19.382 99.9564 19.382 99.9564 19.429 99.7521L19.6091 99.8569C19.6248 99.7888 18.6614 99.5373 18.6771 99.4692L19.1666 99.5609C19.198 99.4247 19.7189 99.3803 19.2607 99.1524C19.3586 99.1707 19.4565 99.1891 19.4408 99.2571C19.4565 99.1891 19.8795 99.1262 19.2098 98.9297C19.5858 99.0712 19.3391 98.8119 19.1746 98.639L19.4527 98.7622C19.0924 98.5526 18.9945 98.5343 18.9279 98.3797C19.0259 98.3981 19.2217 98.4348 19.1081 98.4845C19.3196 98.4531 18.8457 98.2933 19.0415 98.33L19.2217 98.4348C19.3353 98.385 19.1394 98.3483 18.9593 98.2436C18.8771 98.1571 19.0886 98.1257 19.3666 98.2488C19.1865 98.1441 19.0063 98.0393 19.1043 98.0576C19.2022 98.076 19.2844 98.1624 19.2844 98.1624C19.5938 98.1494 19.0534 97.835 19.445 97.9084C19.5429 97.9267 19.6252 98.0132 19.6252 98.0132C19.5116 98.0629 19.4959 98.131 19.4959 98.131C19.7739 98.2541 19.8875 98.2044 20.1342 98.4637C19.9698 98.2908 19.6252 98.0132 19.821 98.0499L19.9189 98.0682C19.9189 98.0682 19.9189 98.0682 19.9346 98.0001C20.0325 98.0185 20.0325 98.0185 20.0325 98.0185C20.2126 98.1232 20.2283 98.0552 20.244 97.9871C19.9816 97.7959 20.0795 97.8142 19.8015 97.6911C19.8015 97.6911 19.8015 97.6911 19.7858 97.7592L19.7701 97.8272C19.6879 97.7408 19.6056 97.6544 19.8015 97.6911C19.6213 97.5863 19.4569 97.4134 19.4569 97.4134C19.9151 97.6413 20.1109 97.678 20.3889 97.8011C20.3224 97.6466 20.5339 97.6152 20.1227 97.183C20.1384 97.1149 20.3029 97.2878 20.4008 97.3062C20.3851 97.3743 20.3851 97.3742 20.483 97.3926C20.4165 97.2381 20.6123 97.2748 20.3656 97.0155C20.5457 97.1202 20.5144 97.2564 20.628 97.2067L20.7102 97.2931C20.9726 97.4843 20.9217 97.2617 20.9687 97.0574C20.9178 96.8348 21.0628 96.6489 21.2938 96.9763L21.2116 96.8899C21.4896 97.013 21.6189 96.8951 21.8304 96.8637C22.0419 96.8323 22.2534 96.8009 22.4022 97.0419C22.4844 97.1283 22.5315 96.9241 22.6607 96.8062L22.598 97.0786C22.6137 97.0105 22.743 96.8927 22.8565 96.8429C23.0994 96.6753 22.8133 97.4741 23.2834 97.207L23.3147 97.0708C23.397 97.1572 23.6241 97.0578 23.4792 97.2437C23.4792 97.2437 23.6085 97.1259 23.5928 97.1939L23.4635 97.3118L23.7886 97.2306C23.8552 97.3852 23.3851 97.6522 23.5653 97.757C23.6632 97.7754 24.0196 97.558 24.051 97.4218C24.051 97.4218 24.0667 97.3537 24.098 97.2176L24.2116 97.1678C24.4858 96.8641 24.8579 96.5787 24.8384 96.2199L24.4977 96.3691L24.5447 96.1648L24.6426 96.1832C24.6896 95.9789 24.5604 96.0967 24.4468 96.1465C24.4625 96.0784 24.4781 96.0103 24.4938 95.9422L24.1374 96.1595C24.1687 96.0234 24.3959 95.9239 24.3137 95.8374C24.0865 95.9369 24.1374 96.1595 24.0238 96.2093C24.0708 96.005 24.2001 95.8872 23.9729 95.9867C23.9886 95.9186 24.1022 95.8688 24.1179 95.8007C24.0043 95.8505 23.8241 95.7457 23.6792 95.9316C23.7262 95.7274 23.3855 95.8766 23.5618 95.5545C23.4482 95.6042 23.3032 95.7902 23.2053 95.7718C23.4952 95.4 22.9273 95.6487 23.1192 95.2585C22.845 95.5623 22.5983 95.303 22.3398 95.5386C22.3398 95.5386 22.3555 95.4705 22.4534 95.4889C22.3555 95.4705 22.2889 95.316 22.2067 95.2296C22.1283 95.57 21.9168 95.6014 21.8698 95.8057C21.7367 95.4967 21.9638 95.3972 21.9286 95.1065C21.9638 95.3972 21.6701 95.3421 21.721 95.5647C21.5565 95.3919 21.6388 95.4783 21.5056 95.1693C21.5095 95.5961 21.3921 95.219 21.3293 95.4914C21.1649 95.3185 21.2119 95.1142 21.0826 95.2321C20.8398 95.3996 20.9847 95.2137 20.9847 95.2137ZM17.9098 97.4787C17.9098 97.4787 17.9255 97.4106 18.0234 97.429C18.1213 97.4473 18.2035 97.5337 18.2035 97.5337C18.1056 97.5154 18.0077 97.497 17.9098 97.4787ZM20.0834 98.2411C20.1813 98.2594 20.0834 98.2411 20.0834 98.2411C19.9854 98.2227 19.9854 98.2227 20.0011 98.1546C20.099 98.173 20.0834 98.2411 20.0834 98.2411Z" fill="#EC422B"/>
<path d="M23.4278 100.573L23.3141 100.622L23.4278 100.573Z" fill="#EC422B"/>
<path d="M25.5498 104.664C25.6478 104.682 25.6478 104.682 25.7299 104.769C25.7458 104.7 25.7458 104.7 25.5498 104.664Z" fill="#EC422B"/>
<path d="M25.7143 104.836C25.8279 104.786 25.73 104.768 25.73 104.768C25.632 104.75 25.6163 104.818 25.7143 104.836Z" fill="#EC422B"/>
<path d="M21.4461 99.4203C21.5441 99.4387 21.56 99.3696 21.4461 99.4203V99.4203Z" fill="#EC422B"/>
<path d="M22.1826 99.7712L22.2961 99.7215C22.1826 99.7712 22.1826 99.7712 22.1826 99.7712Z" fill="#EC422B"/>
<path d="M22.3624 99.8754C22.3624 99.8754 22.4095 99.6712 22.3115 99.6528L22.2958 99.7209C22.4095 99.6712 22.2331 99.9933 22.3624 99.8754Z" fill="#EC422B"/>
<path d="M22.0962 101.033L22.0296 100.879C22.0139 100.947 21.8846 101.065 21.7867 101.047C21.8062 101.405 22.0139 100.947 22.0962 101.033Z" fill="#EC422B"/>
<path d="M22.3272 101.36C22.2293 101.342 22.1979 101.478 22.1 101.46C22.2958 101.497 22.2958 101.497 22.3272 101.36Z" fill="#EC422B"/>
<path d="M24.0894 103.466L23.78 103.479C23.8622 103.566 23.8779 103.498 24.0894 103.466Z" fill="#EC422B"/>
<path d="M25.738 103.846L25.9494 103.815L25.6401 103.828L25.738 103.846Z" fill="#EC422B"/>
<path d="M23.7209 104.179L23.623 104.16L23.7052 104.247L23.7209 104.179Z" fill="#EC422B"/>
<path d="M21.8991 106.323L21.9343 106.614C21.95 106.546 22.0127 106.274 21.8991 106.323Z" fill="#EC422B"/>
<path d="M20.168 105.857C20.2972 105.739 20.3129 105.671 20.1993 105.721C20.0858 105.771 20.0701 105.839 20.168 105.857Z" fill="#EC422B"/>
<path d="M18.8376 100.991L18.9355 101.009L18.8533 100.923L18.8376 100.991Z" fill="#EC422B"/>
<path d="M75.7043 119.632C75.7907 119.664 75.9445 119.602 75.9318 119.518L75.5989 119.473L75.7043 119.632Z" fill="#EC422B"/>
<path d="M76.237 118.838C76.0578 118.731 75.7986 118.634 75.4846 118.716C75.824 118.803 75.6702 118.864 76.0896 118.942C76.1086 119.068 76.0349 119.12 75.8748 119.139C75.9612 119.172 75.8201 119.317 76.0667 119.33C76.2878 119.174 76.2624 119.006 76.0705 118.815C76.0705 118.815 76.157 118.848 76.237 118.838Z" fill="#EC422B"/>
<path d="M78.301 100.625C78.301 100.625 78.3075 100.668 78.2274 100.677C78.2274 100.677 78.3075 100.668 78.301 100.625Z" fill="#EC422B"/>
<path d="M76.2761 108.289L76.4109 108.101C76.3308 108.111 76.3435 108.195 76.2761 108.289Z" fill="#EC422B"/>
<path d="M75.3005 117.496C75.3069 117.538 75.3933 117.57 75.3933 117.57C75.387 117.528 75.3806 117.486 75.3005 117.496Z" fill="#EC422B"/>
<path d="M76.4617 111.138L76.468 111.18C76.468 111.18 76.5544 111.212 76.6345 111.202L76.4617 111.138Z" fill="#EC422B"/>
<path d="M76.5515 113.356C76.5452 113.314 76.2986 113.301 76.1384 113.321C76.2249 113.353 76.3113 113.385 76.3176 113.427C76.4714 113.366 76.4714 113.366 76.5515 113.356Z" fill="#EC422B"/>
<path d="M76.5534 109.584C76.6335 109.574 76.6335 109.574 76.6335 109.574C76.6271 109.532 76.6271 109.532 76.5534 109.584Z" fill="#EC422B"/>
<path d="M58.2583 82.3838C58.1719 82.3516 58.1719 82.3516 58.0854 82.3193L58.2583 82.3838Z" fill="#EC422B"/>
<path d="M91.0898 79.9821C90.7949 80.1898 90.9526 79.6132 90.5102 79.9247C90.6704 79.905 90.8076 80.2739 91.0898 79.9821Z" fill="#EC422B"/>
<path d="M90.5903 79.915C90.5167 79.9675 90.5167 79.9675 90.5903 79.915V79.915Z" fill="#EC422B"/>
<path d="M79.7786 97.4435L79.8459 97.3495C79.8523 97.3916 79.7722 97.4015 79.7786 97.4435Z" fill="#EC422B"/>
<path d="M83.3044 92.1677C83.3782 92.1158 83.3782 92.1158 83.4456 92.0218C83.4456 92.0218 83.4456 92.0218 83.3655 92.0317C83.3718 92.0738 83.3782 92.1158 83.3044 92.1677Z" fill="#EC422B"/>
<path d="M84.5718 90.2973C84.5718 90.2973 84.4917 90.3071 84.5718 90.2973C84.498 90.3492 84.498 90.3492 84.5044 90.3913L84.5718 90.2973Z" fill="#EC422B"/>
<path d="M65.49 74.638C65.4099 74.6478 65.2498 74.6675 65.1633 74.6353C65.4099 74.6478 65.1277 74.9396 65.49 74.638Z" fill="#EC422B"/>
<path d="M75.4611 117.476C75.381 117.486 75.3745 117.443 75.3745 117.443L75.381 117.486C75.381 117.486 75.381 117.486 75.4611 117.476Z" fill="#EC422B"/>
<path d="M81.3809 91.8467L81.583 91.5647C81.5093 91.6167 81.4482 91.7527 81.3809 91.8467Z" fill="#EC422B"/>
<path d="M86.3453 69.0783L86.2588 69.0454C86.2652 69.0881 86.2652 69.0881 86.3453 69.0783Z" fill="#EC422B"/>
<path d="M82.1826 90.6761C82.3364 90.6144 82.4102 90.5625 82.4839 90.5106L82.4775 90.4685L82.1826 90.6761Z" fill="#EC422B"/>
<path d="M63.7359 76.5251C64.0245 76.2754 63.5441 76.3344 63.4449 76.2179C63.6407 75.8939 63.8389 76.1267 64.0728 76.0551C64.2076 75.8671 64.0894 75.6245 64.2305 75.4786C64.3106 75.4687 64.3106 75.4688 64.397 75.501C64.3589 75.2485 65.1215 74.8977 65.0771 74.6031C65.1572 74.5933 65.1572 74.5933 65.1572 74.5933C64.9907 74.5709 64.8242 74.5485 64.7378 74.5162C64.8852 74.4124 64.8598 74.2441 65.1064 74.2567C65.0326 74.3086 65.039 74.3506 65.1254 74.3829L65.1864 74.2468C65.5932 74.2398 65.0517 74.4348 65.2245 74.4993C65.433 74.2594 65.5424 73.9031 65.93 73.7698C66.263 73.8146 65.5067 74.2075 65.9745 74.0644L65.5194 74.2917C66.1664 74.2551 65.2983 74.4474 65.9452 74.4108C66.4676 74.0895 66.3685 73.9731 66.8973 73.6939C66.8782 73.5677 66.6444 73.6392 66.6253 73.513C67.1096 72.9392 67.7527 73.4174 68.0031 72.9152C67.9777 72.7469 67.7858 72.5561 68.34 72.4452L68.4582 72.6879C68.987 72.4087 68.4074 72.3512 69.1027 72.0944C69.1153 72.1786 68.734 72.354 68.8942 72.3343C69.4483 72.2235 69.0226 72.1043 69.3302 71.9808L69.5894 72.0775C69.8907 71.912 70.1119 71.7562 70.4068 71.5486C70.708 71.383 71.0029 71.1754 71.3041 71.0098C71.3105 71.0519 71.2431 71.1459 71.4833 71.1164C72.3134 70.6716 73.409 70.3656 74.4373 70.1537L74.6457 69.9138C74.7258 69.904 74.8122 69.9362 74.8186 69.9783C75.2189 69.9291 74.8059 69.8941 74.8733 69.8001C75.1071 69.7286 75.1999 69.8029 75.1262 69.8548C75.735 69.5658 76.8917 69.1237 77.7115 69.1517L77.5577 69.2134C78.1182 69.1446 78.0674 68.8079 78.6469 68.8654L78.5732 68.9173C79.7743 68.7698 81.203 68.5087 82.0545 68.7471C82.263 68.5072 83.2136 68.8619 83.4094 68.5379C84.008 68.7216 83.8479 68.7412 84.613 68.9473C84.8659 69.002 85.0807 68.8042 85.4074 68.8069L85.2663 68.9528L85.8204 68.8419L85.8522 69.0524L86.1788 69.0551C86.0924 69.0229 85.9996 68.9485 86.0733 68.8966C86.5665 68.9218 86.9376 69.2191 86.8702 69.3131C87.2032 69.358 87.5362 69.4028 87.8755 69.4897C87.8018 69.5417 87.6353 69.5192 87.4688 69.4968C88.1221 69.5023 87.3277 69.6427 87.9073 69.7002C87.9009 69.6581 88.0611 69.6384 88.1348 69.5865C88.2403 69.745 88.6724 69.9063 88.938 70.0451L88.7041 70.1167C88.7969 70.191 88.8897 70.2653 89.0625 70.3298C89.1553 70.4042 89.2481 70.4785 89.3408 70.5528C89.6065 70.6917 89.7183 70.8923 89.9165 71.1251C89.8911 70.9568 90.2051 70.8754 90.3906 71.024L90.1631 71.1377C90.4097 71.1503 90.1377 70.9693 90.5635 71.0885C90.5889 71.2569 90.2686 71.2962 90.1758 71.2218C90.2686 71.2962 90.2749 71.3383 90.3677 71.4126C90.294 71.4645 90.2012 71.3902 90.1211 71.4C90.374 71.4547 90.0181 71.7984 90.3511 71.8432L90.271 71.8531C90.421 72.3061 90.6129 72.4969 90.5963 72.9275C90.8365 72.8981 90.8619 73.0664 91.0411 73.173C90.9254 73.4872 90.736 73.8534 90.7067 74.1998C90.8249 74.4425 90.9596 74.2545 91.0587 74.3709C90.8185 74.4004 90.7956 74.789 90.6037 74.5982C90.5871 75.0289 90.5261 75.165 90.615 75.7541C90.7688 75.6924 90.7561 75.6082 90.8425 75.6405C90.8615 75.7667 90.7141 75.8705 90.5476 75.8481L90.5412 75.806C90.6721 76.1329 90.3225 76.5187 90.0467 76.8526C89.7708 77.1865 89.5013 77.5624 89.6195 77.8051L89.6132 77.763C89.6386 77.9313 89.6703 78.1417 89.6156 78.3199C89.4872 78.55 89.5102 78.1614 89.2953 78.3592C89.4643 78.9385 88.8618 79.2697 88.8579 79.7845C88.0089 80.103 88.2413 81.1032 87.5778 81.5704L87.738 81.5507C87.8434 81.7092 87.5969 81.6966 87.4494 81.8005C87.6096 81.7808 87.6769 81.6868 87.6896 81.771C87.2879 82.8918 86.1527 84.017 85.3379 85.1029C85.0747 85.5209 86.0356 85.403 85.292 85.88L85.1001 85.6892C84.9068 86.5702 84.0475 87.3615 83.7678 88.2102C83.7614 88.1681 83.675 88.1359 83.6623 88.0517C83.3547 88.1752 83.2644 88.6577 83.4309 88.6802C83.3699 88.8162 83.2708 88.6998 83.117 88.7616C82.8958 88.9173 83.1067 89.2343 82.8665 89.2638C82.7864 89.2736 82.8602 89.2217 82.8538 89.1796C82.8729 89.3059 82.4432 89.7015 82.8372 89.6103C82.555 89.9021 82.5194 90.2065 82.2245 90.4141C82.4164 90.6049 81.7275 90.9038 82.0732 91.0328C81.6538 90.9557 81.4097 91.5 81.4478 91.7525C81.355 91.6782 81.2266 91.9082 81.0474 91.8016C80.919 92.0317 80.8643 92.2099 81.1109 92.2225C80.3483 92.5733 80.9176 93.1034 80.2033 93.234C79.9782 93.9045 79.7468 94.533 79.429 95.1292C79.0096 95.0521 79.8205 94.4811 79.4075 94.4461C79.1697 95.0325 79.3069 95.4014 78.8963 95.9233C78.7552 96.0692 78.7972 95.8068 78.7108 95.7746C78.5531 96.3512 77.976 96.8506 77.8921 97.3753C77.8921 97.3753 77.8794 97.2911 77.873 97.249C77.8056 97.343 77.6645 97.4889 77.8247 97.4693L77.812 97.3851C78.1997 97.2518 78.1221 97.8185 78.2949 97.883C77.8564 97.6797 77.878 98.3628 77.3404 98.0431C77.3531 98.1272 77.3658 98.2114 77.5259 98.1917C77.4585 98.2857 77.3785 98.2955 77.2793 98.1791C77.17 98.5354 77.4776 98.412 77.2818 98.736C77.2017 98.7459 77.189 98.6617 77.1026 98.6294C77.2081 98.7879 77.2398 98.9983 77.0314 99.2382C76.9449 99.206 76.8712 99.2579 76.9386 99.1639C76.6881 99.6661 76.9855 100.015 76.655 100.527C76.3029 100.356 76.4338 100.683 76.1135 100.722L76.2444 101.049L76.4719 100.936C76.3435 101.166 76.5418 101.399 76.407 101.587L76.2952 101.386L76.2112 101.911L76.4197 101.671C76.5379 101.913 76.9065 101.654 76.7107 101.978C76.698 101.894 76.6624 102.198 76.3611 102.364C76.4603 102.48 76.5594 102.597 76.3446 102.794C76.1908 102.856 75.9315 102.759 75.8578 102.811C76.117 102.908 75.7802 103.378 76.1259 103.507C76.0394 103.475 75.8729 103.452 75.7929 103.462L76.0521 103.559C75.9848 103.653 75.911 103.705 75.7445 103.682C75.6352 104.039 76.2186 103.581 75.9491 103.957C75.9428 103.915 75.8627 103.925 75.8564 103.883C75.6733 104.291 75.8906 104.65 75.7012 105.016C75.3135 105.15 75.6504 104.68 75.3491 104.845C75.3452 105.36 75.5943 105.93 75.5103 106.454L75.5777 106.36C76.0772 106.428 75.3082 106.736 75.5128 107.011C75.5001 106.927 75.2599 106.957 75.2599 106.957C75.1505 107.313 75.2877 107.682 75.444 108.177L75.3512 108.103C75.2228 108.333 75.2736 108.669 75.1452 108.899C75.238 108.974 75.257 109.1 75.4045 108.996C74.6189 109.735 75.7615 110.281 75.1234 110.917C75.1107 110.832 75.0179 110.758 75.0242 110.8L75.1805 111.295C75.4144 111.224 75.3343 111.234 75.4754 111.088C75.6482 111.152 75.7474 111.269 75.6863 111.405C75.5682 111.162 75.366 111.444 75.2186 111.548C75.2987 111.538 75.3851 111.57 75.4588 111.518C75.0965 111.82 75.8655 111.511 75.6825 111.919L75.596 111.887C75.6952 112.004 75.7943 112.12 75.8197 112.288C75.5858 112.36 75.7142 112.13 75.474 112.159C75.5057 112.37 75.9379 112.531 75.723 112.729C75.6303 112.654 75.6112 112.528 75.5985 112.444C75.31 112.694 75.39 112.684 75.3354 112.862L75.226 113.218L75.2934 113.124C75.9784 113.34 75.456 113.662 75.9072 113.949C75.456 113.662 75.6606 113.937 75.3339 113.934C75.2666 114.028 75.2055 114.164 75.1191 114.132C75.3847 114.27 74.917 114.414 75.2754 114.627C75.1953 114.637 75.3008 114.795 75.0542 114.783C75.166 114.983 75.208 114.721 75.3682 114.701C75.7393 114.998 75.002 115.518 75.4786 115.973C75.7022 116.375 76.0352 116.419 76.1724 116.788C76.0313 116.934 75.8331 116.701 75.8331 116.701C75.7047 116.931 75.7301 117.1 75.9156 117.248C75.8292 117.216 75.7555 117.268 75.6818 117.32C75.7072 117.488 76.0211 117.407 75.8864 117.595C75.7999 117.563 75.6334 117.54 75.4606 117.476C75.5661 117.634 75.758 117.825 75.8634 117.984C75.7096 118.045 75.6042 117.887 75.5177 117.855C75.6296 118.055 75.7604 118.382 76.0133 118.437L76.0744 118.301C76.0871 118.385 75.8405 118.372 75.8341 118.33C75.6486 118.181 75.8761 118.068 75.9562 118.058L76.0553 118.174C76.5968 117.979 75.8927 117.637 75.9347 117.375L76.3541 117.452L75.9894 117.197C76.0631 117.145 76.2969 117.073 76.3961 117.19C76.6045 116.95 76.2105 117.041 76.4253 116.843L76.5054 116.833L76.3936 116.633C76.48 116.665 76.7075 116.551 76.6465 116.687C76.8359 116.321 76.3238 116.17 76.625 116.004L76.6314 116.046C76.4814 115.593 76.3047 116.043 75.9273 115.704L76.6162 115.405L76.2895 115.402C76.2832 115.36 76.3506 115.266 76.4306 115.256C76.2451 115.108 76.2768 115.318 76.0976 115.212C76.3862 114.962 75.916 114.548 76.3964 114.489C76.1435 114.435 76.268 114.719 76.0698 114.486C76.5439 114.385 75.9453 114.202 76.1537 113.962C76.4067 114.016 76.2719 114.204 76.4867 114.007C76.0673 113.93 76.5834 113.566 76.4779 113.408C76.1576 113.447 76.3407 113.039 76.2098 112.712C76.2962 112.744 76.3675 112.135 76.4832 111.821L76.5633 111.811C76.2303 111.766 76.2723 111.504 76.2342 111.252C76.4744 111.222 76.5608 111.254 76.6599 111.371L76.6282 111.16C76.5418 111.128 76.449 111.054 76.4299 110.928L76.6765 110.94C76.6384 110.688 76.3537 110.423 76.5432 110.056C76.2966 110.044 75.8606 110.397 75.7234 110.028C75.8835 110.009 76.1237 109.979 76.1364 110.064C76.1301 110.021 76.0373 109.947 76.1111 109.895L76.2966 110.044C76.4313 109.856 76.1237 109.979 76.1047 109.853C76.2648 109.833 76.2521 109.749 76.4186 109.772C76.425 109.814 76.3513 109.866 76.444 109.94C76.5051 109.804 76.5597 109.626 76.7135 109.564C76.6335 109.574 76.4733 109.594 76.4543 109.467C76.4162 109.215 76.6818 109.354 76.8229 109.208C76.65 109.143 76.8649 108.945 76.5446 108.985C76.5319 108.901 76.692 108.881 76.7657 108.829C76.6666 108.713 76.7506 108.188 76.4493 108.353L76.4557 108.396C76.4557 108.396 76.4557 108.396 76.4493 108.353C76.2193 107.91 76.6299 107.388 76.5601 106.925L76.6402 106.916C76.522 106.673 76.6314 106.317 76.4395 106.126C76.4268 106.042 76.6543 105.928 76.7407 105.96C76.709 105.75 76.6225 105.718 76.8247 105.436C76.9365 105.636 76.9785 105.374 76.9365 105.636C77.0585 105.364 77.2123 105.302 77.0077 105.027C77.267 105.124 77.3827 104.81 77.2836 104.694L77.0688 104.891C77.0497 104.765 77.1107 104.629 77.1718 104.493L77.5048 104.538C77.9891 103.964 77.0321 103.567 77.782 103.132C77.5965 102.984 77.5799 103.414 77.3206 103.317C77.4427 103.045 77.8914 102.776 77.9651 102.724C78.2409 102.39 77.5877 102.385 77.7834 102.061C77.6296 102.122 77.3093 102.162 77.345 101.857C77.467 101.585 77.8674 101.536 77.9729 101.694C77.9792 101.736 77.9055 101.788 77.9055 101.788C77.9182 101.873 77.9372 101.999 78.0847 101.895L77.9982 101.863C78.1457 101.759 78.255 101.403 78.4279 101.467C78.3961 101.257 78.2551 101.403 78.194 101.539C78.4699 101.205 78.3644 101.046 78.6402 100.712C78.5665 100.764 78.4127 100.826 78.4 100.742C78.7369 100.272 78.2819 100.499 78.3175 100.195C78.5387 100.039 78.6568 100.282 78.6861 99.9352C78.9009 99.7374 79.0064 99.8959 79.0191 99.98C78.9747 99.6855 79.4234 99.4161 79.5644 99.2702L79.5898 99.4385C79.5771 99.3543 79.6445 99.2603 79.7119 99.1663L79.478 99.2379C79.5454 99.1439 79.6128 99.0499 79.6992 99.0822C79.6001 98.9658 79.2988 99.1313 79.187 98.9307C79.3345 98.8269 79.29 98.5323 79.6167 98.5351C79.2671 98.9209 79.9433 98.5379 79.8276 98.8521C79.8149 98.7679 79.8886 98.716 79.956 98.622C80.0361 98.6122 80.0424 98.6543 80.0424 98.6543C80.5585 98.2909 79.8505 98.4635 80.0336 98.0553C80.2064 98.1198 80.434 98.0062 80.4213 97.922C80.3602 98.0581 80.101 97.9613 80.0756 97.793C80.3641 97.5433 80.1176 97.5307 80.2587 97.3848L80.1176 97.5307C80.0248 97.4563 80.0858 97.3203 80.1405 97.1421C80.3006 97.1224 80.1659 97.3104 80.2396 97.2585C80.0414 97.0257 80.8294 96.8432 80.785 96.5486C81.0125 96.435 81.1116 96.5514 81.259 96.4476C81.2083 96.1109 81.7014 96.1361 81.7307 95.7896C80.9426 95.9721 80.949 96.0142 80.9109 95.7617L80.7469 96.2961L80.6897 95.9174C80.5486 96.0633 80.5804 96.2737 80.513 96.3677C80.4075 96.2092 80.4876 96.1994 80.2537 96.271C80.7151 96.0857 80.3504 95.8305 80.7253 95.613L81.2248 95.6803C81.7409 95.3169 81.3635 94.9775 81.8668 94.5299L81.6457 94.6856C81.4665 94.5791 81.8414 94.3616 81.8224 94.2353C81.9889 94.2578 82.1427 94.196 82.2965 94.1343C82.13 94.1118 82.566 93.7583 82.2266 93.6714L82.608 93.496C82.9575 93.1102 82.3716 93.0106 82.7212 92.6248C82.8267 92.7833 83.0478 92.6276 83.0859 92.8801C83.147 92.744 83.2944 92.6402 83.1279 92.6178C83.2817 92.556 83.1508 92.2292 83.3847 92.1576C83.372 92.0735 83.2055 92.051 83.2665 91.915C83.3466 91.9051 83.353 91.9472 83.353 91.9472C83.2665 91.915 83.4013 91.727 83.0873 91.8084C83.9364 91.4898 83.8221 90.7324 84.511 90.4335C84.6331 90.1613 84.8225 89.7952 84.9509 89.5651C84.9573 89.6072 85.0373 89.5974 84.9573 89.6072C85.3195 89.3055 84.5925 89.3519 85.0222 88.9563C85.4035 88.7809 85.0539 89.1667 85.2014 89.0629C85.8546 89.0684 85.4518 88.5607 85.9933 88.3656L86.006 88.4498C86.3072 88.2842 86.0899 87.9251 86.3658 87.5912C86.3658 87.5912 86.3721 87.6333 86.4522 87.6235C86.334 87.3808 86.5108 86.9305 86.6201 86.5742C86.7993 86.6808 86.6455 86.7425 86.8857 86.713C86.9468 86.5769 86.479 86.7201 86.5947 86.4059C86.7485 86.3441 87.0434 86.1365 87.29 86.1491L87.1679 86.4212C87.5619 86.33 87.3574 86.0551 87.5048 85.9512L87.6713 85.9737C87.8544 85.5654 87.5214 85.5206 87.8583 85.0506L87.6981 85.0703C87.4935 84.7954 87.9994 84.9047 87.8748 84.62L88.2752 84.5708C88.2498 84.4025 88.2664 83.9718 88.3821 83.6576C88.574 83.8483 88.4646 84.2047 88.4964 84.4151C88.5574 84.279 88.8205 83.8609 88.6414 83.7543C88.6541 83.8385 88.6667 83.9227 88.593 83.9746C88.3948 83.7418 88.4368 83.4794 88.6325 83.1554C89.3049 83.2871 89.3253 82.3417 89.9469 82.1368C90.0181 81.528 90.6753 81.0187 90.9804 80.3383C90.2788 80.553 91.0351 80.1601 90.4619 80.1448C90.5166 79.9666 90.5102 79.9245 90.5903 79.9147L91.1737 79.4573C91.4012 79.3437 91.1991 79.6257 91.3593 79.606C91.555 79.2819 91.6669 79.4825 91.9618 79.2749C91.7215 79.3044 91.6961 79.136 91.911 78.9382L91.5423 79.1978C91.4662 78.6928 92.2186 78.8147 92.0623 78.3196L92.1678 78.4781C92.2097 78.2157 92.5212 77.5774 92.1565 77.3222C92.2302 77.2703 92.384 77.2085 92.4031 77.3348C92.5251 77.0626 92.5544 76.7161 92.5036 76.3795C92.5392 76.0751 92.4948 75.7805 92.7032 75.5406L92.8697 75.563C92.8507 75.4368 92.6778 75.3723 92.8189 75.2264C92.899 75.2165 92.9854 75.2488 92.9791 75.2067C92.9727 75.1646 92.7745 74.9318 92.9092 74.7438L93.0884 74.8504C93.3262 74.264 92.875 73.9765 92.7188 73.4813C93.1255 73.4743 93.2959 72.9819 93.3378 72.7196L93.4179 72.7097C93.3964 72.0266 92.9198 71.5708 92.4242 70.9887C92.7611 70.5187 91.8143 69.6491 91.2386 69.0769C91.3378 69.1933 90.931 69.2004 90.7582 69.1359C90.6527 68.9774 89.9994 68.9718 90.3007 68.8063L90.3871 68.8385C90.5155 68.6084 90.0033 68.457 89.6576 68.328L89.2826 68.5455C89.0717 68.2285 88.3867 68.0126 87.7207 67.9229C87.0483 67.7911 86.3951 67.7856 86.2769 67.5429C85.9566 67.5822 85.6236 67.5374 85.3033 67.5767L85.4444 67.4308C84.6983 67.351 84.2789 67.2739 83.3053 67.3077L83.5329 67.194C82.652 67.3021 82.3952 67.7623 81.9085 67.7792L81.7966 67.5786C81.3098 67.5955 80.823 67.6124 80.3299 67.5872C79.8431 67.6041 79.3627 67.6631 78.9013 67.8483C78.8949 67.8063 78.8886 67.7642 79.0487 67.7445C78.5683 67.8035 77.1943 67.8864 77.479 68.1515C77.3735 67.993 76.4444 68.3214 76.0694 68.5389L76.0504 68.4126C75.7618 68.6624 75.7682 68.7045 75.2267 68.8995C75.0666 68.9192 75.0539 68.835 75.214 68.8153C74.7336 68.8743 74.9191 69.023 74.3649 69.1339L74.506 68.988C74.0319 69.089 74.1184 69.1213 73.9836 69.3093C73.7624 69.465 73.1219 69.5437 72.949 69.4792C72.9617 69.5633 72.827 69.7513 72.5067 69.7906C72.4202 69.7584 72.494 69.7065 72.4876 69.6644C71.6996 69.8469 71.5902 70.2032 70.9496 70.2818C70.8632 70.2496 70.8632 70.2496 70.7831 70.2594C71.3183 70.0223 71.786 69.8791 71.786 69.8791C71.6869 69.7627 71.1391 69.9157 71.3412 69.6337C71.0463 69.8413 70.623 70.2791 70.1553 70.4222C70.1553 70.4222 70.0752 70.432 70.0688 70.39L70.0625 70.3479C69.9824 70.3577 69.9087 70.4096 69.835 70.4615C69.6812 70.5233 69.6011 70.5331 69.4473 70.5948C69.2744 70.5303 68.9058 70.7899 68.6719 70.8615C68.8511 70.9681 68.5435 71.0915 68.9439 71.0424C68.8638 71.0522 68.9376 71.0003 69.0914 70.9386L69.1651 70.8867C69.3189 70.8249 69.4663 70.7211 69.7002 70.6495C69.6392 70.7856 69.4917 70.8894 69.1778 70.9708C69.1968 71.0971 69.1358 71.2331 69.1422 71.2752C68.649 71.25 67.9474 71.4648 67.7746 71.4003C67.5597 71.5981 67.1848 71.8156 66.8835 71.9811C66.7551 72.2112 66.5403 72.409 66.5657 72.5773C66.4182 72.6812 66.2517 72.6587 66.1717 72.6686C66.239 72.5746 66.3128 72.5227 66.3064 72.4806C66.0979 72.7205 65.4217 73.1035 65.6073 73.2522C65.1459 73.4374 65.5692 72.9997 65.1332 73.3533L65.1205 73.2691C64.3451 73.5357 64.1557 73.9019 63.9663 74.268C63.7769 74.6342 63.501 74.9681 62.7384 75.3189C62.8121 75.267 62.8922 75.2571 62.9722 75.2473C61.6325 76.0976 61.2371 77.2605 59.9901 78.1851C59.7016 78.4348 59.8744 78.4993 59.9062 78.7097L59.5859 78.7491L59.7167 79.0759C59.6201 79.5164 58.5918 79.7283 58.6807 80.3175L58.9146 80.2459C58.7798 80.4339 58.6832 80.8744 58.5103 80.8099C58.5167 80.852 58.6832 80.8744 58.5294 80.9361L58.3629 80.9137C58.3883 81.082 58.4137 81.2504 58.3527 81.3864C58.0832 81.7624 57.7668 81.2869 57.5226 81.8312C57.4743 82.0515 57.6916 82.4105 57.8454 82.3488C57.9128 82.2548 58.0602 82.151 58.1403 82.1411L58.1657 82.3095C58.5788 82.3445 59.0109 82.5057 59.4342 82.068L59.3033 81.7412L59.5372 81.6696L59.4151 81.9418C59.6427 81.8281 59.5435 81.7117 59.4444 81.5953C59.6046 81.5756 59.6783 81.5237 59.752 81.4718C59.6529 81.3554 59.5601 81.2811 59.461 81.1646C59.6211 81.145 59.7266 81.3035 59.9414 81.1057C59.836 80.9472 59.4673 81.2067 59.5157 80.9865C59.9097 80.8952 60.0825 80.9597 59.9707 80.7592C60.1309 80.7395 60.1372 80.7816 60.1499 80.8658C60.1245 80.6974 60.2529 80.4674 60.0737 80.3608C60.3813 80.2373 60.3242 79.8585 60.7372 79.8936C60.6508 79.8613 60.6127 79.6088 60.6737 79.4727C60.9648 79.7799 61.0043 78.9607 61.5165 79.1121C61.3373 79.0055 61.3919 78.8274 61.5267 78.6394C61.6614 78.4514 61.7962 78.2634 61.7708 78.0951C61.7771 78.1372 61.8636 78.1694 61.7835 78.1792C61.9182 77.9912 62.1585 77.9618 62.3059 77.8579C61.9666 77.771 62.1687 77.489 62.0569 77.2884C62.6047 77.1355 62.3352 77.5114 62.7356 77.4623C62.4826 77.4076 62.7521 77.0316 62.5119 77.0611C62.8259 76.9797 62.6657 76.9994 63.0661 76.9502C62.6403 76.8311 63.1208 76.7721 63.0153 76.6136C63.4767 76.4284 63.4284 76.6486 63.6305 76.3666C63.858 76.253 63.7359 76.5251 63.7359 76.5251ZM71.2978 70.9677C71.2241 71.0196 71.144 71.0295 71.0703 71.0814C71.144 71.0295 71.2241 71.0196 71.2978 70.9677ZM72.1405 70.6071C72.0668 70.659 71.913 70.7208 71.7528 70.7404C71.6664 70.7082 71.6601 70.6661 71.7338 70.6142C71.7465 70.6983 71.9804 70.6268 72.1405 70.6071ZM69.2935 70.6566C69.3672 70.6047 69.4473 70.5948 69.5274 70.585C69.4536 70.6369 69.3736 70.6468 69.2998 70.6987C69.2998 70.6987 69.2198 70.7085 69.2935 70.6566Z" fill="#EC422B"/>
<path d="M69.2514 70.9193C69.1713 70.9292 69.1713 70.9292 69.2514 70.9193C69.1778 70.9718 69.2578 70.962 69.2514 70.9193C69.245 70.8766 69.2514 70.9193 69.2514 70.9193Z" fill="#EC422B"/>
<path d="M75.2556 112.872L75.2009 113.05C75.1946 113.008 75.1882 112.966 75.2556 112.872Z" fill="#EC422B"/>
<path d="M75.0872 113.921C75.1673 113.911 75.1673 113.911 75.1737 113.954L75.0872 113.921Z" fill="#EC422B"/>
<path d="M76.3551 102.322C76.3488 102.279 76.256 102.205 76.2496 102.163C76.1822 102.257 76.1886 102.299 76.3551 102.322Z" fill="#EC422B"/>
<path d="M81.307 91.8992L81.3806 91.8466L81.307 91.8992Z" fill="#EC422B"/>
<path d="M76.3777 101.933C76.3103 102.027 76.323 102.111 76.3294 102.153C76.3167 102.069 76.3904 102.017 76.3777 101.933Z" fill="#EC422B"/>
<path d="M75.3538 118.389L75.3602 118.432C75.3602 118.432 75.3602 118.432 75.4403 118.422L75.3538 118.389Z" fill="#EC422B"/>
<path d="M75.3601 118.431L75.3665 118.474C75.4466 118.464 75.4466 118.464 75.3601 118.431Z" fill="#EC422B"/>
<path d="M75.552 118.622L75.4529 118.506C75.4592 118.548 75.4656 118.59 75.552 118.622Z" fill="#EC422B"/>
<path d="M75.247 116.602C75.2597 116.687 75.0449 116.884 75.144 117.001L75.2241 116.991C75.0576 116.969 75.4262 116.709 75.247 116.602Z" fill="#EC422B"/>
<path d="M76.3611 114.793L76.3318 115.14C76.4056 115.088 76.553 114.984 76.5784 115.152C76.829 114.65 76.3445 115.224 76.3611 114.793Z" fill="#EC422B"/>
<path d="M76.4423 113.712C76.4677 113.88 76.6025 113.692 76.6826 113.683C76.5834 113.566 76.5771 113.524 76.4423 113.712Z" fill="#EC422B"/>
<path d="M76.6545 105.929L76.9012 105.942C76.8819 105.814 76.8211 105.952 76.6545 105.929Z" fill="#EC422B"/>
<path d="M75.6186 104.47L75.4775 104.616L75.6504 104.68L75.6186 104.47Z" fill="#EC422B"/>
<path d="M84.5427 90.6438L84.2224 90.6831C84.2351 90.7673 84.5681 90.8121 84.5427 90.6438Z" fill="#EC422B"/>
<path d="M87.9319 84.9986C88.0857 84.9368 88.3068 84.7811 88.2141 84.7068C88.073 84.8527 87.9255 84.9565 87.9319 84.9986Z" fill="#EC422B"/>
<path d="M88.9243 68.3321L89.1709 68.3447L88.7515 68.2676L88.9243 68.3321Z" fill="#EC422B"/>
<path d="M80.3515 126.648C80.3578 126.69 80.2905 126.784 80.3705 126.774L80.5052 126.586L80.3515 126.648Z" fill="#EC422B"/>
<path d="M80.4885 127.017C80.5559 126.923 80.697 126.777 80.758 126.641C80.6169 126.787 80.6106 126.745 80.4758 126.933C80.3958 126.942 80.4631 126.848 80.4568 126.806C80.4631 126.848 80.3704 126.774 80.303 126.868C80.322 126.994 80.3284 127.036 80.4695 126.89C80.5559 126.923 80.4822 126.975 80.4885 127.017Z" fill="#EC422B"/>
<path d="M84.3867 129.067C84.3066 129.077 84.3066 129.077 84.3867 129.067C84.3066 129.077 84.3131 129.12 84.3867 129.067Z" fill="#EC422B"/>
<path d="M83.5811 128.052L83.5074 128.104C83.5811 128.052 83.5811 128.052 83.5811 128.052Z" fill="#EC422B"/>
<path d="M82.6494 127.823C82.5693 127.833 82.5693 127.833 82.5758 127.876L82.6494 127.823Z" fill="#EC422B"/>
<path d="M82.0571 127.681C82.0571 127.681 82.2046 127.578 82.272 127.484C82.1982 127.536 82.1982 127.536 82.1245 127.588C82.1245 127.588 82.0508 127.639 82.0571 127.681Z" fill="#EC422B"/>
<path d="M82.2114 124.919L82.144 125.013L82.2114 124.919Z" fill="#EC422B"/>
<path d="M80.6003 129.918C80.4529 130.021 80.2864 129.999 80.1453 130.145C80.219 130.093 80.533 130.012 80.6003 129.918Z" fill="#EC422B"/>
<path d="M83.418 130.215L83.5045 130.248C83.5045 130.248 83.5045 130.248 83.418 130.215Z" fill="#EC422B"/>
<path d="M78.4642 124.951C78.5507 124.983 78.6309 124.973 78.6372 125.015C78.5444 124.941 78.6118 124.847 78.4642 124.951Z" fill="#EC422B"/>
<path d="M81.1778 126.718C81.1714 126.676 81.2515 126.666 81.2515 126.666C81.2515 126.666 81.2579 126.709 81.1778 126.718Z" fill="#EC422B"/>
<path d="M83.7141 131.636C83.6277 131.604 83.6213 131.561 83.5413 131.571L83.5476 131.613L83.7141 131.636Z" fill="#EC422B"/>
<path d="M79.2688 124.338C79.115 124.4 79.2942 124.506 79.3933 124.623C79.2459 124.726 79.2141 124.516 79.0476 124.494C78.9803 124.588 79.0857 124.746 79.0057 124.756C78.9993 124.714 78.9192 124.724 78.9129 124.682C78.9383 124.85 78.6117 124.847 78.7171 125.006L78.6307 124.973C78.8035 125.038 78.89 125.07 78.9827 125.144C78.909 125.196 79.0819 125.261 78.909 125.196C78.909 125.196 78.9027 125.154 78.8162 125.122L78.8226 125.164C78.5633 125.067 78.8099 125.08 78.637 125.015C78.5697 125.109 78.6751 125.268 78.5951 125.278C78.3358 125.181 78.6561 125.142 78.4095 125.129L78.6497 125.1C78.224 124.98 78.7298 125.09 78.2977 124.928C78.0638 125 78.243 125.107 78.0092 125.178C78.1019 125.253 78.2621 125.233 78.3549 125.307C78.4667 125.508 77.5224 125.195 77.8007 125.418C77.9735 125.483 78.3129 125.57 77.9926 125.609L77.7333 125.512C77.5859 125.616 78.1654 125.673 77.8451 125.713C77.7587 125.68 77.8324 125.629 77.7524 125.638C77.4257 125.636 77.9252 125.703 77.8515 125.755L77.5185 125.71C77.4575 125.846 77.5566 125.962 77.5756 126.089C77.4892 126.056 77.4028 126.024 77.3227 126.034C77.3481 126.202 77.1269 126.358 76.8193 126.482L77.0723 126.536L76.9121 126.556C76.7583 126.618 77.0786 126.578 77.165 126.611C77.1714 126.653 77.0049 126.63 76.9248 126.64C77.104 126.747 77.3696 126.885 77.062 127.009L76.9756 126.977C76.8282 127.081 77.5552 127.034 77.2412 127.116L77.1612 127.125C77.0201 127.271 77.292 127.452 76.8243 127.595C77.231 127.588 76.6095 127.793 77.25 127.715C76.9425 127.838 76.856 127.806 76.7149 127.952C76.7213 127.994 77.0416 127.954 77.128 127.987L76.8077 128.026L77.1343 128.029L76.8204 128.11L76.9068 128.142C76.9068 128.142 77.0606 128.081 77.1407 128.071C77.3072 128.093 77.0059 128.259 76.8458 128.278C76.9322 128.311 77.0186 128.343 77.1051 128.375C77.025 128.385 76.9386 128.353 76.8585 128.363C77.1915 128.407 76.5446 128.444 76.8712 128.447C76.9513 128.437 77.0313 128.427 77.1114 128.417C76.9576 128.479 76.9703 128.563 77.0567 128.595L76.8165 128.625C76.8356 128.751 77.0084 128.816 77.0275 128.942C77.1012 128.89 77.4151 128.809 77.5016 128.841L77.1876 128.922C77.3478 128.903 77.2613 128.87 77.5016 128.841C77.5079 128.883 77.1876 128.922 77.0275 128.942L77.194 128.964C77.1139 128.974 77.0338 128.984 76.9537 128.994C77.1139 128.974 76.7326 129.15 77.0529 129.11L76.9728 129.12C77.0719 129.237 77.1583 129.269 77.2511 129.343C77.485 129.272 77.4913 129.314 77.7315 129.284C77.6642 129.378 77.5167 129.482 77.6095 129.556C77.776 129.579 77.8497 129.527 78.0099 129.507C77.776 129.579 77.8688 129.653 77.7086 129.673C77.8014 129.747 77.8878 129.779 78.1407 129.834C78.2145 129.782 78.2145 129.782 78.2945 129.772C78.3746 129.762 78.2272 129.866 78.1471 129.876C78.5538 129.869 77.8166 130.388 78.3771 130.319L78.7037 130.322C78.7101 130.364 78.5436 130.342 78.3961 130.446C78.8766 130.387 78.588 130.636 78.9083 130.597C78.4723 130.951 79.3468 130.8 79.1447 131.082L79.2921 130.978C79.4459 130.917 79.2985 131.021 79.3048 131.063C79.3785 131.011 79.3722 130.969 79.4522 130.959C79.9517 131.026 80.089 131.395 80.6075 131.588C80.7803 131.653 81.1109 131.141 81.149 131.393L80.9278 131.549C81.4756 131.396 81.7603 131.661 82.3081 131.508C82.2344 131.56 82.2407 131.602 82.2407 131.602C82.2598 131.729 82.5674 131.605 82.6347 131.511C82.7148 131.501 82.6474 131.595 82.6538 131.637C82.7466 131.712 82.955 131.472 82.9741 131.598C82.9741 131.598 82.9804 131.64 82.9004 131.65C82.9741 131.598 83.2207 131.611 83.1215 131.494C83.2944 131.559 83.4291 131.371 83.602 131.435C83.5766 131.267 83.9286 131.438 83.8168 131.237C83.9286 131.438 84.2362 131.314 84.2972 131.178C84.3099 131.263 84.4637 131.201 84.4764 131.285C84.6302 131.223 84.6976 131.129 84.5248 131.065C84.7777 131.119 84.8451 131.025 84.8324 130.941C84.8197 130.857 84.8934 130.805 85.1526 130.902C85.2747 130.63 85.3294 130.452 85.3841 130.273C85.8035 130.351 85.2493 130.461 85.6687 130.539C85.717 130.318 85.4514 130.179 85.6789 130.066C85.759 130.056 85.8518 130.13 85.9319 130.12C85.9065 129.952 86.134 129.838 86.0285 129.68L86.1149 129.712C86.1086 129.67 86.1887 129.66 86.0222 129.638L86.0285 129.68C85.7082 129.719 85.5227 129.571 85.3562 129.548C85.9357 129.606 85.5036 129.444 86.2433 129.482C86.237 129.44 86.1569 129.45 85.9968 129.47C86.0768 129.46 86.1569 129.45 86.2433 129.482C86.1506 129.408 85.9103 129.437 85.9777 129.343C86.0578 129.334 86.1442 129.366 86.2243 129.356C86.0578 129.333 85.885 129.269 85.9587 129.217C86.0387 129.207 86.1188 129.197 86.1252 129.24C86.1061 129.113 85.613 129.088 85.8405 128.974C86.2472 128.967 85.9943 128.913 86.3146 128.873L86.2218 128.799L86.068 128.861C86.0617 128.819 85.8151 128.806 85.8825 128.712L86.049 128.735C86.0426 128.692 85.9562 128.66 85.9562 128.66L85.8088 128.764C85.6423 128.742 85.3347 128.865 85.402 128.771C85.402 128.771 85.3957 128.729 85.5495 128.667C85.3893 128.687 85.3029 128.655 85.3766 128.603C85.4567 128.593 85.7707 128.512 85.8507 128.502C85.5304 128.541 85.6715 128.395 85.3512 128.434C85.4313 128.425 85.5915 128.405 85.6652 128.353L85.425 128.383C85.4987 128.331 85.4987 128.331 85.6588 128.311C85.6461 128.227 85.2712 128.444 85.3322 128.308L85.4123 128.298C85.4796 128.204 85.153 128.202 85.214 128.066C85.5216 127.942 85.3805 128.088 85.608 127.974C85.4288 127.868 85.0221 127.875 85.0094 127.791L85.0158 127.833C84.5544 128.018 85.1569 127.687 84.9167 127.716C84.9967 127.706 85.1505 127.645 85.1505 127.645C85.1378 127.561 84.8913 127.548 84.6447 127.535L84.7985 127.474C84.8659 127.38 84.6994 127.357 84.693 127.315C84.5392 127.377 84.5329 127.335 84.4655 127.429C84.8087 127.001 83.8122 127.423 84.0881 127.089C84.0881 127.089 84.2482 127.07 84.1618 127.037L83.9152 127.025C83.7678 127.129 83.8415 127.077 83.7741 127.171C83.7004 127.223 83.5402 127.242 83.5402 127.242C83.694 127.181 83.7614 127.087 83.8288 126.993C83.7551 127.045 83.7551 127.045 83.6813 127.096C83.8097 126.866 83.3864 127.304 83.4411 127.126L83.5148 127.074C83.4348 127.084 83.281 127.146 83.2746 127.103C83.4157 126.958 83.4284 127.042 83.4958 126.948C83.4094 126.915 83.1145 127.123 83.1755 126.987C83.2556 126.977 83.2556 126.977 83.3356 126.967C83.4704 126.779 83.3967 126.831 83.3903 126.789L83.3713 126.663L83.3776 126.705C82.9353 127.017 83.1374 126.735 82.7561 126.91C83.0573 126.744 82.9035 126.806 83.0446 126.66C83.0383 126.618 83.0319 126.576 83.1057 126.524C82.9582 126.628 83.0866 126.398 82.8654 126.554C82.9392 126.502 82.779 126.521 82.9265 126.418C82.8464 126.427 82.8591 126.512 82.7854 126.563C82.5642 126.719 82.6672 126.321 82.2859 126.496C82.052 126.568 81.9109 126.714 81.677 126.785C81.6643 126.701 81.8118 126.597 81.8118 126.597C81.7991 126.513 81.719 126.523 81.5652 126.585C81.6389 126.533 81.6326 126.491 81.6262 126.449C81.5462 126.458 81.4915 126.637 81.4788 126.552C81.5525 126.501 81.6199 126.407 81.6936 126.355C81.6199 126.407 81.4661 126.468 81.3924 126.52C81.3797 126.436 81.5335 126.374 81.6072 126.322C81.5271 126.332 81.3733 126.394 81.2322 126.54L81.2386 126.582L81.2996 126.446C81.447 126.342 81.3924 126.52 81.3987 126.562L81.3186 126.572C81.2029 126.886 81.5589 126.543 81.6453 126.575L81.5105 126.763L81.7317 126.607C81.7381 126.649 81.677 126.785 81.597 126.795C81.616 126.921 81.6707 126.743 81.6897 126.869L81.6961 126.912L81.7698 126.86C81.6961 126.912 81.7088 126.996 81.6224 126.963C81.6414 127.09 81.9299 126.84 81.8689 126.976C82.1091 126.947 82.01 126.83 82.2312 126.674L82.0481 127.083L82.1892 126.937C82.1892 126.937 82.1956 126.979 82.2019 127.021C82.3494 126.917 82.2756 126.969 82.343 126.875C82.282 127.011 82.6633 126.836 82.4548 127.076C82.6023 126.972 82.4421 126.991 82.5959 126.93C82.3938 127.212 82.7561 126.91 82.6951 127.046C82.554 127.192 82.5413 127.108 82.4802 127.244C82.7751 127.036 82.573 127.318 82.6531 127.308C82.8679 127.111 82.8132 127.289 82.967 127.227C82.8933 127.279 83.0661 127.343 83.0051 127.479L82.9314 127.531C83.1526 127.376 83.239 127.408 83.3191 127.398C83.1716 127.502 83.0979 127.554 83.0178 127.564L83.1042 127.596C83.178 127.544 83.258 127.534 83.3381 127.524L83.1907 127.628C83.2771 127.66 83.5046 127.547 83.5237 127.673C83.6711 127.569 83.8796 127.329 84.1198 127.3C84.0461 127.352 83.8986 127.455 83.8186 127.465C83.8186 127.465 83.8923 127.413 83.8986 127.455L83.6648 127.527C83.6711 127.569 83.8186 127.465 83.8186 127.465C83.6711 127.569 83.7448 127.517 83.6775 127.611L83.6711 127.569C83.6775 127.611 83.6838 127.653 83.5364 127.757C83.6101 127.705 83.6838 127.653 83.7639 127.643C83.8503 127.676 83.6164 127.747 83.5427 127.799C83.6164 127.747 83.6291 127.831 83.7766 127.728C83.7766 127.728 83.7029 127.78 83.6291 127.831C83.7893 127.812 83.802 127.896 84.0231 127.74C84.3434 127.701 84.135 127.941 84.3015 127.963L84.2277 128.015C84.3879 127.995 84.4006 128.08 84.6408 128.05C84.6408 128.05 84.4934 128.154 84.4133 128.164C84.4934 128.154 84.5734 128.144 84.5061 128.238C84.3459 128.258 84.3523 128.3 84.3459 128.258C84.2722 128.31 84.1985 128.362 84.4387 128.332C84.2048 128.404 84.2112 128.446 84.2912 128.436L84.445 128.374C84.5251 128.364 84.5315 128.406 84.4577 128.458L84.1438 128.54C83.8425 128.705 84.8772 128.535 84.3357 128.731C84.5759 128.701 84.4831 128.627 84.7234 128.597C84.7297 128.639 84.262 128.782 84.2683 128.825C84.1209 128.928 84.7488 128.766 84.6814 128.86C84.7615 128.85 85.0754 128.768 85.2419 128.791C85.2482 128.833 84.7741 128.934 84.6877 128.902C84.6877 128.902 84.6877 128.902 84.7678 128.892C84.6877 128.902 84.6814 128.86 84.5276 128.921L84.6077 128.911C84.5339 128.963 84.5403 129.005 84.3801 129.025C84.4666 129.057 84.5403 129.005 84.6204 128.996C84.4666 129.057 84.6331 129.08 84.5593 129.132C84.6394 129.122 84.7195 129.112 84.7195 129.112C84.572 129.216 84.966 129.125 84.9724 129.167C84.8186 129.228 84.5657 129.174 84.7385 129.238C84.5847 129.3 84.4182 129.278 84.3382 129.287C84.5847 129.3 84.1907 129.391 84.1106 129.401L84.0242 129.369C84.1043 129.359 84.1106 129.401 84.1106 129.401L84.3509 129.372C84.2708 129.381 84.2771 129.424 84.1907 129.391C84.3572 129.414 84.5911 129.342 84.7639 129.407C84.6838 129.416 84.8567 129.481 84.6101 129.468C84.7639 129.407 84.2835 129.466 84.2771 129.424L84.2835 129.466L84.2034 129.475C83.8831 129.515 84.53 129.478 84.5427 129.562C84.3763 129.54 84.2161 129.56 84.2225 129.602C84.2225 129.602 84.469 129.614 84.6355 129.637C84.4754 129.656 84.7219 129.669 84.7283 129.711L84.8084 129.701C84.9749 129.724 84.9749 129.724 84.9812 129.766C84.8147 129.743 84.8948 129.733 84.8147 129.743C85.0676 129.798 84.4944 129.783 84.6673 129.847C84.5071 129.867 84.3343 129.802 84.2542 129.812C84.427 129.877 84.014 129.842 84.1805 129.864C84.427 129.877 84.347 129.886 84.5198 129.951C84.5135 129.909 84.427 129.877 84.4207 129.835C84.5071 129.867 84.5935 129.899 84.68 129.931C84.68 129.931 84.5872 129.857 84.6673 129.847C84.8401 129.912 84.7537 129.879 84.9202 129.902C84.5935 129.899 85.0193 130.018 84.7727 130.006L84.2669 129.896C84.0203 129.884 84.4524 130.045 84.2122 130.074L84.2923 130.065C84.4651 130.129 84.2986 130.107 84.305 130.149C84.1321 130.084 84.0521 130.094 83.9657 130.062C84.0521 130.094 83.8919 130.114 84.1512 130.21C84.0648 130.178 83.9847 130.188 83.8983 130.156C83.7318 130.133 84.1766 130.379 84.0164 130.398C83.9237 130.324 83.8309 130.25 83.7381 130.175C83.7381 130.175 83.6581 130.185 83.7445 130.218C83.6581 130.185 83.8436 130.334 83.6771 130.312C83.6835 130.354 83.7762 130.428 83.7762 130.428L83.7699 130.386C83.7762 130.428 83.7826 130.47 83.8754 130.544C83.6962 130.438 83.6161 130.448 83.5424 130.5C83.4623 130.509 83.3886 130.561 83.2894 130.445C83.2157 130.497 83.142 130.549 83.0619 130.559C83.0556 130.516 83.0556 130.516 83.0556 130.516C82.9628 130.442 83.0199 130.821 82.8407 130.714C82.8153 130.546 82.9081 130.62 82.9018 130.578C82.931 130.232 82.748 130.64 82.7162 130.43C82.6972 130.303 82.5751 130.575 82.4023 130.511L82.3959 130.469C82.2548 130.615 82.101 130.676 81.9409 130.696C82.082 130.55 82.0146 130.644 82.0756 130.508C81.9956 130.518 81.9472 130.738 81.7871 130.758C81.7744 130.674 81.768 130.632 81.9091 130.486L81.9892 130.476C82.124 130.288 81.9028 130.444 81.9028 130.444L81.9702 130.35C81.81 130.369 81.6753 130.557 81.5024 130.493L81.4287 130.545C81.1274 130.71 81.4897 130.409 81.2685 130.564L81.4834 130.367C81.4096 130.418 81.0957 130.5 81.0156 130.51C81.2431 130.396 81.3969 130.334 81.5507 130.273C81.5507 130.273 81.3842 130.25 81.2304 130.312C81.3105 130.302 81.3042 130.26 81.3105 130.302C81.083 130.416 80.9292 130.477 80.8428 130.445C81.3652 130.124 80.7373 130.287 81.0996 129.985C80.7856 130.066 80.914 129.836 80.7412 129.772C80.3726 130.031 80.6548 129.74 80.2061 130.009C80.126 130.019 80.1196 129.977 80.1997 129.967L80.4145 129.769C80.5683 129.707 80.5747 129.749 80.6484 129.698C80.6421 129.655 80.7959 129.594 80.9433 129.49C80.7959 129.594 80.7158 129.604 80.7031 129.519L80.562 129.665C80.2417 129.705 80.937 129.448 80.5366 129.497L80.6904 129.435C80.5302 129.455 80.5112 129.329 80.1235 129.462C80.1973 129.41 80.271 129.358 80.3574 129.39C80.3447 129.306 79.7041 129.385 79.9189 129.187L80.0791 129.167C79.999 129.177 79.8389 129.197 79.9126 129.145C79.9927 129.135 80.0727 129.125 80.0664 129.083C79.9863 129.093 79.8262 129.113 79.8198 129.071L79.98 129.051C80.1211 128.905 79.4868 129.026 79.314 128.961C79.708 128.87 79.769 128.734 79.8427 128.682L79.9228 128.672C79.9038 128.546 79.497 128.553 79.2441 128.498C79.6254 128.323 79.3662 128.226 79.5073 128.08C79.4272 128.09 79.187 128.12 79.1069 128.129C79.1806 128.078 78.7803 128.127 79.1743 128.035C79.5683 127.944 79.4018 127.922 79.3955 127.88L78.915 127.939C79.6166 127.724 78.5503 127.683 79.2646 127.553C79.0981 127.53 79.0981 127.53 79.0117 127.498L79.2519 127.469C79.3193 127.375 79.3193 127.375 79.3002 127.249L79.4667 127.271C79.4604 127.229 78.6533 127.285 78.6469 127.243L79.0473 127.194C79.0346 127.11 79.4223 126.976 79.0092 126.941C79.0893 126.932 79.1693 126.922 79.1757 126.964C79.1693 126.922 79.4769 126.798 78.9101 126.825C79.2367 126.828 78.9775 126.731 78.8046 126.666L79.0512 126.679C78.7182 126.634 78.6381 126.644 78.5453 126.57C78.6254 126.56 78.7856 126.54 78.7118 126.592C78.8656 126.53 78.4589 126.537 78.6191 126.518L78.7856 126.54C78.8593 126.488 78.6991 126.508 78.5326 126.486C78.4462 126.453 78.6 126.392 78.8466 126.404C78.6801 126.382 78.5136 126.359 78.5937 126.349C78.6737 126.34 78.7602 126.372 78.7602 126.372C78.994 126.3 78.4945 126.233 78.8148 126.194C78.8949 126.184 78.9813 126.216 78.9813 126.216C78.9076 126.268 78.914 126.31 78.914 126.31C79.1605 126.323 79.2343 126.271 79.4935 126.368C79.3207 126.303 78.9813 126.216 79.1415 126.196L79.2216 126.187C79.2216 126.187 79.2216 126.187 79.2152 126.145C79.2953 126.135 79.2953 126.135 79.2953 126.135C79.4618 126.157 79.4554 126.115 79.4491 126.073C79.1962 126.018 79.2762 126.008 79.0297 125.996C79.0297 125.996 79.0297 125.996 79.036 126.038L79.0424 126.08C78.9559 126.048 78.8695 126.016 79.0297 125.996C78.8632 125.973 78.6903 125.909 78.6903 125.909C79.1034 125.944 79.2635 125.924 79.5101 125.937C79.4173 125.863 79.5711 125.801 79.139 125.64C79.1327 125.597 79.3055 125.662 79.3856 125.652C79.3919 125.694 79.3919 125.694 79.472 125.684C79.3792 125.61 79.5394 125.59 79.2801 125.494C79.4466 125.516 79.4593 125.6 79.533 125.548L79.6194 125.581C79.8724 125.635 79.7732 125.519 79.7542 125.393C79.6551 125.276 79.7161 125.14 79.9817 125.279L79.8953 125.247C80.1419 125.259 80.2092 125.165 80.363 125.104C80.5168 125.042 80.6706 124.98 80.8498 125.087C80.9363 125.119 80.9172 124.993 80.9846 124.899L81.01 125.067C81.0036 125.025 81.071 124.931 81.1447 124.879C81.2858 124.733 81.2819 125.248 81.5705 124.998L81.5578 124.914C81.6442 124.946 81.7917 124.842 81.7306 124.979C81.7306 124.979 81.798 124.885 81.8044 124.927L81.737 125.021L81.9645 124.907C82.0573 124.981 81.7687 125.231 81.9352 125.253C82.0153 125.244 82.2301 125.046 82.2174 124.962C82.2174 124.962 82.2111 124.92 82.1984 124.835L82.2721 124.783C82.4005 124.553 82.609 124.313 82.4972 124.113L82.276 124.269L82.2569 124.142L82.337 124.133C82.318 124.006 82.2506 124.1 82.1769 124.152C82.1705 124.11 82.1642 124.068 82.1578 124.026L81.943 124.224C81.9303 124.14 82.0777 124.036 81.9913 124.004C81.8439 124.107 81.943 124.224 81.8693 124.276C81.8502 124.149 81.9176 124.055 81.7702 124.159C81.7638 124.117 81.8375 124.065 81.8312 124.023C81.7575 124.075 81.591 124.053 81.5299 124.189C81.5109 124.063 81.2897 124.218 81.338 123.998C81.2643 124.05 81.2033 124.186 81.1232 124.196C81.2453 123.924 80.8766 124.183 80.9186 123.921C80.7902 124.151 80.531 124.054 80.3962 124.242C80.3962 124.242 80.3899 124.2 80.4699 124.19C80.3899 124.2 80.2971 124.126 80.2107 124.094C80.2424 124.304 80.0886 124.366 80.1077 124.492C79.9221 124.343 80.0696 124.239 79.9641 124.081C80.0696 124.239 79.8293 124.269 79.9285 124.385C79.7556 124.321 79.842 124.353 79.6565 124.204C79.7747 124.447 79.5828 124.256 79.6082 124.425C79.4353 124.36 79.4163 124.234 79.3489 124.328C79.2078 124.474 79.2688 124.338 79.2688 124.338ZM77.521 126.267C77.521 126.267 77.5146 126.225 77.5947 126.215C77.6748 126.205 77.7612 126.237 77.7612 126.237C77.6811 126.247 77.601 126.257 77.521 126.267ZM79.3944 126.251C79.4745 126.241 79.3944 126.251 79.3944 126.251C79.3143 126.261 79.3143 126.261 79.308 126.219C79.388 126.209 79.3944 126.251 79.3944 126.251Z" fill="#EC422B"/>
<path d="M82.5896 126.888L82.516 126.94L82.5896 126.888Z" fill="#EC422B"/>
<path d="M85.3223 128.781C85.4024 128.771 85.4024 128.771 85.4889 128.804C85.4825 128.761 85.4825 128.761 85.3223 128.781Z" fill="#EC422B"/>
<path d="M85.4953 128.846C85.5689 128.794 85.4888 128.804 85.4888 128.804C85.4087 128.813 85.4151 128.856 85.4953 128.846Z" fill="#EC422B"/>
<path d="M80.7584 126.641C80.8385 126.631 80.8321 126.589 80.7584 126.641V126.641Z" fill="#EC422B"/>
<path d="M81.4183 126.689L81.492 126.637C81.4183 126.689 81.4183 126.689 81.4183 126.689Z" fill="#EC422B"/>
<path d="M81.5843 126.711C81.5843 126.711 81.5652 126.584 81.4851 126.594L81.4915 126.636C81.5652 126.584 81.5169 126.805 81.5843 126.711Z" fill="#EC422B"/>
<path d="M81.6924 127.426L81.5996 127.352C81.606 127.394 81.5386 127.488 81.4585 127.498C81.5703 127.698 81.606 127.394 81.6924 127.426Z" fill="#EC422B"/>
<path d="M81.9578 127.565C81.8777 127.575 81.8904 127.659 81.8103 127.669C81.9705 127.649 81.9705 127.649 81.9578 127.565Z" fill="#EC422B"/>
<path d="M83.8784 128.401L83.6446 128.473C83.7311 128.506 83.7247 128.463 83.8784 128.401Z" fill="#EC422B"/>
<path d="M85.2462 128.277L85.4 128.214L85.1661 128.286L85.2462 128.277Z" fill="#EC422B"/>
<path d="M83.7883 128.883L83.7083 128.893L83.7948 128.926L83.7883 128.883Z" fill="#EC422B"/>
<path d="M82.9693 130.484L83.0747 130.643C83.0684 130.601 83.043 130.432 82.9693 130.484Z" fill="#EC422B"/>
<path d="M81.5152 130.577C81.5826 130.483 81.5763 130.441 81.5025 130.493C81.4288 130.545 81.4351 130.587 81.5152 130.577Z" fill="#EC422B"/>
<path d="M79.181 128.078L79.2611 128.068L79.1746 128.036L79.181 128.078Z" fill="#EC422B"/>
</svg>
