<svg width="85" height="64" viewBox="0 0 85 64" fill="none" xmlns="http://www.w3.org/2000/svg">
<path d="M28.1806 33.2648C30.6843 33.2648 32.7231 35.3057 32.7231 37.8118C32.7231 40.318 30.6843 42.3589 28.1806 42.3589C25.677 42.3589 23.6382 40.318 23.6382 37.8118C23.6382 35.3057 25.677 33.2648 28.1806 33.2648ZM28.1806 28.5731C23.0835 28.5731 18.9512 32.7096 18.9512 37.8118C18.9512 42.9141 23.0835 47.0506 28.1806 47.0506C33.2777 47.0506 37.4101 42.9141 37.4101 37.8118C37.4101 32.7096 33.2777 28.5731 28.1806 28.5731Z" fill="#EC422B"/>
<path d="M54.9941 17.5554C57.4977 17.5554 59.5366 19.5963 59.5366 22.1024C59.5366 24.6086 57.4977 26.6495 54.9941 26.6495C52.4905 26.6495 50.4516 24.6086 50.4516 22.1024C50.4516 19.5963 52.4905 17.5554 54.9941 17.5554ZM54.9941 12.8637C49.897 12.8637 45.7646 17.0002 45.7646 22.1024C45.7646 27.2047 49.897 31.3412 54.9941 31.3412C60.0912 31.3412 64.2236 27.2047 64.2236 22.1024C64.2236 17.0002 60.0912 12.8637 54.9941 12.8637Z" fill="#EC422B"/>
<path d="M15.5999 57.4663L10.9715 56.7273C11.1825 55.398 11.409 53.5956 11.5965 51.5078C5.19092 45.647 1.39445 37.7532 0.37503 31.6696C-0.687355 25.3358 0.539074 20.6519 3.65202 19.1389C4.76518 18.5993 7.73751 17.7626 11.2684 21.6646C14.8969 25.6721 16.7131 32.9833 16.6662 43.395C16.6545 45.561 16.5647 47.6293 16.4436 49.4786C17.1388 50.0182 17.8692 50.5382 18.6426 51.0308C19.5761 51.6251 20.4705 51.5547 20.8338 51.3553C21.7673 50.8392 22.6812 48.0085 22.6695 44.3334L27.3565 44.3099C27.3643 45.8152 27.1924 53.4353 22.9781 55.7655C21.5993 56.5279 19.2949 57.0088 16.1233 54.9836C16.0647 54.9445 16.0062 54.9093 15.9476 54.8702C15.764 56.4184 15.6156 57.3646 15.5999 57.4663ZM6.3197 23.6155C5.9174 23.4005 5.42136 23.5803 5.22997 23.9948C4.7769 24.9918 4.37069 27.1773 4.99562 30.8955C5.55806 34.254 7.60472 40.0248 11.9558 45.1661C12.1355 37.4952 11.3621 28.7569 7.7961 24.8236C7.22195 24.1864 6.69857 23.8227 6.3197 23.6155Z" fill="#EC422B"/>
<path d="M45.456 36.1346C44.1905 36.1346 42.6165 35.6928 40.8042 34.2853C39.8863 33.5737 39.0388 32.8465 38.2498 32.1075C37.5467 33.9959 36.9999 35.2158 36.9101 35.4152L32.641 33.4799C33.223 32.1935 33.9612 30.3364 34.6838 28.1587C29.821 21.7662 28.8172 15.2095 28.7274 11.3154C28.5946 5.63452 30.196 1.79513 33.1175 0.782505C35.1915 0.0631086 37.4061 0.942805 39.0466 3.13227C43.7648 9.42699 42.0384 19.8113 39.9098 27.1069C40.9839 28.2877 42.2298 29.4528 43.675 30.5749C44.5304 31.2396 45.2686 31.5484 45.6513 31.4038C46.3661 31.134 47.4207 29.3511 48.0378 26.0787L52.6428 26.9506C51.7249 31.826 49.9282 34.8014 47.3113 35.7944C46.8035 35.9899 46.1786 36.1346 45.456 36.1346ZM35.0978 5.70099C34.8478 5.41557 34.3908 5.47422 34.219 5.81046C33.8167 6.60023 33.3441 8.23451 33.4105 11.2059C33.473 13.8177 34.0276 17.8603 36.3594 22.1415C37.6913 16.1987 38.1014 9.69285 35.297 5.95121C35.2267 5.85738 35.1603 5.77527 35.0978 5.70099ZM34.7775 34.4495L32.641 33.4838L34.7775 34.4495Z" fill="#EC422B"/>
<path d="M67.6645 33.1553C63.4032 34.2579 59.2396 35.7397 55.2088 37.5421C51.1741 39.3484 47.2721 41.4753 43.5421 43.9267C39.8159 46.3781 36.2694 49.1541 32.9846 52.2701C29.7037 55.3862 26.6845 58.8503 24.0637 62.6584L33.6603 63.5264C33.676 63.5029 33.6916 63.4794 33.7072 63.456C37.3045 58.0097 41.9134 53.0912 47.1315 48.8569C50.3343 46.2569 53.7675 43.9072 57.3804 41.8389C60.9933 39.7706 64.782 37.9761 68.7034 36.5255L67.6645 33.1553Z" fill="#EC422B"/>
<path d="M84.2641 30.1409C84.2446 30.0666 84.2251 29.9963 84.2016 29.9259C83.9556 29.2339 83.3072 28.7334 82.5456 28.7139H82.5026C82.487 28.7139 82.4675 28.7139 82.4518 28.7178C82.3503 28.7217 82.2487 28.7334 82.1394 28.7491H82.1355C82.0534 28.7569 81.9714 28.7725 81.8816 28.7882C81.3621 28.8859 80.7762 29.0384 80.1474 29.23L75.4604 25.7268C75.2104 25.5391 74.855 25.6838 74.8042 25.9927L74.73 26.4384C74.6832 26.7121 74.7535 26.9936 74.9253 27.2164L77.2493 30.2465C74.5426 31.2982 71.3788 32.7761 71.3788 32.7761L70.8476 33.9217L70.6914 33.9686L70.7851 33.996L70.7305 34.0624L70.8672 34.0233L71.8553 34.7115C71.8553 34.7115 75.3979 34.2345 78.2375 33.6558L77.9211 37.4522C77.8977 37.7298 77.9914 38.0035 78.1789 38.2107L78.4835 38.5469C78.6905 38.7776 79.0694 38.7033 79.1788 38.414L81.2176 32.9442C81.8425 32.7644 82.4128 32.5767 82.8971 32.3773C83.0065 32.3343 83.108 32.2874 83.2057 32.2366C83.3189 32.1857 83.4322 32.1271 83.5338 32.0528C84.0025 31.7205 84.3071 31.1692 84.3071 30.5475C84.3071 30.4068 84.2915 30.27 84.2641 30.1409Z" fill="#EC422B"/>
<path d="M69.5393 31.8925L71.0782 36.9869C71.1719 37.2958 71.5899 37.3388 71.7422 37.0534L73.1834 33.3L70.0431 31.4585C69.758 31.3256 69.4495 31.5915 69.5393 31.8925Z" fill="#EC422B"/>
<path d="M60.4272 55.0031C60.2319 55.0031 60.0444 54.9053 59.935 54.7333L56.3378 49.115C56.1737 48.8608 56.2323 48.5246 56.4667 48.3369C56.6893 48.161 57.8415 47.3126 58.7516 47.8326C59.5171 48.2666 60.1381 49.1658 60.2983 49.7835C60.3647 50.0455 60.3412 50.3309 60.2202 50.6437C60.6771 50.6202 61.1458 50.7102 61.5052 51.0425C62.1809 51.6641 62.3879 52.8292 62.1575 53.5291C61.7903 54.6356 60.6381 54.9718 60.5873 54.9874C60.5326 54.9953 60.4819 55.0031 60.4272 55.0031ZM59.5562 51.9691L60.6381 53.662C60.7982 53.5525 60.9623 53.3844 61.0404 53.1538C61.1458 52.8332 61.013 52.1802 60.7084 51.9026C60.5287 51.7345 60.0171 51.8127 59.5562 51.9691ZM57.6423 48.9781L58.7906 50.7727C59.1812 50.2644 59.1656 50.069 59.1617 50.065C59.0797 49.7484 58.6656 49.1267 58.1735 48.8491C58.1032 48.81 57.8884 48.8608 57.6423 48.9781Z" fill="#EC422B"/>
<path d="M67.1724 51.2771C66.9693 51.2771 66.774 51.1715 66.6686 50.9878L63.2822 45.2404C63.1299 44.9785 63.1963 44.6461 63.4424 44.4702C63.6689 44.3021 64.8563 43.5006 65.7468 44.0479C66.4967 44.5093 67.0865 45.432 67.2193 46.0536C67.2779 46.3195 67.2427 46.601 67.1099 46.9099C67.5669 46.906 68.0317 47.0115 68.3793 47.3556C69.0316 48.0007 69.1956 49.1736 68.9379 49.8618C68.5317 50.9526 67.3677 51.2497 67.3169 51.2614C67.2662 51.2693 67.2193 51.2771 67.1724 51.2771ZM66.3952 48.2118L67.4146 49.94C67.5786 49.8344 67.7505 49.6741 67.8364 49.4473C67.9536 49.1306 67.8442 48.4738 67.5513 48.1845C67.3755 48.0124 66.86 48.075 66.3952 48.2118ZM64.5907 45.1544L65.6726 46.9881C66.0827 46.4915 66.071 46.2961 66.071 46.2961C66.0007 45.9755 65.6101 45.3421 65.1297 45.0449C65.0555 44.998 64.8328 45.0488 64.5907 45.1544Z" fill="#EC422B"/>
<path d="M63.4738 53.232C63.2629 53.232 63.0558 53.1186 62.9543 52.9153L60.4702 48.1297C59.9976 47.3321 59.7398 46.2687 60.4858 45.7682C60.8334 45.5337 61.7513 45.131 62.7746 46.4134C63.2199 46.9685 65.6024 50.8001 65.8719 51.2341C66.0438 51.5078 65.9579 51.8714 65.6845 52.0434C65.4111 52.2154 65.0478 52.1294 64.876 51.8557C63.8292 50.1706 62.1614 47.5276 61.8607 47.1484C61.4818 46.6753 61.2904 46.6714 61.1928 46.7144C61.1889 46.8825 61.3295 47.2735 61.4974 47.5628L63.9971 52.3757C64.1456 52.6651 64.0362 53.0169 63.7472 53.1655C63.6573 53.2085 63.5675 53.232 63.4738 53.232Z" fill="#EC422B"/>
<path d="M62.0715 50.2997C61.8606 50.2997 61.6575 50.1863 61.552 49.9869C61.4036 49.7015 61.513 49.3457 61.7981 49.1932L63.419 48.3408C63.7042 48.1884 64.0596 48.3018 64.2119 48.5872C64.3603 48.8726 64.251 49.2284 63.9658 49.3809L62.3449 50.2332C62.2551 50.2801 62.1653 50.2997 62.0715 50.2997Z" fill="#EC422B"/>
<path d="M71.3323 49.1267C71.1253 49.1267 70.9261 49.0172 70.8206 48.8257L69.5044 46.4407C69.3481 46.1592 69.4497 45.7995 69.7348 45.6431C70.016 45.4867 70.3754 45.5884 70.5316 45.8738L71.8479 48.2588C72.0041 48.5403 71.9025 48.9 71.6174 49.0563C71.5237 49.1033 71.426 49.1267 71.3323 49.1267Z" fill="#EC422B"/>
<path d="M69.8637 46.7809C69.1606 46.7809 68.5513 45.9442 68.2662 45.5493L68.2232 45.4906C67.8561 44.998 66.7273 43.6765 66.7156 43.6609C66.5046 43.4146 66.5359 43.0431 66.782 42.8359C67.028 42.6248 67.3991 42.6561 67.6061 42.9024C67.653 42.9571 68.77 44.2669 69.1606 44.7908L69.2114 44.8612C69.3559 45.0606 69.4731 45.2052 69.5707 45.3147C69.5668 45.2991 69.5629 45.2873 69.559 45.2756C69.5434 45.2091 69.5278 45.1466 69.5121 45.0879C69.4418 44.7791 69.0356 43.266 68.8325 42.5075C68.7466 42.1947 68.9341 41.8741 69.2465 41.7881C69.559 41.7021 69.8793 41.8898 69.9652 42.2025C69.9886 42.2925 70.5628 44.4233 70.6565 44.8299C70.6683 44.8807 70.68 44.9316 70.6956 44.9863C70.805 45.4125 71.0315 46.3 70.2777 46.6831C70.1371 46.7496 70.0004 46.7809 69.8637 46.7809Z" fill="#EC422B"/>
</svg>
