<svg width="85" height="64" viewBox="0 0 85 64" fill="none" xmlns="http://www.w3.org/2000/svg">
<path d="M28.5654 33.2648C31.069 33.2648 33.1079 35.3057 33.1079 37.8118C33.1079 40.318 31.069 42.3589 28.5654 42.3589C26.0618 42.3589 24.0229 40.318 24.0229 37.8118C24.0229 35.3057 26.0618 33.2648 28.5654 33.2648ZM28.5654 28.5731C23.4683 28.5731 19.3359 32.7096 19.3359 37.8118C19.3359 42.9141 23.4683 47.0506 28.5654 47.0506C33.6625 47.0506 37.7949 42.9141 37.7949 37.8118C37.7949 32.7096 33.6625 28.5731 28.5654 28.5731Z" fill="white"/>
<path d="M55.3789 17.5554C57.8825 17.5554 59.9213 19.5963 59.9213 22.1024C59.9213 24.6086 57.8825 26.6495 55.3789 26.6495C52.8752 26.6495 50.8364 24.6086 50.8364 22.1024C50.8364 19.5963 52.8752 17.5554 55.3789 17.5554ZM55.3789 12.8637C50.2818 12.8637 46.1494 17.0002 46.1494 22.1024C46.1494 27.2047 50.2818 31.3412 55.3789 31.3412C60.476 31.3412 64.6083 27.2047 64.6083 22.1024C64.6083 17.0002 60.476 12.8637 55.3789 12.8637Z" fill="white"/>
<path d="M15.9847 57.4663L11.3563 56.7273C11.5672 55.398 11.7938 53.5956 11.9812 51.5078C5.57568 45.647 1.77922 37.7532 0.759796 31.6696C-0.30259 25.3358 0.92384 20.6519 4.03678 19.1389C5.14995 18.5993 8.12228 17.7626 11.6531 21.6646C15.2817 25.6721 17.0979 32.9833 17.051 43.395C17.0393 45.561 16.9495 47.6293 16.8284 49.4786C17.5236 50.0182 18.254 50.5382 19.0274 51.0308C19.9608 51.6251 20.8553 51.5547 21.2185 51.3553C22.152 50.8392 23.066 48.0085 23.0543 44.3334L27.7413 44.3099C27.7491 45.8152 27.5772 53.4353 23.3628 55.7655C21.9841 56.5279 19.6796 57.0088 16.5081 54.9836C16.4495 54.9445 16.3909 54.9093 16.3323 54.8702C16.1488 56.4184 16.0003 57.3646 15.9847 57.4663ZM6.70447 23.6155C6.30217 23.4005 5.80612 23.5803 5.61474 23.9948C5.16166 24.9918 4.75546 27.1773 5.38039 30.8955C5.94283 34.254 7.98948 40.0248 12.3406 45.1661C12.5202 37.4952 11.7469 28.7569 8.18087 24.8236C7.60671 24.1864 7.08333 23.8227 6.70447 23.6155Z" fill="white"/>
<path d="M45.8408 36.1346C44.5753 36.1346 43.0013 35.6928 41.189 34.2853C40.2711 33.5737 39.4235 32.8465 38.6345 32.1075C37.9315 33.9959 37.3847 35.2158 37.2949 35.4152L33.0258 33.4799C33.6077 32.1935 34.3459 30.3364 35.0685 28.1587C30.2058 21.7662 29.202 15.2095 29.1121 11.3154C28.9793 5.63452 30.5807 1.79513 33.5023 0.782505C35.5763 0.0631086 37.7909 0.942805 39.4313 3.13227C44.1496 9.42699 42.4232 19.8113 40.2945 27.1069C41.3686 28.2877 42.6146 29.4528 44.0597 30.5749C44.9151 31.2396 45.6533 31.5484 46.0361 31.4038C46.7509 31.134 47.8054 29.3511 48.4226 26.0787L53.0275 26.9506C52.1097 31.826 50.313 34.8014 47.6961 35.7944C47.1883 35.9899 46.5634 36.1346 45.8408 36.1346ZM35.4825 5.70099C35.2326 5.41557 34.7756 5.47422 34.6037 5.81046C34.2014 6.60023 33.7288 8.23451 33.7952 11.2059C33.8577 13.8177 34.4124 17.8603 36.7441 22.1415C38.076 16.1987 38.4861 9.69285 35.6817 5.95121C35.6114 5.85738 35.545 5.77527 35.4825 5.70099ZM35.1623 34.4495L33.0258 33.4838L35.1623 34.4495Z" fill="white"/>
<path d="M68.0495 33.1553C63.7882 34.2579 59.6246 35.7397 55.5938 37.5421C51.5591 39.3484 47.6572 41.4753 43.9271 43.9267C40.2009 46.3781 36.6544 49.1541 33.3696 52.2701C30.0887 55.3862 27.0695 58.8503 24.4487 62.6584L34.0453 63.5264C34.061 63.5029 34.0766 63.4794 34.0922 63.456C37.6895 58.0097 42.2984 53.0912 47.5165 48.8569C50.7193 46.2569 54.1525 43.9072 57.7654 41.8389C61.3783 39.7706 65.167 37.9761 69.0884 36.5255L68.0495 33.1553Z" fill="white"/>
<path d="M84.6489 30.1409C84.6294 30.0666 84.6098 29.9963 84.5864 29.9259C84.3403 29.2339 83.692 28.7334 82.9303 28.7139H82.8874C82.8718 28.7139 82.8522 28.7139 82.8366 28.7178C82.7351 28.7217 82.6335 28.7334 82.5241 28.7491H82.5202C82.4382 28.7569 82.3562 28.7725 82.2664 28.7882C81.7469 28.8859 81.161 29.0384 80.5322 29.23L75.8452 25.7268C75.5952 25.5391 75.2398 25.6838 75.189 25.9927L75.1148 26.4384C75.0679 26.7121 75.1382 26.9936 75.3101 27.2164L77.6341 30.2465C74.9273 31.2982 71.7636 32.7761 71.7636 32.7761L71.2324 33.9217L71.0762 33.9686L71.1699 33.996L71.1152 34.0624L71.2519 34.0233L72.2401 34.7115C72.2401 34.7115 75.7827 34.2345 78.6222 33.6558L78.3059 37.4522C78.2824 37.7298 78.3762 38.0035 78.5636 38.2107L78.8683 38.5469C79.0753 38.7776 79.4542 38.7033 79.5635 38.414L81.6024 32.9442C82.2273 32.7644 82.7975 32.5767 83.2819 32.3773C83.3912 32.3343 83.4928 32.2874 83.5904 32.2366C83.7037 32.1857 83.817 32.1271 83.9185 32.0528C84.3872 31.7205 84.6919 31.1692 84.6919 30.5475C84.6919 30.4068 84.6762 30.27 84.6489 30.1409Z" fill="white"/>
<path d="M69.9241 31.8925L71.463 36.9869C71.5567 37.2958 71.9746 37.3388 72.1269 37.0534L73.5682 33.3L70.4279 31.4585C70.1428 31.3256 69.8342 31.5915 69.9241 31.8925Z" fill="white"/>
<path d="M60.8119 55.0031C60.6166 55.0031 60.4292 54.9053 60.3198 54.7333L56.7225 49.115C56.5585 48.8608 56.6171 48.5246 56.8514 48.3369C57.0741 48.161 58.2263 47.3126 59.1363 47.8326C59.9019 48.2666 60.5229 49.1658 60.683 49.7835C60.7494 50.0455 60.726 50.3309 60.6049 50.6437C61.0619 50.6202 61.5306 50.7102 61.8899 51.0425C62.5656 51.6641 62.7727 52.8292 62.5422 53.5291C62.1751 54.6356 61.0229 54.9718 60.9721 54.9874C60.9174 54.9953 60.8666 55.0031 60.8119 55.0031ZM59.9409 51.9691L61.0229 53.662C61.183 53.5525 61.347 53.3844 61.4252 53.1538C61.5306 52.8332 61.3978 52.1802 61.0932 51.9026C60.9135 51.7345 60.4018 51.8127 59.9409 51.9691ZM58.0271 48.9781L59.1754 50.7727C59.566 50.2644 59.5504 50.069 59.5464 50.065C59.4644 49.7484 59.0504 49.1267 58.5583 48.8491C58.488 48.81 58.2732 48.8608 58.0271 48.9781Z" fill="white"/>
<path d="M67.5574 51.2771C67.3543 51.2771 67.159 51.1715 67.0536 50.9878L63.6672 45.2404C63.5149 44.9785 63.5813 44.6461 63.8274 44.4702C64.0539 44.3021 65.2413 43.5006 66.1318 44.0479C66.8817 44.5093 67.4715 45.432 67.6043 46.0536C67.6629 46.3195 67.6277 46.601 67.4949 46.9099C67.9519 46.906 68.4167 47.0115 68.7643 47.3556C69.4166 48.0007 69.5807 49.1736 69.3229 49.8618C68.9167 50.9526 67.7527 51.2497 67.702 51.2614C67.6512 51.2693 67.6043 51.2771 67.5574 51.2771ZM66.7802 48.2118L67.7996 49.94C67.9636 49.8344 68.1355 49.6741 68.2214 49.4473C68.3386 49.1306 68.2292 48.4738 67.9363 48.1845C67.7605 48.0124 67.245 48.075 66.7802 48.2118ZM64.9757 45.1544L66.0576 46.9881C66.4677 46.4915 66.456 46.2961 66.456 46.2961C66.3857 45.9755 65.9951 45.3421 65.5147 45.0449C65.4405 44.998 65.2178 45.0488 64.9757 45.1544Z" fill="white"/>
<path d="M63.8585 53.232C63.6476 53.232 63.4406 53.1186 63.3391 52.9153L60.855 48.1297C60.3824 47.3321 60.1246 46.2687 60.8706 45.7682C61.2182 45.5337 62.1361 45.131 63.1594 46.4134C63.6047 46.9685 65.9872 50.8001 66.2567 51.2341C66.4286 51.5078 66.3426 51.8714 66.0692 52.0434C65.7958 52.2154 65.4326 52.1294 65.2607 51.8557C64.214 50.1706 62.5462 47.5276 62.2454 47.1484C61.8666 46.6753 61.6752 46.6714 61.5775 46.7144C61.5736 46.8825 61.7142 47.2735 61.8822 47.5628L64.3819 52.3757C64.5303 52.6651 64.421 53.0169 64.1319 53.1655C64.0421 53.2085 63.9523 53.232 63.8585 53.232Z" fill="white"/>
<path d="M62.4563 50.2997C62.2454 50.2997 62.0423 50.1863 61.9368 49.9869C61.7884 49.7015 61.8977 49.3457 62.1829 49.1932L63.8038 48.3408C64.0889 48.1884 64.4444 48.3018 64.5967 48.5872C64.7451 48.8726 64.6357 49.2284 64.3506 49.3809L62.7297 50.2332C62.6399 50.2801 62.55 50.2997 62.4563 50.2997Z" fill="white"/>
<path d="M71.7171 49.1267C71.5101 49.1267 71.3109 49.0172 71.2054 48.8257L69.8891 46.4407C69.7329 46.1592 69.8345 45.7995 70.1196 45.6431C70.4008 45.4867 70.7601 45.5884 70.9164 45.8738L72.2326 48.2588C72.3889 48.5403 72.2873 48.9 72.0022 49.0563C71.9084 49.1033 71.8108 49.1267 71.7171 49.1267Z" fill="white"/>
<path d="M70.2482 46.7809C69.5451 46.7809 68.9358 45.9442 68.6507 45.5493L68.6077 45.4906C68.2406 44.998 67.1118 43.6765 67.1001 43.6609C66.8892 43.4146 66.9204 43.0431 67.1665 42.8359C67.4125 42.6248 67.7836 42.6561 67.9906 42.9024C68.0375 42.9571 69.1545 44.2669 69.5451 44.7908L69.5959 44.8612C69.7404 45.0606 69.8576 45.2052 69.9552 45.3147C69.9513 45.2991 69.9474 45.2873 69.9435 45.2756C69.9279 45.2091 69.9123 45.1466 69.8967 45.0879C69.8263 44.7791 69.4201 43.266 69.217 42.5075C69.1311 42.1947 69.3186 41.8741 69.6311 41.7881C69.9435 41.7021 70.2638 41.8898 70.3497 42.2025C70.3732 42.2925 70.9473 44.4233 71.0411 44.8299C71.0528 44.8807 71.0645 44.9316 71.0801 44.9863C71.1895 45.4125 71.416 46.3 70.6622 46.6831C70.5216 46.7496 70.3849 46.7809 70.2482 46.7809Z" fill="white"/>
</svg>
