<svg width="1366" height="653" viewBox="0 0 1366 653" fill="none" xmlns="http://www.w3.org/2000/svg">
<path fill-rule="evenodd" clip-rule="evenodd" d="M0 16.4721V0C13.2827 0 20.4079 2.54666 26.7002 4.83698L26.9018 4.91037C31.9048 6.73201 36.1749 8.28679 45.5337 8.28679C54.8924 8.28679 59.1625 6.73201 64.1656 4.91037L64.3671 4.83698C70.6595 2.54666 77.7847 0 91.0673 0C104.35 0 111.475 2.54666 117.768 4.83698L117.969 4.91037C122.972 6.73201 127.242 8.28679 136.601 8.28679C145.96 8.28679 150.23 6.73201 155.233 4.91036L155.434 4.83698C161.727 2.54666 168.852 0 182.135 0C195.417 0 202.543 2.54666 208.835 4.83698L209.036 4.91037C214.04 6.73201 218.31 8.28679 227.668 8.28679C237.027 8.28679 241.297 6.73201 246.3 4.91037L246.502 4.83698C252.794 2.54666 259.919 0 273.202 0C286.485 0 293.61 2.54666 299.902 4.83698L300.104 4.91036C305.107 6.73201 309.377 8.28679 318.736 8.28679C328.094 8.28679 332.365 6.73201 337.368 4.91037L337.569 4.83698C343.862 2.54666 350.987 0 364.269 0C377.552 0 384.677 2.54666 390.97 4.83698L391.171 4.91035C396.174 6.732 400.444 8.28679 409.803 8.28679C419.162 8.28679 423.432 6.73201 428.435 4.91037L428.636 4.83698C434.929 2.54666 442.054 0 455.337 0C468.619 0 475.745 2.54666 482.037 4.83698L482.238 4.91036C487.241 6.73201 491.512 8.28679 500.87 8.28679C510.23 8.28679 514.5 6.73171 519.502 4.91016L519.702 4.83726C525.992 2.54711 533.115 0 546.394 0C559.677 0 566.802 2.54663 573.094 4.83726L573.297 4.91116C578.298 6.73274 582.565 8.28679 591.918 8.28679C601.276 8.28679 605.546 6.73203 610.549 4.9104L610.751 4.83698C617.043 2.54666 624.169 0 637.451 0C650.734 0 657.859 2.54666 664.151 4.83698L664.353 4.91037C669.356 6.73201 673.626 8.28679 682.985 8.28679C692.344 8.28679 696.614 6.73199 701.617 4.91034L701.818 4.83698C708.111 2.54666 715.236 0 728.519 0C741.801 0 748.926 2.54666 755.219 4.83698L755.42 4.91037C760.423 6.73201 764.693 8.28679 774.052 8.28679C783.411 8.28679 787.681 6.73199 792.684 4.91034L792.886 4.83698C799.178 2.54666 806.303 0 819.586 0C832.869 0 839.994 2.54666 846.286 4.83698L846.488 4.91033C851.491 6.73199 855.761 8.28679 865.12 8.28679C874.478 8.28679 878.749 6.73199 883.752 4.91034L883.953 4.83698C890.245 2.54666 897.371 0 910.653 0C923.936 0 931.061 2.54666 937.353 4.83698L937.555 4.91037C942.558 6.73201 946.828 8.28679 956.187 8.28679C965.546 8.28679 969.816 6.73201 974.819 4.91037L975.02 4.83698C981.313 2.54666 988.438 0 1001.72 0C1015 0 1022.13 2.54666 1028.42 4.83698L1028.62 4.9104C1033.63 6.73203 1037.9 8.28679 1047.25 8.28679C1056.61 8.28679 1060.88 6.73206 1065.89 4.91045L1066.09 4.83698C1072.38 2.54666 1079.51 0 1092.79 0C1106.07 0 1113.2 2.54666 1119.49 4.83699L1119.69 4.9104C1124.69 6.73203 1128.96 8.28679 1138.32 8.28679C1147.68 8.28679 1151.95 6.73199 1156.95 4.91033L1157.16 4.83698C1163.45 2.54666 1170.57 0 1183.86 0C1197.14 0 1204.26 2.54666 1210.56 4.83699L1210.76 4.9104C1215.76 6.73203 1220.03 8.28679 1229.39 8.28679C1238.75 8.28679 1243.02 6.73206 1248.02 4.91045L1248.22 4.83698C1254.51 2.54666 1261.64 0 1274.92 0C1288.21 0 1295.33 2.54669 1301.62 4.8367L1301.82 4.90958C1306.83 6.73128 1311.1 8.28679 1320.47 8.28679C1329.82 8.28679 1334.09 6.73229 1339.1 4.91053L1339.3 4.8367C1345.6 2.54621 1352.72 0 1366.01 0V23C1366.01 23 1366 23 1366 23V652.897H0V23V16.4721Z" fill="#EC422B"/>
</svg>
