<svg width="414" height="10" viewBox="0 0 414 10" fill="none" xmlns="http://www.w3.org/2000/svg">
<path fill-rule="evenodd" clip-rule="evenodd" d="M414 0.270115C409.104 0.898486 406.058 2.52634 403.084 4.11835L403.072 4.1244C399.396 6.09213 395.832 8 388.606 8C381.387 8 377.824 6.09327 374.149 4.126L374.135 4.11835C370.342 2.08821 366.431 0 358.713 0C351 0 347.091 2.08832 343.298 4.11835L343.287 4.12443C339.61 6.09215 336.046 8 328.82 8C321.601 8 318.039 6.09328 314.363 4.12602L314.349 4.11835C310.556 2.08821 306.645 0 298.928 0C291.214 0 287.305 2.08832 283.513 4.11835L283.501 4.1244C279.825 6.09213 276.26 8 269.035 8C261.816 8 258.253 6.09325 254.578 4.12597L254.564 4.11835C250.771 2.08821 246.86 0 239.142 0C231.429 0 227.52 2.08832 223.727 4.11835L223.716 4.1244C220.039 6.09213 216.475 8 209.249 8C202.03 8 198.468 6.09327 194.792 4.12601L194.778 4.11835C190.985 2.08821 187.074 0 179.357 0C171.643 0 167.734 2.08832 163.941 4.11835L163.93 4.12442C160.254 6.09214 156.689 8 149.464 8C142.245 8 138.682 6.09327 135.007 4.126L134.992 4.11835C131.2 2.08821 127.289 0 119.571 0C111.858 0 107.949 2.08832 104.156 4.11835L104.145 4.12442C100.468 6.09214 96.9038 8 89.6783 8C82.459 8 78.8967 6.09327 75.2212 4.126L75.2069 4.11835C71.414 2.08821 67.5031 0 59.7855 0C52.072 0 48.1631 2.08832 44.3704 4.11835L44.359 4.12441C40.6828 6.09214 37.1183 8 29.8928 8C22.6735 8 19.1111 6.09327 15.4357 4.126L15.4214 4.11835C11.6285 2.08821 7.71758 0 0 0V2C7.22553 2 10.79 3.90786 14.4663 5.87559L14.4776 5.88165C18.2703 7.91168 22.1792 10 29.8928 10C37.6104 10 41.5213 7.91179 45.3142 5.88165L45.3285 5.87399C49.0039 3.90673 52.5662 2 59.7855 2C67.0111 2 70.5755 3.90787 74.2518 5.8756L74.2631 5.88165C78.0558 7.91168 81.9648 10 89.6783 10C97.3959 10 101.307 7.91179 105.1 5.88165L105.114 5.874C108.789 3.90673 112.352 2 119.571 2C126.797 2 130.361 3.90786 134.037 5.87558L134.049 5.88165C137.841 7.91168 141.75 10 149.464 10C157.181 10 161.092 7.91179 164.885 5.88165L164.9 5.87399C168.575 3.90673 172.137 2 179.357 2C186.582 2 190.147 3.90785 193.823 5.87557L193.834 5.88165C197.627 7.91168 201.536 10 209.249 10C216.967 10 220.878 7.91179 224.671 5.88165L224.685 5.874C228.361 3.90673 231.923 2 239.142 2C246.368 2 249.932 3.90786 253.608 5.87558L253.62 5.88165C257.412 7.91168 261.321 10 269.035 10C276.753 10 280.663 7.91179 284.456 5.88165L284.471 5.87398C288.146 3.90672 291.708 2 298.928 2C306.153 2 309.718 3.90787 313.394 5.8756L313.405 5.88165C317.198 7.91168 321.107 10 328.82 10C336.538 10 340.449 7.91179 344.242 5.88165L344.256 5.874C347.932 3.90673 351.494 2 358.713 2C365.939 2 369.503 3.90785 373.179 5.87557L373.191 5.88165C376.984 7.91168 380.892 10 388.606 10C396.324 10 400.234 7.91179 404.027 5.88165L404.042 5.87398C406.861 4.36513 409.613 2.8919 414 2.28724V0.270115Z" fill="#FFCAD4"/>
</svg>
