<svg width="2735" height="31" viewBox="0 0 2735 31" fill="none" xmlns="http://www.w3.org/2000/svg">
<path fill-rule="evenodd" clip-rule="evenodd" d="M0 20C9.23791 20 13.4356 21.8987 18.4932 24.1863L18.6631 24.2632C24.9205 27.0929 32.1246 30.303 45.567 30.303C59.0094 30.303 66.2135 27.0929 72.4709 24.2632L72.6408 24.1863C77.6984 21.8987 81.8961 20 91.134 20C100.372 20 104.57 21.8987 109.627 24.1863L109.797 24.2632C116.055 27.0929 123.259 30.303 136.701 30.303C150.143 30.303 157.347 27.0929 163.605 24.2632L163.775 24.1863C168.832 21.8987 173.03 20 182.268 20C191.506 20 195.704 21.8987 200.761 24.1863L200.931 24.2632C207.189 27.0929 214.393 30.303 227.835 30.303C241.277 30.303 248.481 27.0929 254.739 24.2632L254.909 24.1863C259.966 21.8987 264.164 20 273.402 20C282.64 20 286.838 21.8987 291.895 24.1864L292.065 24.2632C298.323 27.0929 305.527 30.303 318.969 30.303C332.411 30.303 339.616 27.0929 345.873 24.2632L346.043 24.1864C351.1 21.8987 355.298 20 364.536 20C373.774 20 377.972 21.8987 383.029 24.1863L383.199 24.2632C389.457 27.0929 396.661 30.303 410.103 30.303C423.545 30.303 430.749 27.0929 437.007 24.2632L437.177 24.1863C442.234 21.8987 446.432 20 455.67 20C464.908 20 469.106 21.8987 474.163 24.1864L474.333 24.2632C480.591 27.0929 487.795 30.303 501.237 30.303C514.679 30.303 521.884 27.0929 528.14 24.2628L528.312 24.1854C533.368 21.8978 537.563 20 546.794 20C556.033 20 560.23 21.8991 565.287 24.1866L565.455 24.2628C571.711 27.0923 578.913 30.303 592.351 30.303C605.793 30.303 612.997 27.0929 619.255 24.2632L619.425 24.1863C624.482 21.8987 628.68 20 637.918 20C647.156 20 651.354 21.8987 656.411 24.1864L656.581 24.2632C662.838 27.0929 670.042 30.303 683.485 30.303C696.927 30.303 704.131 27.0929 710.389 24.2632L710.559 24.1864C715.616 21.8987 719.814 20 729.052 20C738.29 20 742.487 21.8987 747.545 24.1864L747.715 24.2632C753.972 27.0929 761.176 30.303 774.619 30.303C788.061 30.303 795.265 27.0929 801.523 24.2632L801.693 24.1864C806.75 21.8987 810.948 20 820.186 20C829.424 20 833.622 21.8987 838.679 24.1864L838.849 24.2632C845.106 27.0929 852.31 30.303 865.753 30.303C879.195 30.303 886.399 27.0929 892.657 24.2632L892.827 24.1863C897.884 21.8987 902.082 20 911.32 20C920.558 20 924.756 21.8987 929.813 24.1864L929.983 24.2632C936.24 27.0929 943.445 30.303 956.887 30.303C970.329 30.303 977.533 27.0929 983.791 24.2632L983.961 24.1863C989.018 21.8987 993.216 20 1002.45 20C1011.69 20 1015.89 21.8987 1020.95 24.1864L1021.12 24.2632C1027.37 27.0929 1034.58 30.303 1048.02 30.303C1061.46 30.303 1068.67 27.0929 1074.92 24.2632L1075.09 24.1864C1080.15 21.8987 1084.35 20 1093.59 20C1102.83 20 1107.02 21.8987 1112.08 24.1863L1112.25 24.2632C1118.51 27.0929 1125.71 30.303 1139.15 30.303C1152.6 30.303 1159.8 27.0929 1166.06 24.2632L1166.23 24.1864C1171.29 21.8987 1175.48 20 1184.72 20C1193.96 20 1198.16 21.8987 1203.22 24.1864L1203.39 24.2632C1209.64 27.0929 1216.85 30.303 1230.29 30.303C1243.73 30.303 1250.94 27.0929 1257.19 24.2632L1257.36 24.1863C1262.42 21.8986 1266.62 20 1275.86 20C1285.09 20 1289.29 21.8984 1294.35 24.1861L1294.52 24.2635C1300.78 27.0935 1307.99 30.303 1321.43 30.303C1334.88 30.303 1342.08 27.0928 1348.34 24.2635L1348.51 24.1873C1353.56 21.8996 1357.77 20 1367.01 20C1376.25 20 1380.45 21.8987 1385.5 24.1863L1385.67 24.2632C1391.93 27.0929 1399.13 30.303 1412.58 30.303C1426.02 30.303 1433.22 27.0929 1439.48 24.2632L1439.65 24.1863C1444.71 21.8987 1448.91 20 1458.14 20C1467.38 20 1471.58 21.8987 1476.64 24.1863L1476.81 24.2632C1483.06 27.0929 1490.27 30.303 1503.71 30.303C1517.15 30.303 1524.36 27.0929 1530.61 24.2632L1530.78 24.1863C1535.84 21.8987 1540.04 20 1549.28 20C1558.52 20 1562.71 21.8987 1567.77 24.1863L1567.94 24.2632C1574.2 27.0929 1581.4 30.303 1594.85 30.303C1608.29 30.303 1615.49 27.0929 1621.75 24.2632L1621.92 24.1863C1626.98 21.8987 1631.17 20 1640.41 20C1649.65 20 1653.85 21.8987 1658.91 24.1864L1659.08 24.2632C1665.33 27.0929 1672.54 30.303 1685.98 30.303C1699.42 30.303 1706.63 27.0929 1712.88 24.2632L1713.05 24.1864C1718.11 21.8987 1722.31 20 1731.55 20C1740.78 20 1744.98 21.8987 1750.04 24.1863L1750.21 24.2632C1756.47 27.0929 1763.67 30.303 1777.11 30.303C1790.56 30.303 1797.76 27.0929 1804.02 24.2632L1804.19 24.1863C1809.24 21.8987 1813.44 20 1822.68 20C1831.92 20 1836.12 21.8987 1841.17 24.1864L1841.34 24.2632C1847.6 27.0929 1854.8 30.303 1868.25 30.303C1881.69 30.303 1888.89 27.0929 1895.15 24.2628L1895.32 24.1854C1900.38 21.8978 1904.57 20 1913.8 20C1923.04 20 1927.24 21.8991 1932.3 24.1866L1932.47 24.2628C1938.72 27.0923 1945.92 30.303 1959.36 30.303C1972.8 30.303 1980.01 27.0929 1986.26 24.2632L1986.43 24.1863C1991.49 21.8987 1995.69 20 2004.93 20C2014.17 20 2018.36 21.8987 2023.42 24.1864L2023.59 24.2632C2029.85 27.0929 2037.05 30.303 2050.5 30.303C2063.94 30.303 2071.14 27.0929 2077.4 24.2632L2077.57 24.1864C2082.63 21.8987 2086.82 20 2096.06 20C2105.3 20 2109.5 21.8987 2114.56 24.1864L2114.73 24.2632C2120.98 27.0929 2128.19 30.303 2141.63 30.303C2155.07 30.303 2162.28 27.0929 2168.53 24.2632L2168.7 24.1864C2173.76 21.8987 2177.96 20 2187.2 20C2196.43 20 2200.63 21.8987 2205.69 24.1864L2205.86 24.2632C2212.12 27.0929 2219.32 30.303 2232.76 30.303C2246.21 30.303 2253.41 27.0929 2259.67 24.2632L2259.84 24.1863C2264.89 21.8987 2269.09 20 2278.33 20C2287.57 20 2291.77 21.8987 2296.82 24.1864L2296.99 24.2632C2303.25 27.0929 2310.45 30.303 2323.9 30.303C2337.34 30.303 2344.54 27.0929 2350.8 24.2632L2350.97 24.1863C2356.03 21.8987 2360.23 20 2369.46 20C2378.7 20 2382.9 21.8987 2387.96 24.1864L2388.13 24.2632C2394.38 27.0929 2401.59 30.303 2415.03 30.303C2428.47 30.303 2435.68 27.0929 2441.94 24.2632L2442.1 24.1864C2447.16 21.8987 2451.36 20 2460.6 20C2469.84 20 2474.03 21.8987 2479.09 24.1863L2479.26 24.2632C2485.52 27.0929 2492.72 30.303 2506.17 30.303C2519.61 30.303 2526.81 27.0929 2533.07 24.2632L2533.24 24.1864C2538.3 21.8987 2542.49 20 2551.73 20C2560.97 20 2565.17 21.8987 2570.23 24.1864L2570.4 24.2632C2576.65 27.0929 2583.86 30.303 2597.3 30.303C2610.74 30.303 2617.95 27.0929 2624.2 24.2632L2624.37 24.1863C2629.43 21.8986 2633.63 20 2642.87 20C2652.1 20 2656.3 21.8984 2661.36 24.1861L2661.53 24.2635C2667.79 27.0935 2675 30.303 2688.44 30.303C2701.89 30.303 2709.09 27.0928 2715.35 24.2635L2715.52 24.1873C2720.57 21.8996 2724.78 20 2734.02 20V0C2720.57 0 2713.37 3.20957 2707.11 6.03952L2706.94 6.11689C2701.88 8.40466 2697.68 10.303 2688.44 10.303C2679.2 10.303 2675 8.40343 2669.94 6.11575L2669.77 6.03953C2663.51 3.21019 2656.31 0 2642.87 0C2629.42 0 2622.22 3.21016 2615.96 6.03986L2615.79 6.11677L2615.79 6.11704C2610.73 8.40453 2606.54 10.303 2597.3 10.303C2588.06 10.303 2583.86 8.40435 2578.81 6.11671L2578.64 6.03987C2572.38 3.21016 2565.17 0 2551.73 0C2538.29 0 2531.09 3.21016 2524.83 6.03986L2524.66 6.11661L2524.66 6.1169C2519.6 8.40445 2515.4 10.303 2506.17 10.303C2496.93 10.303 2492.73 8.40434 2487.67 6.11671L2487.5 6.03987C2481.24 3.21016 2474.04 0 2460.6 0C2447.16 0 2439.95 3.21016 2433.69 6.03986L2433.52 6.11661C2428.47 8.40429 2424.27 10.303 2415.03 10.303C2405.79 10.303 2401.6 8.40429 2396.54 6.11662L2396.37 6.03987C2390.11 3.21016 2382.91 0 2369.46 0C2356.02 0 2348.82 3.21016 2342.56 6.03987L2342.39 6.1167C2337.33 8.40434 2333.13 10.303 2323.9 10.303C2314.66 10.303 2310.46 8.40432 2305.4 6.11666L2305.23 6.03987C2298.98 3.21016 2291.77 0 2278.33 0C2264.89 0 2257.68 3.21016 2251.43 6.03987L2251.26 6.11666C2246.2 8.40432 2242 10.303 2232.76 10.303C2223.53 10.303 2219.33 8.40434 2214.27 6.11669L2214.1 6.03986C2207.84 3.21016 2200.64 0 2187.2 0C2173.75 0 2166.55 3.21016 2160.29 6.03987L2160.12 6.11666C2155.06 8.40432 2150.87 10.303 2141.63 10.303C2132.39 10.303 2128.19 8.40436 2123.14 6.11674L2122.97 6.03987C2116.71 3.21016 2109.5 0 2096.06 0C2082.62 0 2075.42 3.21016 2069.16 6.03987L2068.99 6.11674L2068.99 6.11702C2063.93 8.40452 2059.73 10.303 2050.5 10.303C2041.26 10.303 2037.06 8.40432 2032 6.11666L2031.83 6.03987C2025.57 3.21016 2018.37 0 2004.93 0C1991.49 0 1984.28 3.21016 1978.02 6.03987L1977.85 6.11666C1972.8 8.40432 1968.6 10.303 1959.36 10.303C1950.13 10.303 1945.94 8.40523 1940.88 6.11762L1940.71 6.04021C1934.45 3.21012 1927.25 0 1913.8 0C1900.37 0 1893.16 3.21075 1886.91 6.04021L1886.74 6.11648C1881.68 8.404 1877.49 10.303 1868.25 10.303C1859.01 10.303 1854.81 8.40433 1849.75 6.11667L1849.58 6.03986C1843.33 3.21016 1836.12 0 1822.68 0C1809.24 0 1802.03 3.21016 1795.78 6.03987L1795.61 6.11666C1790.55 8.40432 1786.35 10.303 1777.11 10.303C1767.88 10.303 1763.68 8.40434 1758.62 6.1167L1758.45 6.03987C1752.19 3.21016 1744.99 0 1731.55 0C1718.1 0 1710.9 3.21016 1704.64 6.03987L1704.47 6.1167C1699.41 8.40434 1695.22 10.303 1685.98 10.303C1676.74 10.303 1672.54 8.40434 1667.49 6.1167L1667.32 6.03986C1661.06 3.21016 1653.85 0 1640.41 0C1626.97 0 1619.77 3.21016 1613.51 6.03987L1613.34 6.11668C1608.28 8.40433 1604.08 10.303 1594.85 10.303C1585.61 10.303 1581.41 8.40434 1576.35 6.11669L1576.18 6.03987C1569.92 3.21016 1562.72 0 1549.28 0C1535.84 0 1528.63 3.21016 1522.37 6.03987L1522.2 6.11669C1517.15 8.40434 1512.95 10.303 1503.71 10.303C1494.47 10.303 1490.28 8.40433 1485.22 6.11668L1485.05 6.03987C1478.79 3.21016 1471.59 0 1458.14 0C1444.7 0 1437.5 3.21016 1431.24 6.03987L1431.07 6.11668C1426.01 8.40433 1421.82 10.303 1412.58 10.303C1403.34 10.303 1399.14 8.40433 1394.08 6.11668L1393.91 6.03987C1387.66 3.21016 1380.45 0 1367.01 0C1353.56 0 1346.36 3.20957 1340.1 6.03952L1339.93 6.11689L1339.93 6.11704C1334.87 8.40475 1330.67 10.303 1321.43 10.303C1312.19 10.303 1307.99 8.40343 1302.93 6.11575L1302.76 6.03953C1296.5 3.21019 1289.3 0 1275.86 0C1262.41 0 1255.21 3.21016 1248.95 6.03986L1248.78 6.11677C1243.72 8.40438 1239.53 10.303 1230.29 10.303C1221.05 10.303 1216.85 8.40435 1211.8 6.11671L1211.63 6.03987C1205.37 3.21016 1198.16 0 1184.72 0C1171.28 0 1164.08 3.21016 1157.82 6.03986L1157.65 6.11661L1157.65 6.11674C1152.59 8.40437 1148.39 10.303 1139.15 10.303C1129.92 10.303 1125.72 8.40434 1120.66 6.11671L1120.49 6.03987C1114.23 3.21016 1107.03 0 1093.59 0C1080.15 0 1072.94 3.21016 1066.68 6.03986L1066.51 6.11661L1066.51 6.11674C1061.46 8.40437 1057.26 10.303 1048.02 10.303C1038.78 10.303 1034.59 8.40437 1029.53 6.11675L1029.53 6.11662L1029.36 6.03987C1023.1 3.21016 1015.9 0 1002.45 0C989.011 0 981.807 3.21016 975.55 6.03987L975.38 6.1167C970.323 8.40434 966.125 10.303 956.887 10.303C947.649 10.303 943.451 8.40432 938.394 6.11666L938.224 6.03987C931.966 3.21016 924.762 0 911.32 0C897.878 0 890.673 3.21016 884.416 6.03987L884.246 6.11666C879.189 8.40432 874.991 10.303 865.753 10.303C856.515 10.303 852.317 8.40434 847.26 6.11669L847.09 6.03986C840.832 3.21016 833.628 0 820.186 0C806.743 0 799.539 3.21016 793.282 6.03987L793.112 6.11666C788.055 8.40432 783.857 10.303 774.619 10.303C765.381 10.303 761.183 8.40436 756.126 6.11674L755.956 6.03987C749.698 3.21016 742.494 0 729.052 0C715.609 0 708.405 3.21016 702.148 6.03987L701.978 6.11674C696.92 8.40436 692.723 10.303 683.485 10.303C674.247 10.303 670.049 8.40432 664.992 6.11666L664.822 6.03987C658.564 3.21016 651.36 0 637.918 0C624.475 0 617.271 3.21016 611.014 6.03987L610.844 6.11666C605.786 8.40432 601.589 10.303 592.351 10.303C583.12 10.303 578.925 8.40523 573.868 6.11762L573.697 6.04021C567.44 3.21012 560.236 0 546.794 0C533.356 0 526.154 3.21075 519.898 6.04021L519.729 6.11648C514.673 8.404 510.476 10.303 501.237 10.303C491.999 10.303 487.801 8.40433 482.744 6.11667L482.574 6.03986C476.316 3.21016 469.112 0 455.67 0C442.228 0 435.024 3.21016 428.766 6.03987L428.596 6.11666C423.539 8.40432 419.341 10.303 410.103 10.303C400.865 10.303 396.667 8.40434 391.61 6.1167L391.44 6.03987C385.182 3.21016 377.978 0 364.536 0C351.094 0 343.89 3.21016 337.632 6.03987L337.462 6.1167C332.405 8.40434 328.207 10.303 318.969 10.303C309.731 10.303 305.533 8.40434 300.476 6.1167L300.306 6.03986C294.048 3.21016 286.844 0 273.402 0C259.96 0 252.756 3.21016 246.498 6.03987L246.328 6.11668C241.271 8.40433 237.073 10.303 227.835 10.303C218.597 10.303 214.399 8.40434 209.342 6.11669L209.172 6.03987C202.914 3.21016 195.71 0 182.268 0C168.826 0 161.622 3.21016 155.364 6.03987L155.194 6.11669C150.137 8.40434 145.939 10.303 136.701 10.303C127.463 10.303 123.265 8.40433 118.208 6.11668L118.038 6.03987C111.78 3.21016 104.576 0 91.134 0C77.6916 0 70.4875 3.21016 64.2301 6.03987L64.0602 6.11668C59.0026 8.40433 54.8049 10.303 45.567 10.303C36.3291 10.303 32.1314 8.40433 27.0738 6.11668L26.9039 6.03987C20.6465 3.21016 13.4424 0 0 0V20Z" fill="white"/>
</svg>
