<svg width="1136" height="10" viewBox="0 0 1136 10" fill="none" xmlns="http://www.w3.org/2000/svg">
<path d="M0 1C14.9505 1 14.9505 9 29.8928 9C44.8433 9 44.8433 1 59.7855 1C74.7361 1 74.7361 9 89.6783 9C104.629 9 104.629 1 119.571 1C134.522 1 134.522 9 149.464 9C164.414 9 164.414 1 179.357 1C194.307 1 194.307 9 209.249 9C224.2 9 224.2 1 239.142 1C254.093 1 254.093 9 269.035 9C283.985 9 283.985 1 298.928 1C313.878 1 313.878 9 328.82 9C343.771 9 343.771 1 358.713 1C373.664 1 373.664 9 388.606 9C403.557 9 403.557 1 418.499 1C433.441 1 433.441 9 448.392 9C463.342 9 463.342 1 478.284 1C493.235 1 493.235 9 508.177 9C523.128 9 523.128 1 538.07 1C553.012 1 553.012 9 567.963 9C582.913 9 582.913 1 597.855 1C612.806 1 612.806 9 627.748 9C642.699 9 642.699 1 657.641 1C672.591 1 672.591 9 687.542 9C702.493 9 702.493 1 717.435 1C732.385 1 732.385 9 747.328 9C762.278 9 762.278 1 777.22 1C792.171 1 792.171 9 807.113 9C822.064 9 822.064 1 837.006 1C851.956 1 851.956 9 866.907 9C881.857 9 881.857 1 896.808 1C911.759 1 911.759 9 926.701 9C941.651 9 941.651 1 956.593 1C971.544 1 971.544 9 986.495 9C1001.45 9 1001.45 1 1016.4 1C1031.35 1 1031.35 9 1046.3 9C1061.25 9 1061.25 1 1076.2 1C1091.15 1 1091.15 9 1106.1 9C1121.05 9 1121.05 1 1136 1" stroke="#FFCAD4" stroke-width="2" stroke-miterlimit="10"/>
</svg>
