<?xml version="1.0" encoding="utf-8"?>
<!-- Generator: Adobe Illustrator 25.2.1, SVG Export Plug-In . SVG Version: 6.00 Build 0)  -->
<svg version="1.1" id="Layer_1" xmlns="http://www.w3.org/2000/svg" xmlns:xlink="http://www.w3.org/1999/xlink" x="0px" y="0px"
	 viewBox="0 0 283 283.1" style="enable-background:new 0 0 283 283.1;" xml:space="preserve">
<style type="text/css">
	.st0{fill:#00519F;}
	.st1{fill:#A9DDE2;}
	.st2{fill:#FFCD03;}
	.st3{fill:#EE2F76;}
	.st4{fill:#F4EFEB;}
	.st5{fill:#FFFFFF;}
	.st6{fill:#F04A30;}
	.st7{fill:#00AAD7;}
	.st8{fill:#F599B3;}
	.st9{fill:#00A87F;}
</style>
<g>
	<path class="st0" d="M283.7,224.8v6.8C285.4,229.9,284.5,226.8,283.7,224.8z"/>
	<rect class="st1" width="283.1" height="283.1"/>
	<path class="st2" d="M102.9,40.3c0.3,0.5,0.9,0.5,1.3,0.2c1.2-0.6,0.9-3.6-0.4-3.7C102.1,37,102.2,39.3,102.9,40.3z"/>
	<path class="st2" d="M99.4,45.4c-0.4,1.4,0.8,2.9,1.8,1.2C102.6,44.8,100.1,42.8,99.4,45.4z"/>
	<path class="st2" d="M99.3,41.1c0.9-0.8,0.2-3.3-1.1-2.2C97.1,39.8,97.9,42.8,99.3,41.1z"/>
	<path class="st2" d="M94.5,43.5c-1.3,0.3-0.9,3.7,0.6,2.7C95.9,45.5,96,43.3,94.5,43.5z"/>
	<path class="st2" d="M97.2,50.1c-1.6-0.5-1.7,3.4,0.1,2.5C98.4,52.6,98.1,50.4,97.2,50.1z"/>
	<path class="st2" d="M105.1,45.4c0.9,1.1,1.8-1,1.4-1.8C105.1,42.1,104.3,44.1,105.1,45.4z"/>
	<path class="st3" d="M12.8,97.4c4.5,0.7,7.9-4.3,4.5-7.8C11,83.3,4.4,95.7,12.8,97.4z"/>
	<path class="st3" d="M12.6,82.5c4.5,0.7,7.9-4.3,4.5-7.8C10.8,68.4,4.1,80.8,12.6,82.5z"/>
	<path class="st3" d="M12.4,67.6c4.5,0.7,7.9-4.3,4.5-7.8C10.6,53.4,3.9,65.8,12.4,67.6z"/>
	<path class="st4" d="M101.6,264c-6.4,6-12,12.7-17.9,19.1h12.1c3.6-8,7.5-15.9,10.5-24.2C105,260.7,103.3,262.4,101.6,264z"/>
	<path class="st4" d="M78.8,262.1c-0.2-4-0.5-8.1-1.1-12.1c-1.9,5.4-3,11.3-5.4,16.6c-2.4,5.2-3.1,10.9-4.1,16.5h11.8
		C79.5,276.1,79,269.1,78.8,262.1z"/>
	<path class="st4" d="M62.4,274.7c-2.5-7.7-3.9-15.9-7.6-23.2c-0.9,10.5-0.7,21.1-0.3,31.6h10.4C64.3,280.3,63.4,277.5,62.4,274.7z"
		/>
	<path class="st5" d="M230.1,262.9c9.9-14.2,27.3-19,43.3-20.5c-25.2-0.1-51.5,13.5-55.7,40.7h3.6
		C222.9,276.1,224.9,268,230.1,262.9z"/>
	<path class="st0" d="M273.3,242.4c-24.3,1.5-48,14.6-52.1,40.7h26.9c1.9-15.3,22-26.7,35-17.7v-22.4
		C279.9,242.5,276.6,242.3,273.3,242.4z"/>
	<path class="st2" d="M159.5,251.5c-5.7,1.6-11,4.5-16.1,7.5c-9.9,5.4-19.9,12.7-23,24.1h36.9c6.7-7.6,16.2-12,24.6-17.3
		c2.4-1.4,4.8-2.8,7.2-4.3c2.5-1.2,6.2-3.4,4.1-6.6C182.4,251.2,170.8,248.4,159.5,251.5z"/>
	<path class="st0" d="M10.7,246.9c-3.5-1.9-7-3.1-10.7-3.8v22.4c5.3,3.9,8.3,10.6,9.1,17.7h24.8C33.2,268.1,22.9,253.5,10.7,246.9z"
		/>
	<path class="st6" d="M277.9,150.4c-1.5,10.5-2.6,21-2.8,31.6c2.6,0.6,5.3,0.5,7.9,0.2v-24.1C281.2,155.7,280.7,152.1,277.9,150.4z"
		/>
	<path class="st7" d="M135,127.6c3.8-4.3,7.3-8.9,10.9-13.3c0.9-1.1,2.3-1.9,3.6-1.3c5.6,3.7-5.4,13.8-6.5,18.5
		c-4.9,12.6,8.9,7.2,14,2.5c11.7-9.8,17.8-33.5,11.6-47.6c-5.4-9.8-18.1-11.7-28.3-12c-41.8-4.1-92.4,76.1-21.8,35.5
		c3.3-1.7,7.5-5.6,11.2-5.6c3.7,2-2.8,8.9-4.4,10.9c-1.9,2.5-3.7,5.2-5.1,8.1c-2.7,4.3-4.5,10.2,2.3,11.2
		C127.4,135.1,131.9,131.1,135,127.6z"/>
	<path class="st0" d="M42,116.5c4.5-6.2-0.5-15-4.5-20.2c-3.9,5-10.9,13.7-4,19C35.9,116.7,39.5,118.6,42,116.5z"/>
	<path class="st0" d="M14.8,131.5c2.8,0.3,6.7,2,8.6-0.8c2.3-5.6-2.2-12.5-6.7-15.7c-1.7-1.8-4.2,8.3-4.4,9.6
		C11.8,127.2,11,131.3,14.8,131.5z"/>
	<path class="st0" d="M61.8,117.8c-0.1,0-0.1-0.1-0.2-0.1c-2.1-2.1-5.5,12.9-4.8,14.4c0.8,2.9,5.5,2.3,7.9,2.8
		C73.8,134.6,66.3,120.3,61.8,117.8z"/>
	<path class="st0" d="M36.5,144.8c2.8,0.3,6.7,2,8.6-0.8c2.3-5.6-2.2-12.5-6.7-15.7c-1.7-1.8-4.2,8.3-4.4,9.6
		C33.6,140.5,32.7,144.6,36.5,144.8z"/>
	<path class="st0" d="M272.5,206.4c1,2.5,6.2,5,8.5,3c3.5-5-0.4-11.8-3.6-15.9C274.8,197.2,270.6,201.4,272.5,206.4z"/>
	<path class="st0" d="M259.5,221.3c11.6,3.6,7.4-9.2,1.5-13c-1.4-1.3-3.3,6.5-3.5,7.6C257.2,217.9,256.5,221.1,259.5,221.3z"/>
	<path class="st0" d="M278.4,218.8c0,0-0.1-0.1-0.1-0.1c-1.8-1.5-4.3,10-3.8,11.4c0.2,1.1,1.2,1.5,2.2,1.7c2,0.2,4.7,1.4,6.4-0.2
		C283.2,225.4,283.9,223.1,278.4,218.8z"/>
	<path class="st4" d="M55,12.7c-0.1,2.2-0.4,4.8,0,7.1c9.9,0.3,19.8,1.6,29.6,2.8C89,15.4,92,7.5,95.9,0H83.8
		c-1.4,1.6-2.2,3.7-3.6,5.2C80,3.5,79.9,1.7,79.8,0H68.1c-0.5,2.1-1,4.4-2.2,6.3c-0.5-2.1-0.4-4.3-1.1-6.3H54.5
		C54.6,4.2,55.1,8.5,55,12.7z"/>
	<path class="st8" d="M50.1,168.1c2.8-5.8,8.4-9.1,12.4-14c-5.7,1.1-11.4,2.2-17.2,3.2C47.5,160.6,48.1,164.7,50.1,168.1z"/>
	<path class="st8" d="M71,165.7c0.4,0.5,0.8,1,1.2,1.5c4-4.8,8.1-9.8,13.2-13.5c-0.4-1.2-0.9-2.3-1.4-3.5c-6.5,1.1-13,2.3-19.4,3.5
		C66.5,157.8,68.6,161.8,71,165.7z"/>
	<path class="st8" d="M24.5,161c0.7,1.1,1.3,2.2,1.9,3.4c1.5-1.5,2.9-3,4.4-4.5C28.8,160.3,26.6,160.6,24.5,161z"/>
	<path class="st8" d="M87.4,183.2c0,0.1,0,0.2,0,0.2c-17.2-0.2-34.4,0.2-51.6-0.5c8.2,15.1,20.2,37.6,40.7,32
		c15.8-5.8,13.2-42.2,10.4-55.9C87.1,167.1,87.5,175.1,87.4,183.2z"/>
	<path class="st8" d="M109.6,160.3c-0.6-4.5-0.8-9-2.4-13.3c-4.3,0.5-8.6,1-12.9,1.6c5.7,19.4,8.7,57.2-5.9,73
		c-29.7,22.7-55.3-15.9-68.4-39c-4.6-0.1-9.2-0.7-13.9-0.7c4.9,18,15.5,35.8,28.7,48.9c24.5,21.2,63.3,16.7,72.5-17.4
		C114.5,188.5,115.4,185.8,109.6,160.3z"/>
	<path class="st8" d="M7.4,164.5c-1.1,0.3-2.2,0.5-3.3,0.8c0.5,0.9,0.9,1.7,1.4,2.6C6.3,167,6.8,165.6,7.4,164.5z"/>
	<path class="st6" d="M20,182.6c22.5,0.5,44.9,0.8,67.4,0.8c0.2-9.9-0.5-19.8-0.6-29.7c-2.1-1.9-13,11.4-14.7,13.5
		c-3.4-4.5-5.6-9.8-8.3-14.8c-4.1,5.7-10.6,9.3-13.8,15.7c-1.5-2.1-2-5.1-3-7.4c-0.8-1.7-1.8-3.2-2.4-5c-0.6-2-0.6-4.1-1.2-6.1
		c-6.3,4.7-12.5,9.5-17.7,15.4c-2.7-5.3-4.1-11.1-6.8-16.3c-0.1,0-0.1,0-0.2,0c-2.7,2.8-4.7,6.2-6.9,9.4c-2.4,3.1-4.5,6.4-6.3,9.8
		c-1.9-3.3-3.5-6.7-5.5-9.8v24.1C6.7,181.4,13.3,182.5,20,182.6z"/>
	<path class="st6" d="M176.2,201.6c8.5,10.7,18.5,20,27.7,30c7.5,8,14.3,16.5,22.1,24.3c8.5-5.5,17.5-10.3,26.6-14.6
		c-7.4-30.2-14.7-60.7-20.6-91.3c-6.2,1.3-12.2,3.7-18,6.3c2.6,9.1,5.6,18,7.2,27.3c2,9.2,5.6,18.4,4.7,28
		c-6.2-6.2-9.3-14.7-13.3-22.3c-4.9-9-9.2-18.4-14.5-27.2c-3.6,2.6-7.2,5-10.9,7.3c7.8,14.7,15.5,29.6,20.5,45.5
		c-8.3-8.3-16-17.3-23.3-26.4c-1.8-2.5-3.9-5.5-6.5-7.6c-3.7,3.4-7.5,6.8-11.2,10.2C170.1,194.4,173.2,198,176.2,201.6z"/>
	<path class="st5" d="M67.1,45.7c3.2-2.7,5.9-5.9,9.2-8.4c0.1-0.2,0.1-0.3,0.2-0.5c-2.2-0.7-4.1,1.5-5.6,2.9
		c-5.2,5.1-11,9.6-15.9,15c0.5,0.5,0.9,0.9,1.4,1.3C59.6,52.2,63.4,49,67.1,45.7z"/>
	<path class="st5" d="M41.8,69.2c-5.3-1.8-10.6-3.9-15.9-5.9c3.6-3.7,12.2-2.1,17.2-2.7c-4.7,0.4-17-0.8-19.7,2.7
		c5.3,2,10.5,4,15.9,5.9c-6.5,0.8-12.5,3.7-17.8,7.6c1-0.1,1.9-0.2,2.9-0.2C29.5,72.8,35.4,70,41.8,69.2z"/>
	<path class="st5" d="M68.8,78c-2.3-1.8-5.1-2.9-7.7-4.3c0,0.5,0.1,0.9,0.1,1.4c4,1.6,7.1,4.7,10.9,6.7c2.8,1.5,5.6,2.9,8.4,4.6
		c0.3-0.6-0.2-1.2-0.4-1.7C76.2,82.6,72.3,80.6,68.8,78z"/>
	<path class="st5" d="M53.2,79.9c-0.3-1.6-0.5-3.3-1.3-4.8c-0.1,0-0.2,0.1-0.4,0.1c-1.1-0.3-2.3-0.2-3.5-0.2c0.3,0,0.6,0.1,0.9,0.2
		c0.1,0,0.2-0.1,0.4-0.1c2.6,6.5,2.6,19.5,8.6,23.8c0.1-0.9,0-1.9,0-2.8C55.3,91.2,54.4,85.4,53.2,79.9z"/>
	<path class="st5" d="M46.6,60.6c-2.5-6.1-5-12.2-7.6-18.2c-1-0.9-2-1.8-3-2.7c-0.2,0.3-0.2,0.7-0.1,1c1.3,3.8,3.1,7.4,4.7,11.1
		c1.2,2.9,2.1,6,3.5,8.8C44.9,60.6,45.7,60.6,46.6,60.6z"/>
	<path class="st2" d="M38.1,60.8c-4,0.3-9.2-0.6-12.2,2.5c5.3,2,10.5,4,15.9,5.9C35.3,70,29.2,72.9,24,76.7c6.7-0.7,13.4-0.4,20-1.1
		c2.5-0.3,5.1-0.9,7.6-0.4c0.1,0,0.2-0.1,0.4-0.1c2.5,6,2.8,20,8.6,23.8c-0.2-8.4,0.5-16.8,0.5-25.2c4.9,2,9,5.4,13.5,8.1
		c2.8,1.5,5.6,2.9,8.4,4.6c-0.6-4.1-4.5-7.2-6.8-10.4c-1.9-2.3-3.4-4.7-5.6-6.9c7.1-2.4,14.1-4.8,21.5-5.8
		c-3.2-1.7-6.9-2.2-10.4-3.2c-3.9-1.1-7.9-2.5-11.7-3.8c4.5-5.7,6.3-12.8,9.1-19.4c-3-1.3-9.1,6.9-11.9,8.8
		C63.4,49,59.6,52.2,56.4,56c-5.9-5.6-11.9-11-18-16.3c-0.5,0.9,0.2,1.8,0.5,2.7c1.2,3.2,2.7,6.3,4.1,9.4c1.2,2.9,2.1,6,3.5,8.8
		C43.7,60.5,40.9,60.6,38.1,60.8z"/>
	<path class="st5" d="M220.1,7.2c0.3-2.4,0.6-4.8,1.1-7.2h-3.6c-1.5,7.2-2.4,15,0.8,21.9c1.5-0.7,3-1.1,4.6-1.3
		c-0.5-0.1-1.1-0.1-1.6-0.1C219.9,16.2,219.6,11.8,220.1,7.2z"/>
	<path class="st0" d="M280.2,27c-4.5,2.1-9.6,1.8-14.3,0.8c-14.4-2.7-20.8-13.4-17.7-27.8h-26.9c-1.4,6.7-2.3,13.9,0.3,20.4
		c10-1.3,17.5,7.2,20.9,15.7c1.7,4.6,3.1,10.7,8.4,12.4c4.6,0.9,8.7-2.6,13.3-3c4.8-1.2,6.8,2.6,8.6,6.2c3.5-0.6,7-1.1,10.4-1.9
		V25.3C282.2,25.9,281.2,26.5,280.2,27z"/>
	<path class="st5" d="M197.7,131c1.5,0,3,0,4.5,0C200.7,131,199.2,131,197.7,131z"/>
	<path class="st5" d="M250.2,128.8c0,0-0.1,0-0.1,0c7.8-0.3,15.4,2.6,23.2,2.6C265.6,129.9,258,128.5,250.2,128.8z"/>
	<path class="st5" d="M184.4,127.2c-0.8-2.6-0.6-5.3-0.3-8c1.3-20.3,2.8-41,11-59.9c0,0,0,0,0,0c0.3-0.7,0.6-1.4,0.8-2
		c-1.5,1.2-3,2.3-4.6,3.3c-7.7,18.6-9.2,38.7-10.4,58.6c-0.2,2.6-0.5,5.2,0.3,7.7c1.8,5,9.9,3.9,14.2,4.1
		C191.7,130.8,186.1,131,184.4,127.2z"/>
	<path class="st5" d="M198.4,46.6c0.8,0.1,1.6,0.2,2.2,0.6c4.6-8.1,9.2-17.6,17.9-21.9c-0.1-0.3-0.3-0.7-0.4-1
		c-10.3,2.9-15.4,13.7-20.3,22.2C198,46.5,198.2,46.6,198.4,46.6z"/>
	<path class="st9" d="M210,32.3c-3.3,4.2-6.1,8.9-8.7,13.6c10.2,2-2.8,11.1-6.4,13.5c-8.1,18.9-9.7,39.6-11,59.9
		c-0.2,2.7-0.5,5.4,0.3,8c2.2,5.9,20,3.3,25.7,3.8c13.4,0.1,26.8-1.5,40.1-2.2c6.6-0.1,13.2,0.6,19.6,2c2.5,0.5,5.1,1,7.6,0.4
		c9-2.8,4.6-15.1,4.9-22.1c-1.4-17.7-1-36.3-8.9-52.6c-2-3.8-3.9-8.9-9.3-7.5c-7,1-13.4,7.1-18.3-1.2c-2.9-5.2-3.6-11.3-7.7-15.9
		C230.1,20.8,217.9,21.7,210,32.3z"/>
	<path class="st2" d="M127.5,46.5c8.9,11.4,22.1,18.7,36.7,18.2c9.2,1.6,19,1.3,26.9-4.2c3.7-2.7,8.3-5.3,10.6-9.4
		c1.4-3-1.4-4.6-4.1-4.6c-13.5-2.7-30.4-2.1-39.8-13.7c-5.4-9-7.2-23.9-0.6-32.8h-36.9c-2.7,10.3-5,22-2,32.4
		C120.4,37.7,124,42.3,127.5,46.5z"/>
	<path class="st2" d="M173.8,168.2c5-3.2,9.2-7.8,14.8-10.1c4.1-1.8,9.8-4.3,9.8-9.6c-0.1-3.2-3.2-4.8-5.9-5.7
		c-9.9-3.9-24-1.8-28.2,9.2c-2.1,4.4-2.3,9.6,0.6,13.8C166.7,168.9,170.6,170.4,173.8,168.2z"/>
	<path class="st4" d="M260.7,187.6c5.2-1.1,4.1-7.5,4.6-11.5c0.2-2.7,0.4-5.5,0.2-8.2c-0.5-5.2-2.1-10.2-2.8-15.3
		c-0.4-5-1.1-10.3-7.3-10.1c-2.7-0.1-6.5-0.2-8.1,2.4c-0.7,1.5-0.5,3.4-0.6,5c-0.1,2.2-0.5,4.3-0.3,6.6c0.5,3.8,1.2,7.7,1.9,11.5
		C250.2,176.9,247,189.3,260.7,187.6z"/>
	<path class="st0" d="M0,224.8v6.8C1.7,229.9,0.8,226.8,0,224.8z"/>
	<path class="st0" d="M15.9,42.3c10.7-10.8,18-26.8,18-42.3H9.1c1.1,9.6-2,20.1-9.1,25.3v24.5C5.8,48.5,11.3,46.4,15.9,42.3z"/>
	<path class="st0" d="M136,211.2c11.6,3.6,7.4-9.2,1.5-13c-1.4-1.3-3.3,6.5-3.5,7.6C133.7,207.8,133,211.1,136,211.2z"/>
	<path class="st0" d="M154.9,208.8c0,0-0.1-0.1-0.1-0.1c-1.8-1.5-4.3,10-3.8,11.4c0.2,1.1,1.2,1.5,2.2,1.7c2,0.2,4.7,1.4,6.4-0.2
		C159.6,215.3,160.4,213.1,154.9,208.8z"/>
	<path class="st0" d="M283.6,224.8v6.8C285.3,229.9,284.4,226.8,283.6,224.8z"/>
</g>
</svg>
